<svg xmlns="http://www.w3.org/2000/svg" xmlns:xlink="http://www.w3.org/1999/xlink" viewBox="0 0 1600 1200"><defs><linearGradient id="q" x1="372.44" x2="524.74" y1="369.37" y2="369.37" gradientUnits="userSpaceOnUse"><stop offset="0" stop-color="#c4c9e4" class="stopColorc4c9e4 svgShape"/><stop offset=".19" stop-color="#d7daed" class="stopColord7daed svgShape"/><stop offset=".48" stop-color="#edeef7" class="stopColoredeef7 svgShape"/><stop offset=".75" stop-color="#fafbfd" class="stopColorfafbfd svgShape"/><stop offset="1" stop-color="#ffffff" class="stopColorfff svgShape"/></linearGradient><linearGradient id="r" x1="653.51" x2="917.57" y1="391.06" y2="391.06" gradientUnits="userSpaceOnUse"><stop offset="0" stop-color="#c4c9e5" class="stopColorc4c9e5 svgShape"/><stop offset=".1" stop-color="#ccd0e9" class="stopColorccd0e9 svgShape"/><stop offset=".61" stop-color="#f1f2f9" class="stopColorf1f2f9 svgShape"/><stop offset=".88" stop-color="#ffffff" class="stopColorfff svgShape"/></linearGradient><linearGradient id="s" x1="1070.08" x2="1343.86" y1="858.81" y2="858.81" gradientUnits="userSpaceOnUse"><stop offset="0" stop-color="#c2c9eb" class="stopColorc2c9eb svgShape"/><stop offset=".62" stop-color="#e7e9f7" class="stopColore7e9f7 svgShape"/><stop offset="1" stop-color="#ffffff" class="stopColorfff svgShape"/></linearGradient><linearGradient id="t" x1="1050.57" x2="1324.34" y1="882.01" y2="882.01" gradientUnits="userSpaceOnUse"><stop offset=".29" stop-color="#ffaf6d" class="stopColorffaf6d svgShape"/><stop offset=".32" stop-color="#fba564" class="stopColorfba564 svgShape"/><stop offset=".38" stop-color="#ef894d" class="stopColoref894d svgShape"/><stop offset=".43" stop-color="#e57139" class="stopColore57139 svgShape"/></linearGradient><linearGradient id="a" x1="837.56" x2="954.76" y1="963.31" y2="963.31" gradientUnits="userSpaceOnUse"><stop offset="0" stop-color="#c6cbe7" class="stopColorc6cbe7 svgShape"/><stop offset=".26" stop-color="#cfd3eb" class="stopColorcfd3eb svgShape"/><stop offset=".68" stop-color="#e8eaf5" class="stopColore8eaf5 svgShape"/><stop offset="1" stop-color="#ffffff" class="stopColorfff svgShape"/></linearGradient><linearGradient id="u" x1="726.84" x2="844.03" y1="963.31" y2="963.31" xlink:href="#a"/><linearGradient id="v" x1="725.61" x2="935.11" y1="982.14" y2="982.14" gradientUnits="userSpaceOnUse"><stop offset="0" stop-color="#6b67e9" class="stopColor6b67e9 svgShape"/><stop offset=".23" stop-color="#5651c6" class="stopColor5651c6 svgShape"/><stop offset=".58" stop-color="#393397" class="stopColor393397 svgShape"/><stop offset=".85" stop-color="#27207a" class="stopColor27207a svgShape"/><stop offset="1" stop-color="#20196f" class="stopColor20196f svgShape"/></linearGradient><linearGradient id="b" x1="957.84" x2="978.01" y1="1048.5" y2="1013.55" gradientUnits="userSpaceOnUse"><stop offset="0" stop-color="#423eaf" class="stopColor423eaf svgShape"/><stop offset=".21" stop-color="#4a46b8" class="stopColor4a46b8 svgShape"/><stop offset=".55" stop-color="#5e5ad1" class="stopColor5e5ad1 svgShape"/><stop offset=".99" stop-color="#7f7cfa" class="stopColor7f7cfa svgShape"/><stop offset="1" stop-color="#807dfb" class="stopColor807dfb svgShape"/></linearGradient><linearGradient id="w" x1="1008.77" x2="1042.17" y1="1074.73" y2="1055.44" xlink:href="#b"/><linearGradient id="c" x1="1163.82" x2="1225.76" y1="725.32" y2="725.32" gradientUnits="userSpaceOnUse"><stop offset="0" stop-color="#cfd5f1" class="stopColorcfd5f1 svgShape"/><stop offset=".28" stop-color="#e1e5f6" class="stopColore1e5f6 svgShape"/><stop offset=".72" stop-color="#f7f8fd" class="stopColorf7f8fd svgShape"/><stop offset="1" stop-color="#ffffff" class="stopColorfff svgShape"/></linearGradient><linearGradient id="x" x1="526.27" x2="572.85" y1="479.31" y2="479.31" xlink:href="#c"/><linearGradient id="y" x1="305.02" x2="394.71" y1="957.64" y2="957.64" xlink:href="#c"/><linearGradient id="z" x1="489.6" x2="1321.82" y1="661.39" y2="661.39" gradientUnits="userSpaceOnUse"><stop offset="0" stop-color="#dae0f5" class="stopColordae0f5 svgShape"/><stop offset=".35" stop-color="#e3e7f7" class="stopColore3e7f7 svgShape"/><stop offset=".9" stop-color="#fafbfe" class="stopColorfafbfe svgShape"/><stop offset="1" stop-color="#ffffff" class="stopColorfff svgShape"/></linearGradient><linearGradient id="d" x1="396.57" x2="383.34" y1="776.72" y2="753.82" gradientUnits="userSpaceOnUse"><stop offset="0" stop-color="#5652cc" class="stopColor5652cc svgShape"/><stop offset=".37" stop-color="#4a44b6" class="stopColor4a44b6 svgShape"/><stop offset="1" stop-color="#362e94" class="stopColor362e94 svgShape"/></linearGradient><linearGradient id="A" x1="417.37" x2="410.64" y1="778.46" y2="766.79" xlink:href="#d"/><linearGradient id="B" x1="432.67" x2="425.93" y1="787.25" y2="775.58" xlink:href="#d"/><linearGradient id="C" x1="447.97" x2="441.24" y1="796.13" y2="784.46" xlink:href="#d"/><linearGradient id="e" x1="353.33" x2="366.42" y1="697.46" y2="713.26" gradientUnits="userSpaceOnUse"><stop offset="0" stop-color="#c4cae9" class="stopColorc4cae9 svgShape"/><stop offset=".1" stop-color="#d1d5ee" class="stopColord1d5ee svgShape"/><stop offset=".34" stop-color="#eaecf7" class="stopColoreaecf7 svgShape"/><stop offset=".56" stop-color="#fafafd" class="stopColorfafafd svgShape"/><stop offset=".74" stop-color="#ffffff" class="stopColorfff svgShape"/></linearGradient><linearGradient id="f" x1="930.58" x2="937.57" y1="197.66" y2="197.66" gradientTransform="rotate(-120 786.445 618.12)" gradientUnits="userSpaceOnUse"><stop offset="0" stop-color="#362e94" class="stopColor362e94 svgShape"/><stop offset="1" stop-color="#807dfb" class="stopColor807dfb svgShape"/></linearGradient><linearGradient id="D" x1="381.88" x2="394.98" y1="713.95" y2="729.74" xlink:href="#e"/><linearGradient id="E" x1="902.02" x2="909.02" y1="214.15" y2="214.15" xlink:href="#f"/><linearGradient id="F" x1="410.44" x2="423.53" y1="730.43" y2="746.23" xlink:href="#e"/><linearGradient id="G" x1="873.47" x2="880.46" y1="230.63" y2="230.63" xlink:href="#f"/><linearGradient id="H" x1="438.99" x2="452.09" y1="746.92" y2="762.71" xlink:href="#e"/><linearGradient id="I" x1="844.91" x2="851.91" y1="247.12" y2="247.12" xlink:href="#f"/><linearGradient id="J" x1="467.55" x2="480.64" y1="763.4" y2="779.2" xlink:href="#e"/><linearGradient id="K" x1="816.36" x2="823.35" y1="263.6" y2="263.6" xlink:href="#f"/><linearGradient id="L" x1="496.1" x2="509.19" y1="779.89" y2="795.69" xlink:href="#e"/><linearGradient id="M" x1="787.8" x2="794.8" y1="280.09" y2="280.09" xlink:href="#f"/><linearGradient id="N" x1="874.92" x2="1007.89" y1="795.81" y2="795.81" gradientUnits="userSpaceOnUse"><stop offset="0" stop-color="#c4cae8" class="stopColorc4cae8 svgShape"/><stop offset="1" stop-color="#ffffff" class="stopColorfff svgShape"/></linearGradient><linearGradient id="O" x1="802.5" x2="987.94" y1="798.24" y2="798.24" gradientUnits="userSpaceOnUse"><stop offset=".31" stop-color="#ced3f8" class="stopColorced3f8 svgShape"/><stop offset=".47" stop-color="#bbc0e6" class="stopColorbbc0e6 svgShape"/></linearGradient><linearGradient id="P" x1="853.69" x2="987.94" y1="773.6" y2="773.6" gradientUnits="userSpaceOnUse"><stop offset="0" stop-color="#d1d6f0" class="stopColord1d6f0 svgShape"/><stop offset=".73" stop-color="#f2f3fb" class="stopColorf2f3fb svgShape"/><stop offset="1" stop-color="#ffffff" class="stopColorfff svgShape"/></linearGradient><linearGradient id="Q" x1="802.5" x2="948.38" y1="759.96" y2="759.96" gradientUnits="userSpaceOnUse"><stop offset="0" stop-color="#dae0f5" class="stopColordae0f5 svgShape"/><stop offset="1" stop-color="#ffffff" class="stopColorfff svgShape"/></linearGradient><linearGradient id="R" x1="852.52" x2="950.09" y1="607.4" y2="723.68" gradientUnits="userSpaceOnUse"><stop offset=".76" stop-color="#ced3f8" class="stopColorced3f8 svgShape"/><stop offset=".84" stop-color="#bbc0e6" class="stopColorbbc0e6 svgShape"/></linearGradient><linearGradient id="S" x1="816.62" x2="1004.1" y1="656.57" y2="656.57" gradientUnits="userSpaceOnUse"><stop offset="0" stop-color="#34318c" class="stopColor34318c svgShape"/><stop offset=".13" stop-color="#302d86" class="stopColor302d86 svgShape"/><stop offset=".65" stop-color="#232172" class="stopColor232172 svgShape"/><stop offset="1" stop-color="#1e1c6b" class="stopColor1e1c6b svgShape"/></linearGradient><linearGradient id="p" x1="802.5" x2="836.94" y1="800.96" y2="800.96" gradientUnits="userSpaceOnUse"><stop offset="0" stop-color="#dae0f5" class="stopColordae0f5 svgShape"/><stop offset="1" stop-color="#f6f6fb" class="stopColorf6f6fb svgShape"/></linearGradient><linearGradient id="T" x1="847.97" x2="912.13" y1="645.44" y2="645.44" gradientUnits="userSpaceOnUse"><stop offset="0" stop-color="#362e94" class="stopColor362e94 svgShape"/><stop offset="1" stop-color="#20196f" class="stopColor20196f svgShape"/></linearGradient><linearGradient id="g" x1="971.72" x2="1043.53" y1="838.73" y2="838.73" gradientUnits="userSpaceOnUse"><stop offset="0" stop-color="#dae0f5" class="stopColordae0f5 svgShape"/><stop offset=".24" stop-color="#e9ecf9" class="stopColore9ecf9 svgShape"/><stop offset=".62" stop-color="#f9fafd" class="stopColorf9fafd svgShape"/><stop offset=".9" stop-color="#ffffff" class="stopColorfff svgShape"/></linearGradient><linearGradient id="U" x1="1004.1" x2="1075.9" y1="819.67" y2="819.67" xlink:href="#g"/><linearGradient id="h" x1="985.58" x2="1012.04" y1="817.15" y2="817.15" gradientUnits="userSpaceOnUse"><stop offset="0" stop-color="#696adf" class="stopColor696adf svgShape"/><stop offset=".28" stop-color="#5857c4" class="stopColor5857c4 svgShape"/><stop offset=".76" stop-color="#3e3c9b" class="stopColor3e3c9b svgShape"/><stop offset="1" stop-color="#34318c" class="stopColor34318c svgShape"/></linearGradient><linearGradient id="V" x1="952.85" x2="979.32" y1="836.2" y2="836.2" xlink:href="#h"/><linearGradient id="W" x1="964.34" x2="1009.84" y1="772.96" y2="772.96" gradientUnits="userSpaceOnUse"><stop offset="0" stop-color="#5455c4" class="stopColor5455c4 svgShape"/><stop offset=".01" stop-color="#5454c3" class="stopColor5454c3 svgShape"/><stop offset=".46" stop-color="#373694" class="stopColor373694 svgShape"/><stop offset=".8" stop-color="#252376" class="stopColor252376 svgShape"/><stop offset="1" stop-color="#1e1c6b" class="stopColor1e1c6b svgShape"/></linearGradient><linearGradient id="X" x1="996.48" x2="1017.36" y1="653.53" y2="718.01" gradientUnits="userSpaceOnUse"><stop offset="0" stop-color="#ced2f4" class="stopColorced2f4 svgShape"/><stop offset=".43" stop-color="#c4c8ea" class="stopColorc4c8ea svgShape"/><stop offset="1" stop-color="#bbbfe2" class="stopColorbbbfe2 svgShape"/></linearGradient><linearGradient id="Y" x1="957.1" x2="1012.08" y1="713.98" y2="713.98" gradientUnits="userSpaceOnUse"><stop offset="0" stop-color="#ffffff" class="stopColorfff svgShape"/><stop offset=".39" stop-color="#e4e6f9" class="stopColore4e6f9 svgShape"/><stop offset=".74" stop-color="#d4d7f5" class="stopColord4d7f5 svgShape"/><stop offset="1" stop-color="#ced2f4" class="stopColorced2f4 svgShape"/></linearGradient><linearGradient id="Z" x1="935.52" x2="976.93" y1="684.48" y2="684.48" gradientUnits="userSpaceOnUse"><stop offset="0" stop-color="#ffffff" class="stopColorfff svgShape"/><stop offset=".37" stop-color="#f0f2fc" class="stopColorf0f2fc svgShape"/><stop offset="1" stop-color="#ced2f4" class="stopColorced2f4 svgShape"/></linearGradient><linearGradient id="i" x1="1056.44" x2="1150.73" y1="282.95" y2="282.95" gradientUnits="userSpaceOnUse"><stop offset="0" stop-color="#c4c9e5" class="stopColorc4c9e5 svgShape"/><stop offset=".25" stop-color="#d7daed" class="stopColord7daed svgShape"/><stop offset=".7" stop-color="#f4f5fa" class="stopColorf4f5fa svgShape"/><stop offset=".95" stop-color="#ffffff" class="stopColorfff svgShape"/></linearGradient><linearGradient id="j" x1="1003.38" x2="1090.93" y1="240.1" y2="189.55" gradientUnits="userSpaceOnUse"><stop offset="0" stop-color="#6b6ae0" class="stopColor6b6ae0 svgShape"/><stop offset=".36" stop-color="#4c4ab0" class="stopColor4c4ab0 svgShape"/><stop offset=".79" stop-color="#2b297e" class="stopColor2b297e svgShape"/><stop offset="1" stop-color="#1e1c6b" class="stopColor1e1c6b svgShape"/></linearGradient><linearGradient id="k" x1="1009.94" x2="1086.67" y1="206.79" y2="162.5" gradientUnits="userSpaceOnUse"><stop offset="0" stop-color="#6b6ae0" class="stopColor6b6ae0 svgShape"/><stop offset=".67" stop-color="#35338e" class="stopColor35338e svgShape"/><stop offset="1" stop-color="#1e1c6b" class="stopColor1e1c6b svgShape"/></linearGradient><linearGradient id="l" x1="1015.01" x2="1097.88" y1="149.62" y2="149.62" gradientUnits="userSpaceOnUse"><stop offset="0" stop-color="#807ef1" class="stopColor807ef1 svgShape"/><stop offset=".33" stop-color="#6664cf" class="stopColor6664cf svgShape"/><stop offset="1" stop-color="#34318d" class="stopColor34318d svgShape"/></linearGradient><linearGradient id="aa" x1="187.95" x2="268.82" y1="637.56" y2="637.56" xlink:href="#i"/><linearGradient id="ab" x1="142.44" x2="217.53" y1="600.8" y2="557.45" xlink:href="#j"/><linearGradient id="ac" x1="148.07" x2="213.87" y1="572.24" y2="534.24" xlink:href="#k"/><linearGradient id="ad" x1="152.42" x2="223.49" y1="523.2" y2="523.2" xlink:href="#l"/><linearGradient id="ae" x1="1376.62" x2="1459.53" y1="766.36" y2="766.36" gradientUnits="userSpaceOnUse"><stop offset="0" stop-color="#c4c9e5" class="stopColorc4c9e5 svgShape"/><stop offset=".08" stop-color="#c9cee7" class="stopColorc9cee7 svgShape"/><stop offset=".68" stop-color="#f0f1f8" class="stopColorf0f1f8 svgShape"/><stop offset="1" stop-color="#ffffff" class="stopColorfff svgShape"/></linearGradient><linearGradient id="m" x1="622.53" x2="655.64" y1="643.72" y2="643.72" gradientUnits="userSpaceOnUse"><stop offset="0" stop-color="#c4cae9" class="stopColorc4cae9 svgShape"/><stop offset="1" stop-color="#ffffff" class="stopColorfff svgShape"/></linearGradient><linearGradient id="ag" x1="647.12" x2="680.22" y1="629.52" y2="629.52" xlink:href="#m"/><linearGradient id="ah" x1="501.72" x2="534.83" y1="713.48" y2="713.48" xlink:href="#m"/><linearGradient id="ai" x1="1024.74" x2="1052.52" y1="360.2" y2="360.2" gradientTransform="matrix(-1 1.15 0 1 1549.15 -894.17)" gradientUnits="userSpaceOnUse"><stop offset="0" stop-color="#362e94" class="stopColor362e94 svgShape"/><stop offset="1" stop-color="#423eaf" class="stopColor423eaf svgShape"/></linearGradient><linearGradient id="o" x1="434.32" x2="497.79" y1="652.96" y2="652.96" gradientUnits="userSpaceOnUse"><stop offset=".01" stop-color="#5652cc" class="stopColor5652cc svgShape"/><stop offset=".36" stop-color="#4a45b7" class="stopColor4a45b7 svgShape"/><stop offset="1" stop-color="#362e94" class="stopColor362e94 svgShape"/></linearGradient><linearGradient id="aj" x1="689.45" x2="696.96" y1="654.87" y2="667.89" gradientTransform="matrix(-1 0 0 1 1158.44 0)" gradientUnits="userSpaceOnUse"><stop offset="0" stop-color="#000000" class="stopColor000000 svgShape"/><stop offset=".17" stop-color="#060301" class="stopColor060301 svgShape"/><stop offset=".4" stop-color="#170a05" class="stopColor170a05 svgShape"/><stop offset=".66" stop-color="#32160c" class="stopColor32160c svgShape"/><stop offset=".95" stop-color="#582715" class="stopColor582715 svgShape"/><stop offset="1" stop-color="#602a17" class="stopColor602a17 svgShape"/></linearGradient><linearGradient id="ak" x1="469.71" x2="529.82" y1="621.43" y2="621.43" gradientUnits="userSpaceOnUse"><stop offset="0" stop-color="#c4cae9" class="stopColorc4cae9 svgShape"/><stop offset=".28" stop-color="#c8ceeb" class="stopColorc8ceeb svgShape"/><stop offset=".57" stop-color="#d5d9ef" class="stopColord5d9ef svgShape"/><stop offset=".86" stop-color="#e9ebf6" class="stopColore9ebf6 svgShape"/><stop offset="1" stop-color="#f6f6fb" class="stopColorf6f6fb svgShape"/></linearGradient><linearGradient id="n" x1="479.21" x2="482.27" y1="695.68" y2="700.98" gradientUnits="userSpaceOnUse"><stop offset="0" stop-color="#ffffff" class="stopColorfff svgShape"/><stop offset=".18" stop-color="#edeef8" class="stopColoredeef8 svgShape"/><stop offset=".5" stop-color="#d2d5ee" class="stopColord2d5ee svgShape"/><stop offset=".78" stop-color="#c1c5e8" class="stopColorc1c5e8 svgShape"/><stop offset="1" stop-color="#bbc0e6" class="stopColorbbc0e6 svgShape"/></linearGradient><linearGradient id="al" x1="435.67" x2="438.73" y1="670.54" y2="675.84" xlink:href="#n"/><linearGradient id="am" x1="785.11" x2="815.95" y1="550.08" y2="550.08" xlink:href="#m"/><linearGradient id="an" x1="849.21" x2="880.05" y1="512.34" y2="512.34" xlink:href="#m"/><linearGradient id="ao" x1="850.21" x2="805.97" y1="497.41" y2="499.91" gradientUnits="userSpaceOnUse"><stop offset="0" stop-color="#362e94" class="stopColor362e94 svgShape"/><stop offset=".64" stop-color="#4a45b7" class="stopColor4a45b7 svgShape"/><stop offset=".99" stop-color="#5652cc" class="stopColor5652cc svgShape"/></linearGradient><linearGradient id="ap" x1="749.67" x2="802.57" y1="495.95" y2="495.95" xlink:href="#o"/><linearGradient id="aq" x1="374.23" x2="386.14" y1="487.76" y2="508.39" gradientTransform="matrix(-1 0 0 1 1158.44 0)" gradientUnits="userSpaceOnUse"><stop offset="0" stop-color="#000000" class="stopColor000000 svgShape"/><stop offset="1" stop-color="#5b3600" class="stopColor5b3600 svgShape"/></linearGradient><linearGradient id="ar" x1="947.75" x2="978.59" y1="470.24" y2="470.24" xlink:href="#m"/><linearGradient id="as" x1="1019.3" x2="1050.14" y1="428.75" y2="428.75" xlink:href="#m"/><linearGradient id="at" x1="1024.95" x2="976.25" y1="412.97" y2="415.72" gradientUnits="userSpaceOnUse"><stop offset="0" stop-color="#20196f" class="stopColor20196f svgShape"/><stop offset=".02" stop-color="#15124c" class="stopColor15124c svgShape"/><stop offset=".03" stop-color="#131147" class="stopColor131147 svgShape"/><stop offset="1" stop-color="#20196f" class="stopColor20196f svgShape"/></linearGradient><linearGradient id="au" x1="919.33" x2="977.15" y1="410.46" y2="410.46" gradientUnits="userSpaceOnUse"><stop offset="0" stop-color="#362e94" class="stopColor362e94 svgShape"/><stop offset=".04" stop-color="#352d92" class="stopColor352d92 svgShape"/><stop offset="1" stop-color="#20196f" class="stopColor20196f svgShape"/></linearGradient><linearGradient id="av" x1="204.4" x2="216.31" y1="403.95" y2="424.58" gradientTransform="matrix(-1 0 0 1 1158.44 0)" gradientUnits="userSpaceOnUse"><stop offset="0" stop-color="#000000" class="stopColor000000 svgShape"/><stop offset="1" stop-color="#20196f" class="stopColor20196f svgShape"/></linearGradient><linearGradient id="aw" x1="957.12" x2="947.24" y1="408.22" y2="425.33" gradientUnits="userSpaceOnUse"><stop offset="0" stop-color="#000000" class="stopColor000000 svgShape"/><stop offset=".21" stop-color="#010103" class="stopColor010103 svgShape"/><stop offset=".4" stop-color="#04030e" class="stopColor04030e svgShape"/><stop offset=".57" stop-color="#090720" class="stopColor090720 svgShape"/><stop offset=".75" stop-color="#110d3a" class="stopColor110d3a svgShape"/><stop offset=".91" stop-color="#1a145a" class="stopColor1a145a svgShape"/><stop offset="1" stop-color="#20196f" class="stopColor20196f svgShape"/></linearGradient><linearGradient id="ax" x1="967.46" x2="956.63" y1="414.19" y2="432.96" gradientTransform="rotate(30 962.034 423.564)" gradientUnits="userSpaceOnUse"><stop offset="0" stop-color="#000000" class="stopColor000000 svgShape"/><stop offset=".44" stop-color="#030303" class="stopColor030303 svgShape"/><stop offset=".82" stop-color="#0a0d0e" class="stopColor0a0d0e svgShape"/><stop offset="1" stop-color="#101416" class="stopColor101416 svgShape"/></linearGradient><linearGradient id="ay" x1="929.23" x2="932.29" y1="455.81" y2="461.11" xlink:href="#n"/><linearGradient id="az" x1="1031.08" x2="1039.91" y1="394" y2="394" xlink:href="#m"/><linearGradient id="aA" x1="891.01" x2="894.06" y1="433.74" y2="439.04" xlink:href="#n"/><linearGradient id="aB" x1="987.51" x2="998.55" y1="361.12" y2="361.12" xlink:href="#p"/><radialGradient id="af" cx="1348.91" cy="645.16" r="85.11" gradientUnits="userSpaceOnUse"><stop offset="0" stop-color="#807ef1" class="stopColor807ef1 svgShape"/><stop offset="1" stop-color="#34318d" class="stopColor34318d svgShape"/></radialGradient></defs><g data-name="Sport car" fill="#000000" class="color000 svgShape"><polygon points="461.9 333.09 372.44 333.09 435.28 369.38 372.44 405.65 461.9 405.65 524.74 369.38 461.9 333.09" style="mix-blend-mode:multiply" fill="url(#q)"/><polygon fill="#a3a9d0" points="372.44 405.65 435.28 369.38 435.28 314.97 372.44 351.24 372.44 405.65" class="colora3a9d0 svgShape"/><polygon fill="#f1f1f6" points="372.44 351.24 309.61 314.97 372.44 278.7 435.28 314.97 372.44 351.24" class="colorf1f1f6 svgShape"/><polygon fill="#bbc0e6" points="372.44 351.24 341.02 303.46 403.86 267.19 435.28 314.97 372.44 351.24" class="colorbbc0e6 svgShape"/><polygon fill="#f6f6fb" points="341.02 303.47 309.61 314.97 372.44 278.7 403.86 267.19 341.02 303.47" class="colorf6f6fb svgShape"/><polygon fill="#ced3f8" points="341.02 303.46 309.61 314.97 309.61 369.38 372.44 405.65 372.44 351.24 341.02 303.46" class="colorced3f8 svgShape"/><polygon points="917.57 339.83 653.51 339.83 742.24 391.06 653.51 442.28 917.57 442.28 917.57 388.67 917.57 339.83" style="mix-blend-mode:multiply" fill="url(#r)"/><polygon fill="#f6f6fb" points="742.23 238.6 653.51 187.37 564.78 238.6 653.51 289.83 742.23 238.6" class="colorf6f6fb svgShape"/><polygon fill="#dae0f5" points="724.41 240.98 653.51 200.04 582.61 240.98 653.51 281.91 724.41 240.98" class="colordae0f5 svgShape"/><polygon fill="#bbc0e6" points="742.23 391.06 653.51 442.28 653.51 289.83 742.23 238.6 742.23 391.06" class="colorbbc0e6 svgShape"/><g style="mix-blend-mode:multiply" fill="#000000" class="color000 svgShape"><polygon fill="#dae0f5" points="702.39 287.96 693.35 293.18 693.35 283.67 702.39 278.45 702.39 287.96" class="colordae0f5 svgShape"/><polygon fill="#dae0f5" points="702.39 309.56 693.35 314.78 693.35 305.27 702.39 300.05 702.39 309.56" class="colordae0f5 svgShape"/><polygon fill="#dae0f5" points="702.39 331.17 693.35 336.38 693.35 326.87 702.39 321.66 702.39 331.17" class="colordae0f5 svgShape"/><polygon fill="#dae0f5" points="702.39 352.77 693.35 357.98 693.35 348.47 702.39 343.26 702.39 352.77" class="colordae0f5 svgShape"/><polygon fill="#dae0f5" points="702.39 374.37 693.35 379.58 693.35 370.07 702.39 364.86 702.39 374.37" class="colordae0f5 svgShape"/><polygon fill="#dae0f5" points="702.39 395.97 693.35 401.19 693.35 391.68 702.39 386.46 702.39 395.97" class="colordae0f5 svgShape"/></g><polygon fill="#ced3f8" points="564.78 391.06 653.51 442.28 653.51 289.83 564.78 238.6 564.78 391.06" class="colorced3f8 svgShape"/><g style="mix-blend-mode:multiply" fill="#000000" class="color000 svgShape"><polygon fill="#dae0f5" points="604.63 287.96 613.66 293.18 613.66 283.67 604.63 278.45 604.63 287.96" class="colordae0f5 svgShape"/><polygon fill="#dae0f5" points="604.63 309.56 613.66 314.78 613.66 305.27 604.63 300.05 604.63 309.56" class="colordae0f5 svgShape"/><polygon fill="#dae0f5" points="604.63 331.17 613.66 336.38 613.66 326.87 604.63 321.66 604.63 331.17" class="colordae0f5 svgShape"/><polygon fill="#dae0f5" points="604.63 352.77 613.66 357.98 613.66 348.47 604.63 343.26 604.63 352.77" class="colordae0f5 svgShape"/><polygon fill="#dae0f5" points="604.63 374.37 613.66 379.58 613.66 370.07 604.63 364.86 604.63 374.37" class="colordae0f5 svgShape"/><polygon fill="#dae0f5" points="604.63 395.97 613.66 401.19 613.66 391.68 604.63 386.46 604.63 395.97" class="colordae0f5 svgShape"/></g><polygon fill="#bbc0e6" points="653.51 200.04 582.61 240.98 578.49 238.6 653.51 195.29 653.51 200.04" class="colorbbc0e6 svgShape"/><polygon fill="#ced3f8" points="653.51 200.04 724.41 240.98 728.52 238.6 653.51 195.29 653.51 200.04" class="colorced3f8 svgShape"/><path d="M1338.54,829.91,1257,782.84c-7.08-4.08-18.67-4.08-25.75,0l-60.76,35.08-40.43-3.49,6.05,23.35-60.76,35.07c-7.07,4.09-7.07,10.77,0,14.86l74.44,43v7.15h19.81a26.31,26.31,0,0,0,13-3.05l155.9-90C1345.62,840.69,1345.63,834,1338.54,829.91Z" style="mix-blend-mode:multiply" fill="url(#s)"/><path fill="#f6f6fb" d="M1163.14,923.59l155.9-90c7.07-4.09,7.08-10.78,0-14.86l-81.51-47.07c-7.08-4.09-18.67-4.09-25.75,0L1151,806.73l-40.43-3.5,6.05,23.35-60.76,35.08c-7.07,4.08-7.07,10.77,0,14.86l81.52,47.07C1144.48,927.67,1156.06,927.67,1163.14,923.59Z" class="colorf6f6fb svgShape"/><polygon fill="#ffaf6d" points="1116.63 826.58 1110.58 803.23 1110.58 814.43 1114.11 828.04 1116.63 826.58" class="colorffaf6d svgShape"/><path fill="url(#t)" d="M1319,833.58l-155.9,90c-7.08,4.08-18.66,4.08-25.74,0l-81.52-47.07c-3.54-2-5.31-4.74-5.31-7.43v11.2c0,2.69,1.77,5.38,5.31,7.42l81.52,47.07c7.08,4.08,18.66,4.09,25.74,0l155.9-90c3.55-2.06,5.32-4.76,5.3-7.46V826.17C1324.33,828.86,1322.57,831.54,1319,833.58Z"/><polygon fill="#dae0f5" points="1239.92 804.22 1112.28 877.92 1104.77 873.58 1232.42 799.89 1239.92 804.22" class="colordae0f5 svgShape"/><polygon fill="#dae0f5" points="1257.09 814.13 1129.44 887.83 1121.93 883.49 1249.58 809.8 1257.09 814.13" class="colordae0f5 svgShape"/><polygon fill="#dae0f5" points="1249.85 838.13 1171.01 883.65 1163.5 879.31 1242.34 833.79 1249.85 838.13" class="colordae0f5 svgShape"/><path d="M924.22,920.75c-23.65-13.66-55.84-19.37-86.65-17.16,22.22,1.6,43.72,7.3,60.78,17.16,40.72,23.5,40.71,61.62,0,85.12-17.06,9.85-38.57,15.56-60.79,17.15,30.81,2.22,63-3.49,86.66-17.15C964.93,982.37,964.94,944.25,924.22,920.75Z" style="mix-blend-mode:multiply" fill="url(#a)"/><path d="M783.24,920.75c17.06-9.86,38.57-15.56,60.79-17.16-30.81-2.21-63,3.5-86.66,17.16-40.71,23.5-40.71,61.62,0,85.12C781,1019.53,813.22,1025.24,844,1023c-22.22-1.59-43.73-7.3-60.79-17.15C742.52,982.37,742.52,944.25,783.24,920.75Z" style="mix-blend-mode:multiply" fill="url(#u)"/><path fill="#a59ba5" d="M904.44,920.85c-40.91-23.62-107.25-23.62-148.17,0s-40.91,61.93,0,85.55,107.26,23.63,148.17,0S945.36,944.48,904.44,920.85Zm-12.22,78.49c-34.17,19.73-89.56,19.73-123.72,0s-34.17-51.7,0-71.43,89.56-19.72,123.73,0S926.38,979.62,892.22,999.34Z" class="colora59ba5 svgShape"/><path fill="#34318f" d="M768.49,903.84c34.17-19.72,89.56-19.72,123.73,0,22.43,12.95,30.13,31.18,23.12,47.75-3.68-8.68-11.38-16.9-23.12-23.68-34.17-19.72-89.56-19.72-123.73,0-11.73,6.78-19.44,15-23.11,23.68C738.36,935,746.07,916.79,768.49,903.84Z" class="color34318f svgShape"/><path d="M892.4,911.35c-34.16-19.72-89.54-19.73-123.7,0s-34.16,51.7,0,71.42,89.54,19.72,123.7,0S926.57,931.07,892.4,911.35Z" style="mix-blend-mode:screen" fill="#686a6d" class="color686a6d svgShape"/><path d="M777.49 914.88c7.44-4.74 19.82-5.28 27.64-1.2s8.14 11.23.69 16-19.82 5.27-27.64 1.2S770 919.61 777.49 914.88zM815 906.19a12.67 12.67 0 0111.45-.49c3.23 1.69 3.36 4.64.28 6.61a12.65 12.65 0 01-11.44.49C812.05 911.11 811.92 908.15 815 906.19z" style="mix-blend-mode:screen" fill="#a59ba5" class="colora59ba5 svgShape"/><path fill="#f7f7fc" d="M892.4,914.92c-34.16-19.72-89.54-19.72-123.7,0-16.3,9.41-24.8,21.6-25.55,33.93-.82-13.52,7.68-27.19,25.55-37.5,34.16-19.73,89.54-19.72,123.7,0,17.87,10.31,26.38,24,25.55,37.5C917.2,936.52,908.7,924.33,892.4,914.92Z" class="colorf7f7fc svgShape"/><path fill="#807dfb" d="M904.44,896.78c-40.91-23.62-107.25-23.62-148.17,0s-40.91,61.92,0,85.54,107.26,23.63,148.17,0S945.36,920.41,904.44,896.78Zm-12.22,78.5c-34.17,19.72-89.56,19.72-123.72,0s-34.17-51.71,0-71.44,89.56-19.72,123.73,0S926.38,955.55,892.22,975.28Z" class="color807dfb svgShape"/><path fill="url(#v)" d="M756.27,982.33c40.92,23.63,107.26,23.63,148.17,0,20.2-11.67,30.41-26.9,30.67-42.18V963h0c.27,15.68-9.94,31.41-30.66,43.37-40.91,23.63-107.25,23.63-148.17,0-20.72-12-30.93-27.69-30.66-43.37h0V940.27C725.92,955.51,736.12,970.7,756.27,982.33Z"/><path fill="#f7f7fc" d="M904.44,985.55c2.58-1.49,5-3,7.25-4.63l17.62,10.17L914,999.91l-17.62-10.18Q900.58,987.78,904.44,985.55Z" class="colorf7f7fc svgShape"/><polygon fill="#d0d4f6" points="914.04 1017.54 896.42 1007.37 896.42 989.73 914.04 999.91 914.04 1017.54" class="colord0d4f6 svgShape"/><path fill="url(#b)" d="M907.41,1012.56c0-9.11,6.39-20.17,14.27-24.72,4.1-2.37,7.78-2.49,10.38-.8h0l101.58,58.65-19.42,35.26-101.58-58.65h0C909.45,1021.11,907.41,1017.7,907.41,1012.56Z"/><path fill="#dfe4f4" d="M920.51,1026.81h0l5,2.87c-2.16-1.64-3.48-4.62-3.48-8.73,0-9.1,6.39-20.17,14.27-24.72,4.1-2.36,7.79-2.49,10.39-.79l-6.73-3.89h0c-2.6-1.69-6.29-1.57-10.38.8-7.89,4.55-14.27,15.61-14.27,24.72C915.27,1022.22,917.31,1025.63,920.51,1026.81Z" class="colordfe4f4 svgShape"/><path fill="url(#w)" d="M1011.88,1079.58a20.14,20.14,0,1,0,21.05-34.28c-2.54-1.25-5.93-1-9.67,1.19-7.88,4.55-14.27,15.62-14.27,24.72,0,4,1.21,6.89,3.22,8.57Z"/><polygon points="1014.22 1080.94 1014.23 1080.94 1014.23 1080.94 1014.22 1080.94" fill="#000000" class="color000 svgShape"/><polygon points="1201.71 711.43 1163.82 711.43 1187.51 725.53 1163.82 739.21 1201.71 739.21 1225.76 725.32 1201.71 711.43" style="mix-blend-mode:multiply" fill="url(#c)"/><polygon fill="#423eaf" points="1163.82 739.21 1187.51 725.53 1187.51 697.75 1163.82 711.43 1163.82 739.21" class="color423eaf svgShape"/><polygon fill="#5652cc" points="1163.82 739.21 1140.13 725.53 1140.13 697.75 1163.82 711.43 1163.82 739.21" class="color5652cc svgShape"/><polygon fill="#807dfb" points="1163.82 711.43 1140.13 697.75 1163.82 684.08 1187.51 697.75 1163.82 711.43" class="color807dfb svgShape"/><polygon points="554.77 468.86 526.27 468.86 544.09 479.46 526.27 489.75 554.77 489.75 572.85 479.31 554.77 468.86" style="mix-blend-mode:multiply" fill="url(#x)"/><polygon fill="#423eaf" points="526.27 489.75 544.09 479.46 544.09 458.58 526.27 468.86 526.27 489.75" class="color423eaf svgShape"/><polygon fill="#5652cc" points="526.27 489.75 508.46 479.46 508.46 458.58 526.27 468.86 526.27 489.75" class="color5652cc svgShape"/><polygon fill="#807dfb" points="526.27 468.86 508.46 458.58 526.27 448.3 544.09 458.58 526.27 468.86" class="color807dfb svgShape"/><polygon points="359.89 937.53 305.01 937.53 339.32 957.95 305.01 977.75 359.89 977.75 394.71 957.65 359.89 937.53" style="mix-blend-mode:multiply" fill="url(#y)"/><polygon fill="#e57139" points="305.01 977.75 339.32 957.95 339.32 917.73 305.01 937.53 305.01 977.75" class="colore57139 svgShape"/><polygon fill="#fb944b" points="305.01 977.75 270.71 957.95 270.71 917.73 305.01 937.53 305.01 977.75" class="colorfb944b svgShape"/><polygon fill="#ffaf6d" points="305.01 937.53 270.71 917.73 305.01 897.93 339.32 917.73 305.01 937.53" class="colorffaf6d svgShape"/><polygon points="1118.13 421.15 489.6 901.63 693.28 901.63 1321.82 538.75 1118.13 421.15" style="mix-blend-mode:multiply" fill="url(#z)"/><polygon fill="#bbc0e6" points="1118.13 538.75 489.6 901.63 489.6 784.03 1118.13 421.15 1118.13 538.75" class="colorbbc0e6 svgShape"/><polygon fill="#ced3f8" points="364.22 829.25 489.6 901.63 489.6 784.03 364.22 711.64 364.22 829.25" class="colorced3f8 svgShape"/><polygon points="469.08 772.19 469.08 786.63 393.73 743.12 393.73 789.56 478.08 838.26 478.08 791.82 469.08 772.19" style="mix-blend-mode:multiply" fill="#f6f6fb" class="colorf6f6fb svgShape"/><polygon fill="#e1e6ff" points="372.26 777.13 456.61 825.83 456.61 779.39 372.26 730.69 372.26 777.13" class="colore1e6ff svgShape"/><polygon fill="#f6f6fb" points="372.26 730.69 456.61 779.39 469.08 772.19 384.73 723.49 372.26 730.69" class="colorf6f6fb svgShape"/><polygon fill="#bbc0e6" points="469.08 818.63 456.61 825.83 456.61 779.39 469.08 772.19 469.08 818.63" class="colorbbc0e6 svgShape"/><polygon fill="#423eaf" points="1142.99 435.51 514.46 798.39 514.46 780.78 1142.99 417.89 1142.99 435.51" class="color423eaf svgShape"/><polygon fill="#5652cc" points="339.35 697.29 514.46 798.39 514.46 780.78 339.35 679.68 339.35 697.29" class="color5652cc svgShape"/><polygon fill="#362e94" points="341.84 696.58 511.98 794.81 511.98 782.15 341.84 683.92 341.84 696.58" class="color362e94 svgShape"/><polygon fill="#807dfb" points="339.35 679.68 514.46 780.78 1142.99 417.89 967.89 316.8 339.35 679.68" class="color807dfb svgShape"/><path fill="#fb944b" d="M378.37,758.57c0-7.39,5.18-10.38,11.59-6.69s11.58,12.69,11.58,20.08-5.18,10.38-11.58,6.69S378.37,766,378.37,758.57Z" class="colorfb944b svgShape"/><path fill="url(#d)" d="M380.61,759.87c0-6,4.18-8.38,9.35-5.4s9.34,10.23,9.34,16.19-4.18,8.38-9.34,5.4S380.61,765.83,380.61,759.87Z"/><path fill="#bbc0e6" d="M408.1,769.21c0-3.76,2.64-5.29,5.9-3.4A13,13,0,0,1,419.91,776c0,3.77-2.64,5.3-5.91,3.41A13,13,0,0,1,408.1,769.21Z" class="colorbbc0e6 svgShape"/><path fill="url(#A)" d="M409.24,769.87c0-3,2.13-4.27,4.76-2.75a10.55,10.55,0,0,1,4.77,8.25c0,3-2.14,4.27-4.77,2.75A10.51,10.51,0,0,1,409.24,769.87Z"/><path fill="#bbc0e6" d="M423.39,778c0-3.77,2.65-5.3,5.91-3.41a13,13,0,0,1,5.9,10.23c0,3.76-2.64,5.29-5.9,3.4A13.05,13.05,0,0,1,423.39,778Z" class="colorbbc0e6 svgShape"/><path fill="url(#B)" d="M424.53,778.67c0-3,2.14-4.27,4.77-2.75a10.51,10.51,0,0,1,4.76,8.25c0,3-2.13,4.27-4.76,2.75A10.55,10.55,0,0,1,424.53,778.67Z"/><path fill="#bbc0e6" d="M438.7,786.88c0-3.76,2.64-5.29,5.9-3.41a13.06,13.06,0,0,1,5.91,10.23c0,3.77-2.64,5.29-5.91,3.41A13,13,0,0,1,438.7,786.88Z" class="colorbbc0e6 svgShape"/><path fill="url(#C)" d="M439.84,787.54c0-3,2.13-4.27,4.76-2.75a10.51,10.51,0,0,1,4.77,8.25c0,3-2.13,4.27-4.77,2.75A10.52,10.52,0,0,1,439.84,787.54Z"/><path d="M620.23,570.58,702.39,618c5.9,3.41,5.9,8.94,0,12.35L521.3,734.91c-5.91,3.41-15.48,3.41-21.39,0l-82.16-47.43c-5.9-3.41-5.9-8.94,0-12.35L598.84,570.58C604.75,567.17,614.32,567.17,620.23,570.58Z" style="mix-blend-mode:screen" fill="none" stroke="#c85a2b" stroke-linecap="round" stroke-linejoin="round" stroke-width="2" class="colorStrokec85a2b svgStroke"/><path d="M410.82,691.48c-9.71-5.61-9.71-14.74,0-20.35L591.91,566.58c9.72-5.61,25.53-5.61,35.25,0L709.32,614c9.71,5.61,9.71,14.74,0,20.35L528.22,738.91c-9.71,5.61-25.52,5.61-35.23,0Z" style="mix-blend-mode:screen" fill="none" stroke="#602a17" stroke-linecap="round" stroke-linejoin="round" stroke-width="1.5" class="colorStroke602a17 svgStroke"/><path d="M403.9,695.48c-13.54-7.82-13.54-20.54,0-28.35L585,562.58c13.53-7.82,35.56-7.82,49.09,0L716.25,610c13.53,7.82,13.53,20.53,0,28.35L535.15,742.91c-13.53,7.82-35.56,7.82-49.09,0Z" style="mix-blend-mode:screen" fill="none" stroke="#3f1a0e" stroke-linecap="round" stroke-linejoin="round" class="colorStroke3f1a0e svgStroke"/><polygon points="357.92 708 350.7 699.07 355.56 695.15 368.68 711.37 357.92 708" style="mix-blend-mode:multiply" fill="url(#e)"/><path fill="url(#f)" d="M342.53,708l13.68-7.9a1.73,1.73,0,0,0,.73-1.6,5.45,5.45,0,0,0-2.47-4.28,1.73,1.73,0,0,0-1.75-.18L339,701.94Z"/><path fill="#423eaf" d="M340.78,707.83a5.49,5.49,0,0,1-2.47-4.29,1.76,1.76,0,0,1,.72-1.6,1.73,1.73,0,0,1,1.75.18,5.43,5.43,0,0,1,2.47,4.28,1.51,1.51,0,0,1-2.47,1.43Z" class="color423eaf svgShape"/><polygon points="386.61 724.65 379.26 715.56 384.11 711.63 397.23 727.86 386.61 724.65" style="mix-blend-mode:multiply" fill="url(#D)"/><path fill="url(#E)" d="M371.08,724.49l13.69-7.9a1.74,1.74,0,0,0,.72-1.6A5.46,5.46,0,0,0,383,710.7a1.74,1.74,0,0,0-1.75-.17l-13.68,7.9Z"/><path fill="#423eaf" d="M369.34,724.31a5.45,5.45,0,0,1-2.48-4.28,1.51,1.51,0,0,1,2.48-1.43,5.49,5.49,0,0,1,2.47,4.29,1.5,1.5,0,0,1-2.47,1.42Z" class="color423eaf svgShape"/><polygon points="415.03 740.97 407.81 732.05 412.67 728.12 425.79 744.34 415.03 740.97" style="mix-blend-mode:multiply" fill="url(#F)"/><path fill="url(#G)" d="M399.64,741l13.68-7.9a1.73,1.73,0,0,0,.73-1.6,5.45,5.45,0,0,0-2.48-4.28,1.73,1.73,0,0,0-1.74-.18l-13.69,7.9Z"/><path fill="#423eaf" d="M397.89,740.8a5.46,5.46,0,0,1-2.47-4.28,1.5,1.5,0,0,1,2.47-1.43,5.44,5.44,0,0,1,2.47,4.28,1.51,1.51,0,0,1-2.47,1.43Z" class="color423eaf svgShape"/><polygon points="443.6 757.48 436.37 748.53 441.22 744.6 454.34 760.83 443.6 757.48" style="mix-blend-mode:multiply" fill="url(#H)"/><path fill="url(#I)" d="M428.19,757.46l13.69-7.9a1.75,1.75,0,0,0,.72-1.6,5.49,5.49,0,0,0-2.47-4.29,1.74,1.74,0,0,0-1.75-.17l-13.68,7.9Z"/><path fill="#423eaf" d="M426.44,757.29A5.49,5.49,0,0,1,424,753a1.51,1.51,0,0,1,2.47-1.43,5.47,5.47,0,0,1,2.48,4.29,1.51,1.51,0,0,1-2.48,1.43Z" class="color423eaf svgShape"/><polygon points="472.27 774.11 464.92 765.02 469.77 761.09 482.89 777.31 472.27 774.11" style="mix-blend-mode:multiply" fill="url(#J)"/><path fill="url(#K)" d="M456.75,773.94l13.68-7.9a1.72,1.72,0,0,0,.73-1.6,5.47,5.47,0,0,0-2.48-4.28,1.74,1.74,0,0,0-1.75-.17l-13.68,7.9Z"/><path fill="#423eaf" d="M455,773.77a5.46,5.46,0,0,1-2.47-4.28,1.72,1.72,0,0,1,.72-1.6,1.74,1.74,0,0,1,1.75.17,5.49,5.49,0,0,1,2.47,4.28,1.74,1.74,0,0,1-.72,1.6A1.72,1.72,0,0,1,455,773.77Z" class="color423eaf svgShape"/><polygon points="500.82 790.59 493.47 781.5 498.33 777.58 511.45 793.8 500.82 790.59" style="mix-blend-mode:multiply" fill="url(#L)"/><path fill="url(#M)" d="M485.3,790.43l13.69-7.9a1.75,1.75,0,0,0,.72-1.6,5.45,5.45,0,0,0-2.47-4.28,1.73,1.73,0,0,0-1.75-.18l-13.69,7.9Z"/><path fill="#423eaf" d="M483.55,790.26a5.49,5.49,0,0,1-2.47-4.29,1.76,1.76,0,0,1,.72-1.6,1.73,1.73,0,0,1,1.75.18,5.44,5.44,0,0,1,2.48,4.28,1.51,1.51,0,0,1-2.48,1.43Z" class="color423eaf svgShape"/><path d="M1003.31,765.06,985.6,754.84a6.53,6.53,0,0,1,2.34,4.85h0v11.86h0c0,2.3-1.55,4.59-4.58,6.34l-97.44,56.25a22.68,22.68,0,0,1-11,2.65h20.3a22.53,22.53,0,0,0,10.65-2.64l97.44-56.25C1009.42,774.36,1009.42,768.59,1003.31,765.06Z" style="mix-blend-mode:multiply" fill="url(#N)"/><path fill="url(#O)" d="M983.36,766l-97.44,56.25c-6.1,3.53-16.1,3.53-22.21,0l-56.63-32.69c-3-1.75-4.55-4.05-4.58-6.36h0v11.86h0c0,2.31,1.55,4.62,4.58,6.37l56.63,32.69c6.11,3.53,16.11,3.53,22.21,0l97.44-56.25c3-1.75,4.55-4,4.58-6.34h0V759.69h0C987.9,762,986.38,764.28,983.36,766Z"/><path fill="#f6f6fb" d="M983.36,753.19c6.11,3.53,6.11,9.3,0,12.83l-97.44,56.25c-6.1,3.53-16.1,3.53-22.21,0l-56.63-32.69c-6.11-3.53-6.11-9.3,0-12.82l97.44-56.26c6.11-3.53,16.1-3.53,22.21,0Z" class="colorf6f6fb svgShape"/><path d="M983.36,753.19l-20.63-11.91h-18l10.28,5.93L853.69,805.93h60.55L983.36,766C989.47,762.49,989.47,756.72,983.36,753.19Z" style="mix-blend-mode:multiply" fill="url(#P)"/><path fill="url(#Q)" d="M926.73,720.5c-6.11-3.53-16.1-3.53-22.21,0l-97.44,56.26c-6.11,3.52-6.11,9.29,0,12.82l21.65,12.5L948.38,733Z"/><polygon fill="#bbbfe2" points="843.41 708.58 853.68 714.52 853.68 805.93 843.41 799.99 843.41 708.58" class="colorbbbfe2 svgShape"/><polygon fill="#939cca" points="853.68 692.83 955.05 634.12 955.05 747.21 853.68 805.93 853.68 692.83" class="color939cca svgShape"/><path fill="#f6f6fb" d="M942.83,574.41a8.93,8.93,0,0,0-11.28-2.32L813.22,640.41a6.69,6.69,0,0,0-2.05,10l66.24,88.45a8.92,8.92,0,0,0,11.27,2.31L1007,672.86a6.68,6.68,0,0,0,2.05-10Z" class="colorf6f6fb svgShape"/><path fill="url(#R)" d="M888.68,741.18a8.92,8.92,0,0,1-11.27-2.31l-66.24-88.45a6.65,6.65,0,0,1,.21-8.49l-8.39,9.9h0a6.65,6.65,0,0,0-.32,8.62l66.24,88.45a8.91,8.91,0,0,0,11.28,2.31l118.33-68.32a7,7,0,0,0,2.18-1.93h0l8-9.42a7.32,7.32,0,0,1-1.67,1.32Z"/><path fill="url(#S)" d="M883.74,736.8l-67.12-89.63L936.4,576.35l67.7,90.4Z"/><path d="M828.73,802.08l-21.65-12.5c-3-1.75-4.55-4.05-4.58-6.36h0v11.86h0c0,2.31,1.55,4.62,4.58,6.37l29.86,17.24Z" style="mix-blend-mode:multiply" fill="url(#p)"/><path d="M895.49,617.39,851.15,643l5.84,7.32-9,5.21,3.41,9-.82.47,6.62,8.3,2.87-1.66c1.41,1.76,3.85,2.42,5.49,1.47a2.68,2.68,0,0,0,1.34-2.12,3.93,3.93,0,0,0-.93-2.76l4.2-2.42-1.8-2.26,20.11-11.61v0a3.9,3.9,0,0,0,.92,2.74c1.41,1.76,3.87,2.42,5.49,1.48a2.72,2.72,0,0,0,1.36-2.13,4,4,0,0,0-.93-2.76,5.23,5.23,0,0,0-2.69-1.75l2.81-1.62v0a3.9,3.9,0,0,0,.92,2.75c1.41,1.76,3.85,2.41,5.49,1.47a2.66,2.66,0,0,0,1.34-2.12,3.93,3.93,0,0,0-.93-2.76,5.07,5.07,0,0,0-2.68-1.75l12.57-7.25-16.64-20.85Z" style="mix-blend-mode:screen" fill="url(#T)"/><g style="mix-blend-mode:screen" fill="#000000" class="color000 svgShape"><path fill="#e57139" d="M954.81 666.42c-13 7.68-42.67 25.21-55.72 32.89-.47-.62-2.45-3.37-2.84-3.77 13-7.68 42.66-25.21 55.7-32.9zM950.13 639.91l-43.57 25.73 2.84 3.79c16.23-9.59 35.34-20.88 43.6-25.74zM883.89 679c.39.4 2.37 3.15 2.84 3.77l16.89-10-2.83-3.78z" class="colore57139 svgShape"/><path fill="#807dfb" d="M890.07,687.29c.39.39,2.37,3.14,2.84,3.77L924,672.69l-2.83-3.79Zm66.24-39.13L927,665.49l2.83,3.78,29.37-17.33Z" class="color807dfb svgShape"/></g><g style="mix-blend-mode:screen" fill="#000000" class="color000 svgShape"><path fill="#e57139" d="M939.15,609.57c-4.33-5.88-12.54-11.33-19.92-7.44l2.3,3.07c5.64-2.91,12,1.37,15.24,5.83a15.73,15.73,0,0,1,3.4,8.79c1.36.51,2,.77,3.39,1.26C943.58,617.63,942,613.46,939.15,609.57Z" class="colore57139 svgShape"/><path fill="#696adf" d="M921.87,620.19c-4.38-5.85-4.46-12.46-.34-15l-2.3-3.07c-6.89,4.63-3.78,14.21.26,19.52,3.83,5,10,9.49,16.75,8.42-.58-1.28-.88-1.94-1.52-3.29C930.7,627.51,925.5,625,921.87,620.19Z" class="color696adf svgShape"/><path fill="#f0f0f4" d="M943.56,621.08c-1.35-.49-2-.75-3.39-1.26a6.67,6.67,0,0,1-3.12,6.11,7,7,0,0,1-2.33.85c.64,1.35.94,2,1.52,3.29a9.42,9.42,0,0,0,3.06-1.14A8.78,8.78,0,0,0,943.56,621.08Z" class="colorf0f0f4 svgShape"/></g><path fill="#362e94" d="M549.7 841.32a3.31 3.31 0 011.5-2.59c.83-.47 1.5-.09 1.5.87a3.31 3.31 0 01-1.5 2.59C550.37 842.66 549.7 842.28 549.7 841.32zM555.93 837.73a3.33 3.33 0 011.49-2.59c.83-.48 1.5-.09 1.5.86a3.28 3.28 0 01-1.5 2.59C556.6 839.07 555.93 838.68 555.93 837.73zM821.15 802.4a3.33 3.33 0 00-1.49-2.59c-.83-.48-1.5-.09-1.5.86a3.28 3.28 0 001.5 2.59C820.48 803.74 821.15 803.35 821.15 802.4zM827.81 806.25a3.33 3.33 0 00-1.49-2.6c-.83-.47-1.5-.09-1.5.87a3.31 3.31 0 001.5 2.59C827.14 807.59 827.81 807.2 827.81 806.25z" class="color362e94 svgShape"/><path fill="#fb944b" d="M640.8,907.86a32.39,32.39,0,0,1-16.19-4.32l-57-32.88a14.53,14.53,0,0,1-7.24-12.55v-14c0-3.91-1.14-4.69-2.86-5.87l-.83-.58a1.08,1.08,0,0,1,1.28-1.74l.77.54c1.87,1.28,3.8,2.6,3.8,7.65v14a12.35,12.35,0,0,0,6.16,10.68l57,32.88a30.33,30.33,0,0,0,30.23,0l160.76-92.82c.57-.34.57-1.31.49-2.87-.09-1.84-.22-4.36,2.06-5.53a1.08,1.08,0,1,1,1,1.92c-.94.48-1,1.48-.9,3.5.09,1.78.2,3.8-1.55,4.84L657,903.54A32.39,32.39,0,0,1,640.8,907.86Z" class="colorfb944b svgShape"/><path fill="#807dfb" d="M641.24,915.3A32.45,32.45,0,0,1,625,911l-63.6-36.72a14.53,14.53,0,0,1-7.25-12.55v-14c0-3.92-1.13-4.7-2.85-5.87l-.83-.58a1.08,1.08,0,0,1,1.28-1.75l.77.54c2,1.34,3.79,2.6,3.79,7.66v14a12.38,12.38,0,0,0,6.17,10.68l63.6,36.72a30.33,30.33,0,0,0,30.23,0l167-96.41c.57-.35.56-1.32.49-2.88-.1-1.83-.22-4.35,2.06-5.53a1.08,1.08,0,0,1,1,1.93c-.94.48-1,1.48-.9,3.5.09,1.69.19,3.8-1.55,4.84L657.43,911A32.39,32.39,0,0,1,641.24,915.3Z" class="color807dfb svgShape"/><rect width="71.81" height="13.2" x="971.72" y="832.13" style="mix-blend-mode:multiply" fill="url(#g)"/><rect width="71.8" height="13.2" x="1004.1" y="813.07" style="mix-blend-mode:multiply" fill="url(#U)"/><path fill="url(#h)" d="M1012,822.21c0-10.37-6.57-10.67-6.57-10.67s-3.56,0-9.33-2.4-13.74-1.45-9.25,6.84a2.1,2.1,0,0,0,.15.3,4,4,0,0,0,1.46,1.28l14.35,8.42C1005,827.23,1012,824.34,1012,822.21Z"/><path fill="#1e1c6b" d="M1012,821.28c-.13,2.13-7,5-9.16,3.72l-14.35-8.42a12.81,12.81,0,0,1-2-1.47c.14.28.25.56.42.87a2.1,2.1,0,0,0,.15.3,4,4,0,0,0,1.46,1.28l14.35,8.42c2,1.17,8.28-1.29,9.1-3.36a2.61,2.61,0,0,0,.07-.42C1012,821.88,1012,821.59,1012,821.28Z" class="color1e1c6b svgShape"/><path fill="#ffffff" d="M1009.37,810.18a60.42,60.42,0,0,0-7.65,1.51,3.36,3.36,0,0,1-.53,1.55,1.56,1.56,0,0,0-.16.2c-1.18.82-2.37,2.11.41,3.86a3.87,3.87,0,0,0,5-.36,4.67,4.67,0,0,1,1.62-1.84,4.22,4.22,0,0,1,1.55-.65.88.88,0,0,1,0-.14S1010.08,810.18,1009.37,810.18Z" class="colorfff svgShape"/><path fill="#1e1c6b" d="M1009.48,708.81l-29.21.52c2.42,19.52,7.28,37.24,10.53,56.13,3.48,18.37,7.41,31.27,10.84,46.56,1.25,2.85,7,1.77,8.15-1,.91-14.08,2-31.22-2.22-47.46C1008.27,746.08,1009.89,726.48,1009.48,708.81Z" class="color1e1c6b svgShape"/><path fill="url(#V)" d="M979.32,841.26c0-10.37-6.57-10.67-6.57-10.67s-3.56,0-9.34-2.4-13.74-1.45-9.25,6.84a1.46,1.46,0,0,0,.16.3,4,4,0,0,0,1.45,1.28L970.13,845C972.32,846.28,979.27,843.39,979.32,841.26Z"/><path fill="#1e1c6b" d="M979.28,840.33c-.12,2.13-7,5-9.15,3.72l-14.36-8.42a13.29,13.29,0,0,1-2-1.47c.13.28.24.56.41.87a1.46,1.46,0,0,0,.16.3,4,4,0,0,0,1.45,1.28L970.13,845c2,1.17,8.28-1.29,9.1-3.36a2.49,2.49,0,0,0,.06-.42A7,7,0,0,0,979.28,840.33Z" class="color1e1c6b svgShape"/><path fill="#ffffff" d="M976.64,829.23a60.56,60.56,0,0,0-7.64,1.51,3.31,3.31,0,0,1-.53,1.54l-.17.21c-1.17.81-2.37,2.11.42,3.86a3.87,3.87,0,0,0,5-.36,4.52,4.52,0,0,1,1.62-1.84,4.15,4.15,0,0,1,1.55-.65,1.09,1.09,0,0,1,0-.15S977.35,829.23,976.64,829.23Z" class="colorfff svgShape"/><path fill="url(#W)" d="M988.88,755.21c1.78-8.39,22.24-9.43,20.9-42.41-6.42-.95-38.82,14.24-45.24,13.3-.8,19.64,1.09,37.92,1.21,57.1.44,18.68,2.21,32,3.1,47.7.77,3,6.61,2.88,8.2.37,3.19-13.74,7-30.48,5.56-47.19C984.52,774.83,986.8,765,988.88,755.21Z"/><path fill="url(#X)" d="M995,652.85c22.86,15.27,25.58,45.6,13.22,64.85C1008.19,717.7,1010.85,675.05,995,652.85Z"/><path fill="url(#Y)" d="M997.77,778.93c-13.91,7.81-35.33,2-40.67-9.22,1.85-17.87,9.08-72.4,5.5-89.53,1.06-9.46,3-13.56,1.74-19.08,7.92-3.41,14.48-14.44,18.92-15.35,14.85-3,23.74,16.94,26.17,43,.68,7.34,3,59.28,2.61,67.22C1012,767.08,1004.62,775.09,997.77,778.93Z"/><path fill="#fcd1a9" d="M993.81,647.91c-4.12-3-3.51-4.93-2.89-9a20.39,20.39,0,0,0,1.24-7c0-9-5.75-16.85-12.81-16.36-14.22,1-11.68,8.45-11.68,17.49,0,8.38,3.79,14.14,10.14,15.11,0,1.37-2.63,4.32-4.36,6.05,6.95,5.41,13.69-.69,16.37-1.89C992.67,651,995.75,649.91,993.81,647.91Z" class="colorfcd1a9 svgShape"/><path fill="#34318c" d="M985.6,617.36c-1.84-1-2.21-2.43-3.23-3.08-2.43-1.49-6-.47-7.29.24a13.6,13.6,0,0,0-1.81,1.43c-1.27,1.27-3.86-1.42-4.48,1.84a12.4,12.4,0,0,0-.21,2.54c-6.07.78-3.08,6.3,1.79,16.95,0-1.72,3.68-5.72,3.68,2,0,.83-.62,1-.07,2.08s4,3.85,6.33,6.15c3.21,3.21,5.1.33,10.41.91a8.47,8.47,0,0,1,1.39-4.84c.51-.9,3.43-3.76,3.43-8.75C991.42,635.3,998.74,624.13,985.6,617.36Z" class="color34318c svgShape"/><path fill="#fcd1a9" d="M942.48,672.58l0,.07c0-3.5-.74-5.54-2.09-6.14l-.89-2.55c-1.75-4.89-7.23-9.09-8.39-7.92-.7.7,2.08,2.85,3.55,5.18a8.37,8.37,0,0,1,1.23,3.67s-6.56.61-6.56,6.06c0,4.43,2.39,2.68,2.39,1.8,1.69,4.49,3.7,1.84,4.48,5.49l7.09-3.13S943,674.09,942.48,672.58Z" class="colorfcd1a9 svgShape"/><path fill="url(#Z)" d="M962.2,663.35c-1.76,7-2.11,21.58-2.67,27.94-5.72-5.95-11-8.55-15.93-16.45l-8.08,3.37c1.52,5.53,16.51,28.25,27.19,29.93,10.45-3.92,12.43-23.1,14-31.33C979,664.77,964.78,656.41,962.2,663.35Z"/><rect width="94.28" height="5.85" x="1056.44" y="280.02" style="mix-blend-mode:multiply" fill="url(#i)"/><polygon fill="#34318d" points="1056.44 285.88 1051.8 283.2 1051.8 230.91 1056.44 233.58 1056.44 285.88" class="color34318d svgShape"/><polygon fill="#1e1c6b" points="1056.44 285.88 1061.09 283.2 1061.09 230.91 1056.44 233.58 1056.44 285.88" class="color1e1c6b svgShape"/><path fill="url(#j)" d="M1107.49,218.53l-51-75.72s-51.82,76.82-52.17,77.38a20.41,20.41,0,0,0-3.19,10.71c0,8.18,5.41,16.36,16.22,22.61,21.62,12.48,56.67,12.48,78.29,0,10.81-6.25,16.22-14.43,16.22-22.61A21,21,0,0,0,1107.49,218.53Z"/><path fill="url(#k)" d="M1101.18,187.89l-44.74-66.36-44.73,66.36a18.35,18.35,0,0,0-3.79,10.85c0,7.17,4.74,14.33,14.22,19.81,18.94,10.94,49.66,10.94,68.61,0,9.48-5.48,14.22-12.64,14.22-19.81A18.41,18.41,0,0,0,1101.18,187.89Z"/><path fill="url(#l)" d="M1095.49,162.62c-.26-.43-39-57.92-39-57.92s-38.78,57.49-39,57.91a15.24,15.24,0,0,0-2.39,8c0,6.12,4,12.24,12.14,16.91,16.18,9.34,42.41,9.34,58.59,0,8.09-4.67,12.14-10.79,12.14-16.91A15.18,15.18,0,0,0,1095.49,162.62Z"/><rect width="80.86" height="5.02" x="187.95" y="635.05" style="mix-blend-mode:multiply" fill="url(#aa)"/><polygon fill="#34318d" points="187.95 640.07 183.97 637.77 183.97 592.92 187.95 595.21 187.95 640.07" class="color34318d svgShape"/><polygon fill="#1e1c6b" points="187.95 640.07 191.94 637.77 191.94 592.92 187.95 595.21 187.95 640.07" class="color1e1c6b svgShape"/><path fill="url(#ab)" d="M231.74,582.3,188,517.36s-44.45,65.89-44.74,66.37a17.41,17.41,0,0,0-2.74,9.19c0,7,4.64,14,13.91,19.38C172.92,623,203,623,221.53,612.3c9.27-5.35,13.91-12.37,13.91-19.38A18,18,0,0,0,231.74,582.3Z"/><path fill="url(#ac)" d="M226.33,556,188,499.11,149.59,556a15.77,15.77,0,0,0-3.25,9.31c0,6.15,4.06,12.3,12.19,17,16.25,9.38,42.6,9.38,58.85,0,8.13-4.69,12.19-10.84,12.19-17A15.84,15.84,0,0,0,226.33,556Z"/><path fill="url(#ad)" d="M221.44,534.35C221.22,534,188,484.67,188,484.67S154.69,534,154.47,534.35a13,13,0,0,0-2.05,6.87c0,5.25,3.47,10.5,10.41,14.51,13.88,8,36.37,8,50.25,0,6.94-4,10.41-9.26,10.41-14.51A13,13,0,0,0,221.44,534.35Z"/><rect width="82.92" height="5.59" x="1376.62" y="763.57" style="mix-blend-mode:multiply" fill="url(#ae)"/><polygon fill="#34318d" points="1372.56 692.25 1376.62 694.6 1376.62 769.15 1372.56 766.81 1372.56 692.25" class="color34318d svgShape"/><polygon fill="#1e1c6b" points="1380.68 692.25 1376.62 694.6 1376.62 769.15 1380.68 766.81 1380.68 692.25" class="color1e1c6b svgShape"/><path fill="url(#af)" d="M1324.35,665.17a52.27,52.27,0,1,1,52.27,52.28A52.27,52.27,0,0,1,1324.35,665.17Z"/><path d="M655.64,635.82c-.72,0-1.47,0-2.26,0-10.32,0-22.86,2.41-28,5.39-2.57,1.48-2.82,2.83-1.13,3.81a7.88,7.88,0,0,0,1.71.68,13.36,13.36,0,0,0-1.2.61c-2.58,1.49-2.83,2.84-1.14,3.81s5.32,1.58,10.47,1.58a85.57,85.57,0,0,0,21.57-2.89Z" style="mix-blend-mode:multiply" fill="url(#m)"/><path d="M680.22,621.63c-.72,0-1.46,0-2.26,0-10.31,0-22.85,2.41-28,5.39-2.57,1.49-2.82,2.83-1.13,3.81a8,8,0,0,0,1.7.68c-.43.2-.83.41-1.2.62-2.57,1.49-2.82,2.83-1.13,3.81s5.31,1.58,10.47,1.58a85.42,85.42,0,0,0,21.56-2.9Z" style="mix-blend-mode:multiply" fill="url(#ag)"/><path d="M534.83,705.58c-.72,0-1.46-.05-2.26-.05-10.32,0-22.85,2.42-28,5.39-2.58,1.49-2.82,2.84-1.14,3.81a7.59,7.59,0,0,0,1.71.68c-.43.2-.84.41-1.2.62-2.58,1.49-2.82,2.83-1.14,3.81s5.32,1.58,10.47,1.58a85.56,85.56,0,0,0,21.57-2.9Z" style="mix-blend-mode:multiply" fill="url(#ah)"/><polygon fill="#362e94" points="512.89 694.52 522.39 700 522.39 689.44 512.89 683.96 512.89 694.52" class="color362e94 svgShape"/><path fill="#0e1c70" d="M648.19,635.89c-1.89-1.1-3.06-3.43-3.06-6.76,0-6.66,4.67-14.75,10.44-18.08,2.88-1.66,5.48-1.82,7.38-.73s3,3.43,3,6.76c0,6.66-4.67,14.75-10.43,18.07C652.68,636.82,650.08,637,648.19,635.89Z" class="color0e1c70 svgShape"/><path fill="#bbc0e6" d="M649.82,626.42a12.69,12.69,0,0,1,5.75-9.95c3.17-1.84,5.74-.35,5.74,3.31a12.71,12.71,0,0,1-5.74,10C652.39,631.57,649.82,630.09,649.82,626.42Z" class="colorbbc0e6 svgShape"/><path fill="#110d60" d="M645.13,629.13c0-6.66,4.67-14.75,10.44-18.08,2.88-1.66,5.48-1.82,7.38-.73l-8-4.61c-1.89-1.09-4.5-.93-7.38.73-5.77,3.33-10.44,11.42-10.44,18.08,0,3.32,1.17,5.66,3.06,6.75l8,4.62C646.3,634.79,645.13,632.46,645.13,629.13Z" class="color110d60 svgShape"/><path fill="#0e1c70" d="M623.6,650.08c-1.89-1.09-3.06-3.43-3.06-6.75,0-6.66,4.68-14.75,10.44-18.08,2.88-1.66,5.48-1.83,7.38-.73s3,3.42,3,6.75c0,6.66-4.67,14.75-10.43,18.08C628.09,651,625.49,651.17,623.6,650.08Z" class="color0e1c70 svgShape"/><path fill="#bbc0e6" d="M625.23,640.62a12.7,12.7,0,0,1,5.75-10c3.17-1.83,5.74-.34,5.74,3.32a12.74,12.74,0,0,1-5.74,10C627.8,645.77,625.23,644.28,625.23,640.62Z" class="colorbbc0e6 svgShape"/><path fill="#110d60" d="M620.54,643.33c0-6.66,4.67-14.75,10.44-18.08,2.88-1.67,5.48-1.83,7.38-.73l-8-4.62c-1.89-1.09-4.5-.93-7.38.74-5.77,3.32-10.44,11.41-10.44,18.08,0,3.32,1.17,5.66,3.06,6.75l8,4.61C621.71,649,620.54,646.65,620.54,643.33Z" class="color110d60 svgShape"/><path fill="#0e1c70" d="M502.79,719.84c-1.89-1.09-3.06-3.43-3.06-6.76,0-6.66,4.68-14.75,10.44-18.07,2.88-1.67,5.49-1.83,7.38-.74s3.06,3.43,3.06,6.76c0,6.66-4.67,14.75-10.44,18.08C507.29,720.77,504.68,720.93,502.79,719.84Z" class="color0e1c70 svgShape"/><path fill="#bbc0e6" d="M504.43,710.38a12.71,12.71,0,0,1,5.74-10c3.18-1.83,5.75-.35,5.75,3.32a12.69,12.69,0,0,1-5.75,10C507,715.52,504.43,714,504.43,710.38Z" class="colorbbc0e6 svgShape"/><path fill="#110d60" d="M499.73,713.08c0-6.66,4.68-14.75,10.44-18.07,2.88-1.67,5.49-1.83,7.38-.74l-8-4.61c-1.89-1.09-4.5-.93-7.38.73-5.76,3.33-10.43,11.42-10.43,18.08,0,3.33,1.16,5.67,3.05,6.76l8,4.61C500.9,718.75,499.73,716.41,499.73,713.08Z" class="color110d60 svgShape"/><polygon fill="#5652cc" points="537.5 603.74 472.24 566.06 629.04 475.53 694.3 513.21 537.5 603.74" class="color5652cc svgShape"/><polygon fill="#362e94" points="537.5 682.7 537.5 603.74 694.3 513.21 694.3 592.17 537.5 682.7" class="color362e94 svgShape"/><polygon fill="#423eaf" points="472.24 645.02 472.24 566.06 537.5 603.74 537.5 682.7 472.24 645.02" class="color423eaf svgShape"/><polygon fill="#fb944b" points="489.57 718.94 428.36 683.6 428.36 652.13 489.57 687.48 489.57 718.94" class="colorfb944b svgShape"/><polygon fill="#ffaf6d" points="501.55 652.24 440.33 616.89 474.26 597.31 535.47 632.65 501.55 652.24" class="colorffaf6d svgShape"/><polygon fill="#ffaf6d" points="489.57 687.48 428.36 652.13 431.28 650.45 492.49 685.79 489.57 687.48" class="colorffaf6d svgShape"/><path fill="#e57139" d="M535.47,632.65l-33.92,19.59-9.06,33.55-2.91,1.69v31.46l8.37-4.83c0-7.8,5.47-17.27,12.22-21.16s12.22-.74,12.22,7l13.08-7.56Z" class="colore57139 svgShape"/><polygon fill="url(#ai)" points="504.51 654.2 524.41 642.71 524.41 667.37 496.63 683.4 504.51 654.2"/><path fill="#6b67e9" d="M518.41,675.06a2.57,2.57,0,0,1,1.06-2l4.15-2.4a.85.85,0,0,1,.43-.12,1.18,1.18,0,0,1,1.11,1,1.81,1.81,0,0,1-.78,2c-2,1.22-3.55,2.1-4.21,2.48A1.11,1.11,0,0,1,518.41,675.06Z" class="color6b67e9 svgShape"/><path fill="#5652cc" d="M525.2,671.78a1.78,1.78,0,0,1-.82,1.66c-2,1.22-3.55,2.1-4.21,2.48-1.31.75-1.81-.31-1.76-.86a3.17,3.17,0,0,1,.15-.82,1.14,1.14,0,0,0,1.62,1c.35-.18,3.28-1.76,3.87-2.16A2.65,2.65,0,0,0,525.2,671.78Z" class="color5652cc svgShape"/><polygon fill="#ced3f8" points="489.57 720.43 425.79 683.6 425.79 673.63 489.57 710.46 489.57 720.43" class="colorced3f8 svgShape"/><polygon fill="#bbc0e6" points="497.26 715.99 489.57 720.43 489.57 710.46 497.26 706.02 497.26 715.99" class="colorbbc0e6 svgShape"/><polygon fill="#f6f6fb" points="495.98 705.27 489.57 708.97 428.36 673.63 428.36 672.14 425.79 673.63 489.57 710.46 497.26 706.02 495.98 705.27" class="colorf6f6fb svgShape"/><polygon fill="#fb944b" points="492.49 685.79 431.28 650.45 440.33 616.89 501.55 652.24 492.49 685.79" class="colorfb944b svgShape"/><polygon fill="url(#o)" points="489.59 684.12 434.32 652.21 442.52 621.81 497.79 653.72 489.59 684.12"/><polygon points="493.4 668.96 489.59 684.12 434.32 652.21 435.44 648.05 446.31 641.77 493.4 668.96" style="mix-blend-mode:screen" fill="url(#aj)"/><polygon points="513.72 638.68 507.85 638.88 469.71 613.27 485.81 603.98 529.82 629.39 513.72 638.68" style="mix-blend-mode:multiply" fill="url(#ak)"/><polygon fill="#ffaf6d" points="507.85 635.35 463.83 609.93 483.04 598.84 527.06 624.25 507.85 635.35" class="colorffaf6d svgShape"/><polygon fill="#fb944b" points="507.85 638.88 463.83 613.47 463.83 609.93 507.85 635.35 507.85 638.88" class="colorfb944b svgShape"/><polygon fill="#e57139" points="527.06 627.79 507.85 638.88 507.85 635.35 527.06 624.25 527.06 627.79" class="colore57139 svgShape"/><polygon points="529.82 629.39 527.06 624.25 527.06 627.79 529.82 629.39" style="mix-blend-mode:multiply" fill="#dae0f5" class="colordae0f5 svgShape"/><polygon points="485.69 690.48 486.76 692.3 486.76 698.17 484.61 697.12 485.69 690.48" style="mix-blend-mode:multiply" fill="#dfe4f4" class="colordfe4f4 svgShape"/><polygon fill="#f1f1f6" points="484.61 697.12 475.21 691.69 475.21 685.67 484.61 691.1 484.61 697.12" class="colorf1f1f6 svgShape"/><polygon fill="#ced3f8" points="485.69 696.5 484.61 697.12 484.61 691.1 485.69 690.48 485.69 696.5" class="colorced3f8 svgShape"/><polygon fill="#f6f6fb" points="485.69 690.48 484.61 691.1 475.21 685.67 476.28 685.05 485.69 690.48" class="colorf6f6fb svgShape"/><path d="M483.31,700.62a4.78,4.78,0,0,0-2.16-3.74c-1.2-.69-2.16-.13-2.16,1.25a4.77,4.77,0,0,0,2.16,3.74C482.34,702.56,483.31,702,483.31,700.62Z" style="mix-blend-mode:multiply" fill="#dfe4f4" class="colordfe4f4 svgShape"/><path fill="url(#n)" d="M478.79,697.15l-.53-.92.76-.43h0a1.51,1.51,0,0,1,1.52.16,4.78,4.78,0,0,1,2.16,3.74,1.53,1.53,0,0,1-.63,1.4h0l-.75.44-.53-.92A4.81,4.81,0,0,1,478.79,697.15Z"/><path fill="#f6f6fb" d="M482,700.13a4.76,4.76,0,0,0-2.17-3.74c-1.19-.69-2.16-.13-2.16,1.25a4.79,4.79,0,0,0,2.16,3.74C481,702.07,482,701.51,482,700.13Z" class="colorf6f6fb svgShape"/><polygon points="442.14 665.34 443.21 667.15 443.21 673.03 441.07 671.98 442.14 665.34" style="mix-blend-mode:multiply" fill="#dfe4f4" class="colordfe4f4 svgShape"/><polygon fill="#f1f1f6" points="441.07 671.98 431.66 666.55 431.66 660.53 441.07 665.96 441.07 671.98" class="colorf1f1f6 svgShape"/><polygon fill="#ced3f8" points="442.14 671.36 441.07 671.98 441.07 665.96 442.14 665.34 442.14 671.36" class="colorced3f8 svgShape"/><polygon fill="#f6f6fb" points="442.14 665.34 441.07 665.96 431.66 660.53 432.74 659.91 442.14 665.34" class="colorf6f6fb svgShape"/><path d="M439.77,675.48a4.75,4.75,0,0,0-2.17-3.74c-1.19-.69-2.16-.14-2.16,1.24a4.8,4.8,0,0,0,2.16,3.75C438.8,677.42,439.77,676.86,439.77,675.48Z" style="mix-blend-mode:multiply" fill="#dfe4f4" class="colordfe4f4 svgShape"/><path fill="url(#al)" d="M435.24,672l-.52-.91.75-.43h0a1.51,1.51,0,0,1,1.52.16,4.76,4.76,0,0,1,2.16,3.74,1.53,1.53,0,0,1-.63,1.4h0l-.76.44-.53-.92A4.81,4.81,0,0,1,435.24,672Z"/><path fill="#f6f6fb" d="M438.4,675a4.76,4.76,0,0,0-2.16-3.74c-1.2-.69-2.16-.14-2.16,1.24a4.77,4.77,0,0,0,2.16,3.75C437.43,676.93,438.4,676.37,438.4,675Z" class="colorf6f6fb svgShape"/><polygon fill="#dfe4f4" points="489.57 708.97 492.15 708.97 497.26 706.02 495.98 705.27 489.57 708.97" class="colordfe4f4 svgShape"/><polygon fill="#fb944b" points="472.61 700.66 442.75 683.42 442.75 667.18 472.61 684.41 472.61 700.66" class="colorfb944b svgShape"/><path fill="#423eaf" d="M470.13,699.23l-24.9-14.37V674.41c0-1.71,1.21-2.4,2.69-1.55l19.52,11.27a6,6,0,0,1,2.69,4.66Z" class="color423eaf svgShape"/><polygon fill="#e57139" points="472.61 700.66 473.9 699.92 473.9 683.67 472.61 684.41 472.61 700.66" class="colore57139 svgShape"/><polygon fill="#ffaf6d" points="472.61 684.41 473.9 683.67 444.04 666.43 442.75 667.18 472.61 684.41" class="colorffaf6d svgShape"/><polygon fill="#dfe4f4" points="472.61 700.66 475.21 700.67 473.9 699.92 472.61 700.66" class="colordfe4f4 svgShape"/><polygon points="475.21 700.67 475.21 687.05 473.9 683.67 473.9 699.92 475.21 700.67" style="mix-blend-mode:multiply" fill="#e8ecf7" class="colore8ecf7 svgShape"/><path d="M816,542.73c-.67,0-1.36-.05-2.1-.05-9.61,0-21.29,2.25-26.09,5-2.41,1.39-2.63,2.64-1.06,3.55a6.74,6.74,0,0,0,1.59.63c-.4.19-.78.38-1.12.58-2.4,1.39-2.63,2.64-1.06,3.55s4.95,1.47,9.75,1.47a79.75,79.75,0,0,0,20.09-2.7Z" style="mix-blend-mode:multiply" fill="url(#am)"/><path d="M880.05,505c-.67,0-1.37,0-2.11,0-9.61,0-21.29,2.25-26.09,5-2.4,1.39-2.63,2.64-1.06,3.55a6.92,6.92,0,0,0,1.59.63c-.4.19-.78.38-1.12.58-2.4,1.38-2.62,2.64-1,3.55s4.95,1.47,9.75,1.47a79.81,79.81,0,0,0,20.09-2.7Z" style="mix-blend-mode:multiply" fill="url(#an)"/><polygon fill="#362e94" points="858.63 497.17 866.54 501.74 866.54 492.93 858.63 488.37 858.63 497.17" class="color362e94 svgShape"/><polygon fill="#362e94" points="793.76 534.62 801.67 539.19 801.67 530.39 793.76 525.82 793.76 534.62" class="color362e94 svgShape"/><path fill="#0e1c70" d="M785.34,555.72c-1.58-.91-2.55-2.86-2.55-5.63,0-5.55,3.9-12.29,8.7-15.06,2.4-1.39,4.57-1.53,6.15-.62s2.54,2.86,2.54,5.64c0,5.54-3.89,12.29-8.69,15.06C789.08,556.5,786.91,556.63,785.34,555.72Z" class="color0e1c70 svgShape"/><path fill="#bbc0e6" d="M786.7,547.83a10.56,10.56,0,0,1,4.79-8.29c2.64-1.53,4.78-.29,4.78,2.76a10.61,10.61,0,0,1-4.78,8.3C788.84,552.12,786.7,550.89,786.7,547.83Z" class="colorbbc0e6 svgShape"/><path fill="#110d60" d="M782.79,550.09c0-5.55,3.89-12.29,8.7-15.06,2.4-1.39,4.57-1.53,6.15-.62L791,530.57c-1.57-.91-3.75-.78-6.15.61-4.81,2.77-8.7,9.52-8.7,15.07,0,2.77,1,4.72,2.55,5.63l6.65,3.84C783.76,554.81,782.79,552.86,782.79,550.09Z" class="color110d60 svgShape"/><path fill="#0e1c70" d="M850.21,518.27c-1.57-.92-2.55-2.86-2.55-5.63,0-5.55,3.9-12.29,8.7-15.07,2.4-1.39,4.57-1.52,6.15-.61s2.54,2.86,2.54,5.63c0,5.55-3.89,12.29-8.69,15.07C854,519,851.79,519.17,850.21,518.27Z" class="color0e1c70 svgShape"/><path fill="#bbc0e6" d="M851.57,510.38a10.58,10.58,0,0,1,4.79-8.3c2.64-1.52,4.79-.29,4.79,2.77a10.59,10.59,0,0,1-4.79,8.29C853.71,514.67,851.57,513.43,851.57,510.38Z" class="colorbbc0e6 svgShape"/><path fill="#110d60" d="M847.66,512.64c0-5.55,3.9-12.29,8.7-15.07,2.4-1.39,4.57-1.52,6.15-.61l-6.66-3.84c-1.57-.91-3.75-.78-6.15.61-4.8,2.77-8.7,9.51-8.7,15.06,0,2.77,1,4.72,2.55,5.63l6.66,3.85C848.63,517.35,847.66,515.41,847.66,512.64Z" class="color110d60 svgShape"/><polygon fill="#fb944b" points="853.36 491.43 802.35 461.98 823.1 450 874.12 479.45 853.36 491.43" class="colorfb944b svgShape"/><polygon fill="#fb944b" points="774.32 554.98 723.31 525.52 723.31 507.61 774.32 537.07 774.32 554.98" class="colorfb944b svgShape"/><polygon fill="#ffaf6d" points="774.32 537.07 723.31 507.61 747.13 493.86 798.15 523.31 774.32 537.07" class="colorffaf6d svgShape"/><polygon fill="#fb944b" points="798.15 523.31 747.13 493.86 754.68 465.89 805.69 495.35 798.15 523.31" class="colorfb944b svgShape"/><polygon fill="#ffaf6d" points="805.69 495.35 754.68 465.89 794.85 442.7 845.87 472.15 805.69 495.35" class="colorffaf6d svgShape"/><path fill="#e57139" d="M798.15,523.31l7.54-28,40.18-23.2,7.49,19.28,20.76-12v17.91l-7.58,4.38h0c0-6.49-4.56-9.12-10.18-5.87S846.18,507,846.18,513.49h0l-44.51,25.7c0-6.49-4.56-9.12-10.18-5.88s-10.18,11.14-10.18,17.63l-7,4V537.06Z" class="colore57139 svgShape"/><path fill="url(#ao)" d="M844.12,476.22l-16.63,9.6v20.55L850.64,493Zm-43.25,45.52L824,508.37V487.83l-16.58,9.57Z"/><polygon fill="#423eaf" points="740.82 527.32 756.81 536.55 756.81 530.53 740.82 521.3 740.82 527.32" class="color423eaf svgShape"/><polygon fill="url(#ap)" points="795.73 521.91 749.67 495.32 756.51 469.99 802.57 496.58 795.73 521.91"/><polygon points="802.15 498.11 795.73 521.91 749.67 495.32 750.6 491.85 770.96 480.1 802.15 498.11" style="mix-blend-mode:screen" fill="url(#aq)"/><polygon fill="#ced3f8" points="774.32 556.21 721.17 525.52 721.17 517.21 774.32 547.9 774.32 556.21" class="colorced3f8 svgShape"/><polygon fill="#bbc0e6" points="780.73 552.51 774.32 556.21 774.32 547.9 780.73 544.2 780.73 552.51" class="colorbbc0e6 svgShape"/><polygon fill="#f6f6fb" points="779.66 543.58 774.32 546.66 723.31 517.21 723.31 515.97 721.17 517.21 774.32 547.9 780.73 544.2 779.66 543.58" class="colorf6f6fb svgShape"/><polygon fill="#bbc0e6" points="876.26 497.36 868.93 501.59 868.93 493.28 876.26 489.05 876.26 497.36" class="colorbbc0e6 svgShape"/><polygon fill="#ced3f8" points="868.93 501.59 867.85 500.98 867.85 492.66 868.93 493.28 868.93 501.59" class="colorced3f8 svgShape"/><polygon fill="#f6f6fb" points="867.85 492.66 874.12 489.05 874.12 487.81 876.26 489.05 868.93 493.28 867.85 492.66" class="colorf6f6fb svgShape"/><path fill="#6b67e9" d="M842.93,501.11a2.11,2.11,0,0,1,.88-1.69l3.46-2a.76.76,0,0,1,.36-.1,1,1,0,0,1,.92.81,1.54,1.54,0,0,1-.65,1.64c-1.7,1-3,1.74-3.51,2.06A.92.92,0,0,1,842.93,501.11Z" class="color6b67e9 svgShape"/><path fill="#5652cc" d="M848.59,498.38a1.54,1.54,0,0,1-.69,1.39c-1.7,1-3,1.74-3.51,2.06-1.09.63-1.51-.26-1.46-.72a2.5,2.5,0,0,1,.12-.68,1,1,0,0,0,1.35.8c.29-.15,2.73-1.47,3.23-1.8A2.24,2.24,0,0,0,848.59,498.38Z" class="color5652cc svgShape"/><path fill="#6b67e9" d="M816.78,516.21a2.11,2.11,0,0,1,.88-1.69l3.46-2a.76.76,0,0,1,.36-.1,1,1,0,0,1,.92.81,1.53,1.53,0,0,1-.65,1.63c-1.7,1-3,1.75-3.51,2.06A.92.92,0,0,1,816.78,516.21Z" class="color6b67e9 svgShape"/><path fill="#5652cc" d="M822.44,513.48a1.51,1.51,0,0,1-.69,1.38c-1.7,1-3,1.75-3.51,2.06-1.09.63-1.51-.26-1.46-.71a2.5,2.5,0,0,1,.12-.68.94.94,0,0,0,1.35.79c.29-.14,2.73-1.46,3.23-1.79A2.24,2.24,0,0,0,822.44,513.48Z" class="color5652cc svgShape"/><polygon fill="#f1f1f6" points="768.33 544.45 758.93 539.01 758.93 533 768.33 538.43 768.33 544.45" class="colorf1f1f6 svgShape"/><polygon fill="#ced3f8" points="769.41 543.83 768.33 544.45 768.33 538.43 769.41 537.81 769.41 543.83" class="colorced3f8 svgShape"/><polygon fill="#f6f6fb" points="769.41 537.81 768.33 538.43 758.93 533 760 532.38 769.41 537.81" class="colorf6f6fb svgShape"/><polygon fill="#f1f1f6" points="736.56 526.1 727.15 520.67 727.15 514.65 736.56 520.08 736.56 526.1" class="colorf1f1f6 svgShape"/><polygon fill="#ced3f8" points="737.63 525.48 736.56 526.1 736.56 520.08 737.63 519.46 737.63 525.48" class="colorced3f8 svgShape"/><polygon fill="#f6f6fb" points="737.63 519.46 736.56 520.08 727.15 514.65 728.23 514.03 737.63 519.46" class="colorf6f6fb svgShape"/><polygon points="737.63 519.46 738.71 521.28 738.71 526.1 737.63 525.48 737.63 519.46" style="mix-blend-mode:multiply" fill="#dfe4f4" class="colordfe4f4 svgShape"/><polygon fill="#dfe4f4" points="736.56 526.1 738.71 526.1 737.63 525.48 736.56 526.1" class="colordfe4f4 svgShape"/><polygon points="769.41 537.81 770.48 539.62 770.48 544.45 769.41 543.83 769.41 537.81" style="mix-blend-mode:multiply" fill="#dfe4f4" class="colordfe4f4 svgShape"/><polygon fill="#dfe4f4" points="768.33 544.45 770.48 544.45 769.41 543.83 768.33 544.45" class="colordfe4f4 svgShape"/><polygon fill="#dfe4f4" points="867.85 492.66 870 492.66 876.26 489.05 874.12 487.81 874.12 489.05 867.85 492.66" class="colordfe4f4 svgShape"/><polygon fill="#dfe4f4" points="774.32 546.66 776.47 546.66 780.73 544.2 779.66 543.58 774.32 546.66" class="colordfe4f4 svgShape"/><path d="M978.59,462.88c-.67,0-1.37,0-2.11,0-9.61,0-21.29,2.25-26.09,5-2.4,1.39-2.63,2.64-1.06,3.55a6.92,6.92,0,0,0,1.59.63c-.4.19-.78.38-1.12.58-2.4,1.38-2.62,2.64-1,3.55s5,1.47,9.75,1.47a79.75,79.75,0,0,0,20.09-2.7Z" style="mix-blend-mode:multiply" fill="url(#ar)"/><path d="M1050.14,421.39c-.67,0-1.37,0-2.11,0-9.61,0-21.29,2.24-26.09,5-2.4,1.38-2.63,2.64-1.06,3.55a8,8,0,0,0,1.59.63c-.4.19-.78.38-1.12.57-2.4,1.39-2.62,2.64-1.05,3.55s5,1.47,9.75,1.47a79.82,79.82,0,0,0,20.09-2.69Z" style="mix-blend-mode:multiply" fill="url(#as)"/><polygon fill="#362e94" points="1028.29 413.27 1036.2 417.83 1036.2 409.03 1028.29 404.47 1028.29 413.27" class="color362e94 svgShape"/><polygon fill="#362e94" points="956.39 454.78 964.3 459.35 964.3 450.55 956.39 445.98 956.39 454.78" class="color362e94 svgShape"/><path fill="#0e1c70" d="M948,475.88c-1.57-.91-2.55-2.86-2.55-5.63,0-5.55,3.9-12.29,8.7-15.07,2.4-1.38,4.57-1.52,6.15-.61s2.55,2.86,2.55,5.63c0,5.55-3.9,12.29-8.7,15.07C951.72,476.65,949.55,476.78,948,475.88Z" class="color0e1c70 svgShape"/><path fill="#bbc0e6" d="M949.33,468a10.62,10.62,0,0,1,4.79-8.3c2.65-1.52,4.79-.28,4.79,2.77a10.59,10.59,0,0,1-4.79,8.3C951.48,472.28,949.33,471.05,949.33,468Z" class="colorbbc0e6 svgShape"/><path fill="#110d60" d="M945.42,470.25c0-5.55,3.9-12.29,8.7-15.07,2.4-1.39,4.57-1.52,6.15-.61l-6.66-3.84c-1.57-.91-3.74-.78-6.15.61-4.8,2.77-8.69,9.51-8.69,15.07,0,2.77,1,4.72,2.54,5.62l6.66,3.85C946.4,475,945.42,473,945.42,470.25Z" class="color110d60 svgShape"/><path fill="#0e1c70" d="M1019.87,434.37c-1.57-.92-2.55-2.86-2.55-5.63,0-5.55,3.9-12.29,8.7-15.07,2.4-1.38,4.57-1.52,6.15-.61s2.55,2.86,2.55,5.63c0,5.55-3.89,12.29-8.7,15.07C1023.62,435.14,1021.45,435.27,1019.87,434.37Z" class="color0e1c70 svgShape"/><path fill="#bbc0e6" d="M1021.23,426.48a10.6,10.6,0,0,1,4.79-8.3c2.65-1.52,4.79-.29,4.79,2.77a10.56,10.56,0,0,1-4.79,8.29C1023.38,430.77,1021.23,429.53,1021.23,426.48Z" class="colorbbc0e6 svgShape"/><path fill="#110d60" d="M1017.32,428.74c0-5.55,3.9-12.29,8.7-15.07,2.4-1.39,4.57-1.52,6.15-.61l-6.65-3.84c-1.58-.91-3.75-.78-6.16.61-4.8,2.77-8.69,9.51-8.69,15.06,0,2.77,1,4.72,2.55,5.63l6.65,3.85C1018.3,433.45,1017.32,431.51,1017.32,428.74Z" class="color110d60 svgShape"/><polygon fill="#423eaf" points="1032.17 402.25 981.16 372.8 992.77 366.1 1043.78 395.55 1032.17 402.25" class="color423eaf svgShape"/><polygon fill="#423eaf" points="936.96 475.13 885.95 445.68 885.95 427.77 936.96 457.22 936.96 475.13" class="color423eaf svgShape"/><polygon fill="#5652cc" points="936.96 457.22 885.95 427.77 916.8 409.96 967.81 439.41 936.96 457.22" class="color5652cc svgShape"/><polygon fill="#423eaf" points="967.81 439.41 916.8 409.96 929.76 378.87 980.77 408.32 967.81 439.41" class="color423eaf svgShape"/><polygon fill="#5652cc" points="980.77 408.32 929.76 378.87 964.52 358.8 1015.53 388.25 980.77 408.32" class="color5652cc svgShape"/><path fill="#362e94" d="M967.81,439.41l13-31.09,34.76-20.07,16.64,14,11.61-6.7v17.91l-7.58,4.38h0c0-6.5-4.56-9.13-10.18-5.88s-10.18,11.14-10.18,17.63h0L964.3,459.35c0-6.5-4.56-9.13-10.18-5.88s-10.18,11.14-10.18,17.63l-7,4V457.22Z" class="color362e94 svgShape"/><path fill="url(#at)" d="M1014.77,391.75l-14.49,8.36v20.55l25-14.45Zm-44.24,46.09,26.28-15.17V402.12l-14.45,8.34Z"/><polygon fill="url(#au)" points="965.39 438.01 919.33 411.42 931.09 382.91 977.15 409.5 965.39 438.01"/><polygon points="974.5 415.77 965.39 438.01 919.33 411.42 920.92 407.58 940.62 396.2 974.5 415.77" style="mix-blend-mode:screen" fill="url(#av)"/><polygon fill="#ced3f8" points="936.96 476.37 883.8 445.68 883.8 437.37 936.96 468.06 936.96 476.37" class="colorced3f8 svgShape"/><polygon fill="#bbc0e6" points="943.37 472.67 936.96 476.37 936.96 468.06 943.37 464.36 943.37 472.67" class="colorbbc0e6 svgShape"/><polygon fill="#f6f6fb" points="942.29 463.74 936.96 466.82 885.95 437.37 885.95 436.13 883.8 437.37 936.96 468.06 943.37 464.36 942.29 463.74" class="colorf6f6fb svgShape"/><polygon fill="#bbc0e6" points="1045.92 413.46 1038.59 417.69 1038.59 409.38 1045.92 405.15 1045.92 413.46" class="colorbbc0e6 svgShape"/><polygon fill="#ced3f8" points="1038.59 417.69 1037.52 417.08 1037.52 408.76 1038.59 409.38 1038.59 417.69" class="colorced3f8 svgShape"/><polygon fill="#f6f6fb" points="1037.52 408.76 1043.78 405.15 1043.78 403.91 1045.92 405.15 1038.59 409.38 1037.52 408.76" class="colorf6f6fb svgShape"/><path fill="#6b67e9" d="M990.26,430.21a2.11,2.11,0,0,1,.88-1.69l3.46-2a.76.76,0,0,1,.36-.1,1,1,0,0,1,.92.81,1.53,1.53,0,0,1-.65,1.63c-1.7,1-3,1.75-3.51,2.06A.92.92,0,0,1,990.26,430.21Z" class="color6b67e9 svgShape"/><path fill="#5652cc" d="M995.92,427.48a1.51,1.51,0,0,1-.69,1.38c-1.7,1-3,1.75-3.51,2.06-1.09.63-1.51-.26-1.46-.71a2.5,2.5,0,0,1,.12-.68.94.94,0,0,0,1.35.79c.29-.14,2.73-1.46,3.23-1.79A2.24,2.24,0,0,0,995.92,427.48Z" class="color5652cc svgShape"/><polygon fill="#dfe4f4" points="1037.52 408.76 1039.66 408.76 1045.92 405.15 1043.78 403.91 1043.78 405.15 1037.52 408.76" class="colordfe4f4 svgShape"/><polygon fill="#dfe4f4" points="936.96 466.82 939.1 466.82 943.37 464.36 942.29 463.74 936.96 466.82" class="colordfe4f4 svgShape"/><path fill="#20196f" d="M900.22,444.11l22.47,13c1.08.62,1.95.12,1.95-1.13h0a4.33,4.33,0,0,0-1.95-3.39l-22.47-13c-1.08-.62-2-.12-2,1.13h0A4.34,4.34,0,0,0,900.22,444.11Z" class="color20196f svgShape"/><polygon fill="#423eaf" points="933.36 442.34 911.72 429.85 913.63 428.75 931.45 439.03 933.36 442.34" class="color423eaf svgShape"/><polygon fill="#6b67e9" points="933.4 417.34 913.63 428.75 931.45 439.03 951.21 427.62 933.4 417.34" class="color6b67e9 svgShape"/><polygon points="953.16 405.93 933.4 417.34 951.21 427.62 970.97 416.21 953.16 405.93" style="mix-blend-mode:screen" fill="url(#aw)"/><rect width="22.82" height="3.82" x="950.64" y="421.66" transform="rotate(-30 962.042 423.579)" style="mix-blend-mode:screen" fill="url(#ax)"/><rect width="22.82" height="3.82" x="930.88" y="433.07" fill="#362e94" transform="rotate(-30 942.286 434.985)" class="color362e94 svgShape"/><path d="M933.33,460.75a4.76,4.76,0,0,0-2.17-3.74c-1.19-.69-2.16-.13-2.16,1.25a4.78,4.78,0,0,0,2.16,3.74C932.36,462.69,933.33,462.13,933.33,460.75Z" style="mix-blend-mode:multiply" fill="#dfe4f4" class="colordfe4f4 svgShape"/><path fill="url(#ay)" d="M928.8,457.28l-.52-.92.75-.43h0a1.51,1.51,0,0,1,1.52.16,4.75,4.75,0,0,1,2.16,3.74,1.53,1.53,0,0,1-.63,1.4h0l-.76.44-.53-.92A4.81,4.81,0,0,1,928.8,457.28Z"/><path fill="#f6f6fb" d="M932,460.26a4.78,4.78,0,0,0-2.16-3.74c-1.19-.69-2.16-.13-2.16,1.25a4.79,4.79,0,0,0,2.16,3.74C931,462.2,932,461.64,932,460.26Z" class="colorf6f6fb svgShape"/><polygon fill="#362e94" points="1029.78 395.17 1031.08 395.92 1031.08 391.05 1029.78 390.3 1029.78 395.17" class="color362e94 svgShape"/><polygon fill="#20196f" points="1031.08 395.92 1038.79 391.48 1038.79 386.6 1031.08 391.05 1031.08 395.92" class="color20196f svgShape"/><polygon fill="#362e94" points="992.12 373.43 993.42 374.18 993.42 369.3 992.12 368.55 992.12 373.43" class="color362e94 svgShape"/><polygon fill="#20196f" points="993.42 374.18 1001.12 369.73 1001.12 364.86 993.42 369.3 993.42 374.18" class="color20196f svgShape"/><polygon points="1031.08 395.92 1039.91 395.92 1039.91 393.32 1037.76 392.07 1031.08 395.92" style="mix-blend-mode:multiply" fill="url(#az)"/><polygon fill="#ffaf6d" points="1035.69 391.17 1043.39 386.72 995.21 358.9 987.51 363.35 1035.69 391.17" class="colorffaf6d svgShape"/><polygon fill="#ffaf6d" points="986.09 357.95 993.8 353.5 992.7 352.87 984.99 357.31 986.09 357.95" class="colorffaf6d svgShape"/><polygon fill="#ffaf6d" points="1038.21 388.04 1045.91 383.59 1044.81 382.95 1037.11 387.4 1038.21 388.04" class="colorffaf6d svgShape"/><polygon fill="#e57139" points="1037.11 394.53 1044.81 390.08 1045.91 383.59 1038.21 388.04 1037.11 394.53" class="colore57139 svgShape"/><polygon fill="#e57139" points="987.51 363.35 995.21 358.9 993.8 353.5 986.09 357.95 987.51 363.35" class="colore57139 svgShape"/><polygon fill="#fb944b" points="1037.11 387.4 1035.69 391.17 987.51 363.35 986.09 357.95 984.99 357.31 986.09 365.07 1037.11 394.53 1038.21 388.04 1037.11 387.4" class="colorfb944b svgShape"/><path d="M895.1,438.68a4.77,4.77,0,0,0-2.16-3.74c-1.19-.69-2.16-.13-2.16,1.25a4.78,4.78,0,0,0,2.16,3.74C894.14,440.62,895.1,440.06,895.1,438.68Z" style="mix-blend-mode:multiply" fill="#dfe4f4" class="colordfe4f4 svgShape"/><path fill="url(#aA)" d="M890.58,435.21l-.53-.92.76-.43h0a1.5,1.5,0,0,1,1.52.15,4.79,4.79,0,0,1,2.16,3.74,1.53,1.53,0,0,1-.63,1.4h0l-.76.44-.53-.92A4.77,4.77,0,0,1,890.58,435.21Z"/><path fill="#f6f6fb" d="M893.74,438.19a4.79,4.79,0,0,0-2.16-3.74c-1.2-.69-2.17-.13-2.17,1.25a4.76,4.76,0,0,0,2.17,3.74C892.77,440.13,893.74,439.57,893.74,438.19Z" class="colorf6f6fb svgShape"/><polygon points="987.51 363.35 996.02 362.23 998.55 360.83 995.21 358.9 987.51 363.35" style="mix-blend-mode:multiply" fill="url(#aB)"/><polygon points="993.42 374.18 1001.86 374.18 997.64 371.74 993.42 374.18" style="mix-blend-mode:multiply" fill="#ced3f8" class="colorced3f8 svgShape"/></g></svg>