<svg xmlns="http://www.w3.org/2000/svg" viewBox="0 0 4680 3120"><g data-name="Layer 2" fill="#000000" class="color000 svgShape"><g data-name="Successful businessman in a car dealership - sale of vehicles to customers" fill="#000000" class="color000 svgShape"><path fill="#f4fdfc" d="M247.12 8.05h4185.76v1182.83H247.12z" transform="rotate(180 2340 599.465)" class="colorf4fdfc svgShape"/><path fill="#c4ebf0" d="M3775.47 1465.92V296.46l-329.18-121.28v1290.74h329.18z" class="colorc4ebf0 svgShape"/><path fill="#ffffff" d="M3485.5 424.5h91.51v18.93h-91.51zM3652.76 424.5h88.37v18.93h-88.37zM3652.76 471.84h88.37v28.4h-88.37zM3485.5 471.84h91.51v28.4h-91.51zM3652.76 575.98h88.37v28.4h-88.37zM3485.5 575.98h91.51v28.4h-91.51zM3485.5 632.78h91.51v18.93h-91.51zM3652.76 632.78h88.37v18.93h-88.37zM3485.5 680.12h91.51v28.4h-91.51zM3652.76 680.12h88.37v28.4h-88.37zM3485.5 784.26h91.51v28.4h-91.51zM3652.76 784.26h88.37v28.4h-88.37zM3485.5 841.07h91.51V860h-91.51zM3652.76 841.07h88.37V860h-88.37zM3485.5 888.4h91.51v28.4h-91.51zM3652.76 888.4h88.37v28.4h-88.37zM3485.5 945.21h91.51v18.93h-91.51zM3652.76 945.21h88.37v18.93h-88.37zM3485.5 992.54h91.51v28.4h-91.51zM3652.76 992.54h88.37v28.4h-88.37zM3485.5 1096.69h91.51v28.4h-91.51zM3652.76 1096.69h88.37v28.4h-88.37zM3485.5 1153.49h91.51v18.93h-91.51zM3652.76 1153.49h88.37v18.93h-88.37zM3485.5 1200.83h91.51v28.4h-91.51zM3652.76 1200.83h88.37v28.4h-88.37zM3485.5 1304.97h91.51v28.4h-91.51zM3652.76 1304.97h88.37v28.4h-88.37zM3485.5 1361.78h91.51v18.93h-91.51zM3652.76 1361.78h88.37v18.93h-88.37z" class="colorfff svgShape"/><path fill="#b3e3ef" d="M4061.59 1390.07V220.61l329.17-121.28v1290.74h-329.17z" class="colorb3e3ef svgShape"/><path fill="#ffffff" d="M4260.04 348.65h91.51v18.93h-91.51zM4095.93 348.65h88.37v18.93h-88.37zM4095.93 395.99h88.37v28.4h-88.37zM4260.04 395.99h91.51v28.4h-91.51zM4095.93 500.13h88.37v28.4h-88.37zM4260.04 500.13h91.51v28.4h-91.51zM4260.04 556.93h91.51v18.93h-91.51zM4095.93 556.93h88.37v18.93h-88.37zM4260.04 604.27h91.51v28.4h-91.51zM4095.93 604.27h88.37v28.4h-88.37zM4260.04 708.41h91.51v28.4h-91.51zM4095.93 708.41h88.37v28.4h-88.37zM4260.04 765.22h91.51v18.93h-91.51zM4095.93 765.22h88.37v18.93h-88.37zM4260.04 812.55h91.51v28.4h-91.51zM4095.93 812.55h88.37v28.4h-88.37zM4260.04 869.36h91.51v18.93h-91.51zM4095.93 869.36h88.37v18.93h-88.37zM4260.04 916.7h91.51v28.4h-91.51zM4095.93 916.7h88.37v28.4h-88.37zM4260.04 1020.84h91.51v28.4h-91.51zM4095.93 1020.84h88.37v28.4h-88.37zM4260.04 1077.64h91.51v18.93h-91.51zM4095.93 1077.64h88.37v18.93h-88.37zM4260.04 1124.98h91.51v28.4h-91.51zM4095.93 1124.98h88.37v28.4h-88.37zM4260.04 1229.12h91.51v28.4h-91.51zM4095.93 1229.12h88.37v28.4h-88.37zM4260.04 1285.93h91.51v18.93h-91.51zM4095.93 1285.93h88.37v18.93h-88.37z" class="colorfff svgShape"/><path fill="#b3e3ef" d="M1801.09 75.49h640.52v1179.72h-640.52z" class="colorb3e3ef svgShape"/><path fill="#ffffff" d="M2286.61 206.09h68.38v57.22h-68.38zM2286.61 291.93h68.38v57.22h-68.38zM2286.61 377.77h68.38v66.76h-68.38zM2286.61 463.6h68.38v66.76h-68.38zM2286.61 549.44h68.38v66.76h-68.38zM2286.61 644.81h68.38v57.22h-68.38zM2286.61 816.48h68.38v57.22h-68.38zM2286.61 988.16h68.38v66.76h-68.38zM2286.61 1073.99h68.38v66.76h-68.38zM2149.85 206.09h68.38v57.22h-68.38zM2149.85 291.93h68.38v57.22h-68.38zM2149.85 463.6h68.38v66.76h-68.38zM2149.85 644.81h68.38v57.22h-68.38zM2149.85 730.65h68.38v57.22h-68.38zM2149.85 816.48h68.38v57.22h-68.38zM2149.85 902.32h68.38v57.22h-68.38zM2149.85 1073.99h68.38v66.76h-68.38zM2013.08 206.09h68.38v57.22h-68.38zM2013.08 291.93h68.38v57.22h-68.38zM2013.08 377.77h68.38v66.76h-68.38zM2013.08 463.6h68.38v66.76h-68.38zM2013.08 549.44h68.38v66.76h-68.38zM2013.08 644.81h68.38v57.22h-68.38zM2013.08 816.48h68.38v57.22h-68.38zM2013.08 902.32h68.38v57.22h-68.38zM2013.08 988.16h68.38v66.76h-68.38zM1876.32 206.09h68.38v57.22h-68.38zM1876.32 291.93h68.38v57.22h-68.38zM1876.32 463.6h68.38v66.76h-68.38zM1876.32 644.81h68.38v57.22h-68.38zM1876.32 730.65h68.38v57.22h-68.38zM1876.32 902.32h68.38v57.22h-68.38zM1876.32 1073.99h68.38v66.76h-68.38z" class="colorfff svgShape"/><path fill="#c4ebf0" d="M1386.07 406.84h373.29v743.87h-373.29z" class="colorc4ebf0 svgShape"/><path fill="#ffffff" d="M1669.02 489.2h39.85v36.08h-39.85zM1669.02 543.32h39.85v36.08h-39.85zM1669.02 597.44h39.85v42.1h-39.85zM1669.02 651.57h39.85v42.1h-39.85zM1669.02 705.69h39.85v42.1h-39.85zM1669.02 765.83h39.85v36.08h-39.85zM1669.02 874.08h39.85v36.08h-39.85zM1669.02 982.32h39.85v42.1h-39.85zM1669.02 1036.45h39.85v42.1h-39.85zM1589.31 489.2h39.85v36.08h-39.85zM1589.31 543.32h39.85v36.08h-39.85zM1589.31 651.57h39.85v42.1h-39.85zM1589.31 765.83h39.85v36.08h-39.85zM1589.31 819.95h39.85v36.08h-39.85zM1589.31 874.08h39.85v36.08h-39.85zM1589.31 928.2h39.85v36.08h-39.85zM1589.31 1036.45h39.85v42.1h-39.85zM1509.61 489.2h39.85v36.08h-39.85zM1509.61 543.32h39.85v36.08h-39.85zM1509.61 597.44h39.85v42.1h-39.85zM1509.61 651.57h39.85v42.1h-39.85zM1509.61 705.69h39.85v42.1h-39.85zM1509.61 765.83h39.85v36.08h-39.85zM1509.61 874.08h39.85v36.08h-39.85zM1509.61 928.2h39.85v36.08h-39.85zM1509.61 982.32h39.85v42.1h-39.85zM1429.9 489.2h39.85v36.08h-39.85zM1429.9 543.32h39.85v36.08h-39.85zM1429.9 651.57h39.85v42.1h-39.85zM1429.9 765.83h39.85v36.08h-39.85zM1429.9 819.95h39.85v36.08h-39.85zM1429.9 928.2h39.85v36.08h-39.85zM1429.9 1036.45h39.85v42.1h-39.85z" class="colorfff svgShape"/><path fill="#c4ebf0" d="M2989.49 164.12h373.29v743.87h-373.29z" class="colorc4ebf0 svgShape"/><path fill="#ffffff" d="M3272.45 246.47h39.85v36.08h-39.85zM3272.45 300.59h39.85v36.08h-39.85zM3272.45 354.72h39.85v42.1h-39.85zM3272.45 408.84h39.85v42.1h-39.85zM3272.45 462.96h39.85v42.1h-39.85zM3272.45 523.1h39.85v36.08h-39.85zM3272.45 631.35h39.85v36.08h-39.85zM3272.45 739.6h39.85v42.1h-39.85zM3272.45 793.72h39.85v42.1h-39.85zM3192.74 246.47h39.85v36.08h-39.85zM3192.74 300.59h39.85v36.08h-39.85zM3192.74 408.84h39.85v42.1h-39.85zM3192.74 523.1h39.85v36.08h-39.85zM3192.74 577.23h39.85v36.08h-39.85zM3192.74 631.35h39.85v36.08h-39.85zM3192.74 685.47h39.85v36.08h-39.85zM3192.74 793.72h39.85v42.1h-39.85zM3113.03 246.47h39.85v36.08h-39.85zM3113.03 300.59h39.85v36.08h-39.85zM3113.03 354.72h39.85v42.1h-39.85zM3113.03 408.84h39.85v42.1h-39.85zM3113.03 462.96h39.85v42.1h-39.85zM3113.03 523.1h39.85v36.08h-39.85zM3113.03 631.35h39.85v36.08h-39.85zM3113.03 685.47h39.85v36.08h-39.85zM3113.03 739.6h39.85v42.1h-39.85zM3033.33 246.47h39.85v36.08h-39.85zM3033.33 300.59h39.85v36.08h-39.85zM3033.33 408.84h39.85v42.1h-39.85zM3033.33 523.1h39.85v36.08h-39.85zM3033.33 577.23h39.85v36.08h-39.85zM3033.33 685.47h39.85v36.08h-39.85zM3033.33 793.72h39.85v42.1h-39.85z" class="colorfff svgShape"/><path fill="#b3e3ef" d="M1925.15 659.19V558.41h-216.2v416.17h-429.14V702.25h-195.38V590.93H659.2V259.38H391.55V386.1H131.42v559.33H0v197.27l21.36 319.84h2054.89V659.19h-151.1zM4261.76 659.19V558.41H4016.9v416.17h-486.01V702.25h-221.27V590.93h-481.6V259.38h-303.11V386.1H2230.3v559.33h-148.84v197.27l24.19 319.84h2327.23V659.19h-171.12z" class="colorb3e3ef svgShape"/><path fill="#c4ebf0" d="M774.02 10.93h610.77v1217.1H774.02z" class="colorc4ebf0 svgShape"/><path fill="#ffffff" d="M1236.98 145.68h65.21v59.04h-65.21zM1236.98 234.23h65.21v59.04h-65.21zM1236.98 322.79h65.21v68.88h-65.21zM1236.98 411.35h65.21v68.88h-65.21zM1236.98 499.9h65.21v68.88h-65.21zM1236.98 598.3h65.21v59.04h-65.21zM1236.98 775.41h65.21v59.04h-65.21zM1236.98 952.53h65.21v68.88h-65.21zM1236.98 1041.08h65.21v68.88h-65.21zM1106.57 145.68h65.21v59.04h-65.21zM1106.57 234.23h65.21v59.04h-65.21zM1106.57 411.35h65.21v68.88h-65.21zM1106.57 598.3h65.21v59.04h-65.21zM1106.57 686.86h65.21v59.04h-65.21zM1106.57 775.41h65.21v59.04h-65.21zM1106.57 863.97h65.21v59.04h-65.21zM1106.57 1041.08h65.21v68.88h-65.21zM976.16 145.68h65.21v59.04h-65.21zM976.16 234.23h65.21v59.04h-65.21zM976.16 322.79h65.21v68.88h-65.21zM976.16 411.35h65.21v68.88h-65.21zM976.16 499.9h65.21v68.88h-65.21zM976.16 598.3h65.21v59.04h-65.21zM976.16 775.41h65.21v59.04h-65.21zM976.16 863.97h65.21v59.04h-65.21zM976.16 952.53h65.21v68.88h-65.21zM845.74 145.68h65.21v59.04h-65.21zM845.74 234.23h65.21v59.04h-65.21zM845.74 411.35h65.21v68.88h-65.21zM845.74 598.3h65.21v59.04h-65.21zM845.74 686.86h65.21v59.04h-65.21zM845.74 863.97h65.21v59.04h-65.21zM845.74 1041.08h65.21v68.88h-65.21z" class="colorfff svgShape"/><path fill="#7ecae1" d="M0 0h247.12v1190.88H0zM2182.54 0h247.12v1190.88h-247.12zM4432.88 0H4680v1190.88h-247.12z" class="color7ecae1 svgShape"/><path fill="#e0f5f8" d="M0 1184.52h4680V3120H0z" class="colore0f5f8 svgShape"/><ellipse cx="3193.8" cy="1573.11" fill="#b3e3ef" rx="220.26" ry="15.93" class="colorb3e3ef svgShape"/><ellipse cx="3818.96" cy="1544.95" fill="#b3e3ef" rx="220.26" ry="15.93" class="colorb3e3ef svgShape"/><path fill="#6bb14e" d="M4311.79 1097.13c38.64-27 47.41-77.11 45.88-122.15-.25-7.52.57-15.45-3-22.05s-11.93-11.1-18.66-7.93c-5.58 2.63-8 9.12-11.14 14.49a44 44 0 0 1-17.63 16.84c-4.79 2.49-10.72 4-15.44 1.4-6.49-3.58-7.25-12.54-7.21-20l.27-41.81c0-7.48.06-15.11-2.26-22.21S4275.13 880 4268 878s-15.91 2.11-17.41 9.43c-.63 3 0 6.21-.22 9.31s-1.65 6.54-4.6 7.4-6-1.24-8.21-3.43c-7.72-7.55-13-17.28-17.85-27s-9.65-19.58-16.65-27.81-16.69-14.76-27.4-15.37-22.12 6-24.83 16.52 3.44 21.24 10.13 29.77a167 167 0 0 0 34.78 33.18c2.35 1.67 4.91 3.48 5.81 6.25 1.62 5-3.1 9.94-8 11.58-5.58 1.85-11.62 1.27-17.46 2s-12.14 3.26-14.35 8.77c-3.06 7.64 3.33 15.66 9.62 20.9a143.06 143.06 0 0 0 42.32 24.43c5.5 2 11.29 3.78 15.73 7.65s7.11 10.58 4.43 15.85-9.56 7-15.32 5.89-10.92-4.2-16.41-6.27c-10.28-3.88-23.55-3.17-30.13 5.71-4.33 5.84-4.71 14-2.52 20.93s6.62 12.95 11.33 18.48c16.48 19.32 37.56 34.88 61.4 43.15s45.93 10.5 69.62 1.84" class="color6bb14e svgShape"/><path fill="#57a542" d="M4161.66 836.85a5 5 0 0 0 .72.71l2.22 2c2 1.73 4.85 4.29 8.48 7.68a281.1 281.1 0 0 1 28.56 30.83c5.56 6.93 11.35 14.77 17.4 23.31s12.44 17.73 18.8 27.63a336 336 0 0 1 18.45 32c2.89 5.72 5.46 11.7 8.08 17.8s5.25 12.28 7.93 18.54c10.63 25.08 20 49.32 26.65 72a334.11 334.11 0 0 1 12.47 61.37 245.43 245.43 0 0 1 .7 42.23c-.39 5-.78 8.85-1.13 11.45-.14 1.25-.26 2.24-.34 3a5 5 0 0 0-.07 1s-4.87 45.11.21-1c.11-.74.28-1.72.48-3 .44-2.6.91-6.46 1.38-11.44a233.46 233.46 0 0 0-.27-42.38 327.65 327.65 0 0 0-12.22-61.63c-6.63-22.73-16-47.05-26.59-72.14q-4-9.4-7.95-18.56c-2.62-6.08-5.22-12.11-8.13-17.86a333.91 333.91 0 0 0-18.59-32c-6.41-9.91-12.85-19.08-18.93-27.6s-11.95-16.36-17.58-23.27a264.66 264.66 0 0 0-29-30.6 232.31 232.31 0 0 0-8.65-7.49l-2.31-1.88a6.1 6.1 0 0 0-.77-.7Z" class="color57a542 svgShape"/><path fill="#57a542" d="M4257.1 960.28a15 15 0 0 0 .73-3.19c.4-2.07.86-5.07 1.39-8.8 1.06-7.44 2.17-17.78 3.35-29.17s2.43-21.69 3.6-29.1c.57-3.7 1.06-6.7 1.43-8.77a15 15 0 0 0 .4-3.25 15.2 15.2 0 0 0-.94 3.13c-.53 2-1.17 5-1.87 8.71-1.42 7.4-2.83 17.71-4 29.12-1.14 11.25-2.16 21.42-2.95 29.2-.37 3.51-.69 6.47-.95 8.84a15.15 15.15 0 0 0-.19 3.28Z" class="color57a542 svgShape"/><path fill="#57a542" d="M4161 942.31a19.47 19.47 0 0 0 3.83.46c2.47.22 6 .52 10.44 1 8.81 1 20.92 2.69 34.21 5.19s25.21 5.33 33.78 7.6c4.29 1.11 7.74 2.1 10.13 2.77a20.65 20.65 0 0 0 3.75.92 20.65 20.65 0 0 0-3.59-1.44c-2.35-.83-5.76-2-10-3.2-8.52-2.52-20.45-5.48-33.78-8a338.2 338.2 0 0 0-34.37-4.8c-4.42-.39-8-.54-10.5-.59a19.94 19.94 0 0 0-3.9.09ZM4299 1067.12a4.54 4.54 0 0 0 .66-1.17l1.65-3.48c1.41-3 3.34-7.46 5.66-13 4.64-11 10.56-26.43 16.88-43.53s12.09-32.55 16.49-43.65c2.16-5.39 3.94-9.83 5.25-13.13.57-1.43 1-2.61 1.41-3.58a5.19 5.19 0 0 0 .41-1.28 4.94 4.94 0 0 0-.66 1.17c-.44.94-1 2.09-1.64 3.48-1.42 3-3.35 7.46-5.67 13-4.64 11-10.56 26.43-16.88 43.54s-12.09 32.55-16.49 43.65l-5.25 13.12c-.57 1.43-1 2.62-1.41 3.58a5.31 5.31 0 0 0-.41 1.28ZM4171.22 1025.94a5.06 5.06 0 0 0 1.27.53l3.71 1.24 13.68 4.43c11.55 3.75 27.45 9.11 45 15s33.52 11.16 45.16 14.67c5.81 1.76 10.53 3.13 13.81 4l3.79 1a4.83 4.83 0 0 0 1.34.25 5.1 5.1 0 0 0-1.27-.52l-3.71-1.25-13.68-4.43c-11.55-3.74-27.44-9.1-45-15.05s-33.52-11.16-45.15-14.67c-5.82-1.75-10.54-3.13-13.82-4l-3.78-1a5.14 5.14 0 0 0-1.35-.2Z" class="color57a542 svgShape"/><path fill="#83d35e" d="M4320 1139.68c-28.64-20-35.14-57.16-34-90.55.19-5.57-.42-11.45 2.23-16.34s8.84-8.23 13.83-5.88c4.14 1.95 5.94 6.76 8.26 10.74a32.58 32.58 0 0 0 13.07 12.49c3.55 1.84 7.94 3 11.44 1 4.81-2.65 5.38-9.29 5.34-14.83q-.09-15.51-.19-31c0-5.54 0-11.2 1.67-16.46s5.53-10.15 10.81-11.63 11.79 1.56 12.91 7c.46 2.26 0 4.6.15 6.9s1.23 4.85 3.42 5.49 4.43-.92 6.08-2.54c5.72-5.6 9.61-12.81 13.24-20s7.15-14.51 12.34-20.62 12.37-10.94 20.31-11.39 16.4 4.45 18.4 12.25-2.54 15.74-7.51 22.07A123.65 123.65 0 0 1 4406 1001c-1.75 1.24-3.64 2.58-4.31 4.64-1.2 3.69 2.3 7.36 6 8.58 4.13 1.37 8.61.95 12.94 1.45s9 2.42 10.64 6.51c2.27 5.66-2.47 11.6-7.14 15.49a105.91 105.91 0 0 1-31.37 18.11c-4.07 1.49-8.37 2.8-11.65 5.66s-5.28 7.85-3.29 11.76 7.09 5.16 11.36 4.36 8.09-3.11 12.16-4.64c7.62-2.88 17.46-2.35 22.34 4.23 3.21 4.33 3.49 10.35 1.87 15.51s-4.92 9.6-8.41 13.7c-12.21 14.33-27.84 25.86-45.51 32s-34.05 7.78-51.61 1.36" class="color83d35e svgShape"/><path fill="#6bb14e" d="M4431.3 946.74s-.17.19-.53.53l-1.65 1.47c-1.45 1.28-3.59 3.17-6.28 5.69a207.07 207.07 0 0 0-21.18 22.85c-4.12 5.14-8.41 11-12.9 17.28s-9.22 13.14-13.93 20.48a251.86 251.86 0 0 0-13.68 23.69c-2.14 4.24-4 8.68-6 13.2l-5.88 13.75c-7.87 18.58-14.8 36.55-19.75 53.34a247.75 247.75 0 0 0-9.24 45.49 181.06 181.06 0 0 0-.52 31.31c.29 3.69.57 6.55.83 8.48.11.93.19 1.66.26 2.21a3.84 3.84 0 0 1 .05.75s3.61 33.44-.16-.74c-.08-.54-.2-1.27-.35-2.19-.33-1.93-.68-4.79-1-8.48a173.57 173.57 0 0 1 .2-31.42 243.28 243.28 0 0 1 9.06-45.68c4.91-16.85 11.83-34.88 19.72-53.48l5.89-13.75c1.94-4.51 3.87-9 6-13.24a247.28 247.28 0 0 1 13.78-23.76c4.75-7.34 9.53-14.14 14-20.46s8.85-12.12 13-17.24a197.08 197.08 0 0 1 21.46-22.69c2.74-2.47 4.92-4.32 6.42-5.55l1.71-1.39a5.06 5.06 0 0 1 .67-.45Z" class="color6bb14e svgShape"/><path fill="#6bb14e" d="M4360.55 1038.24a10.89 10.89 0 0 1-.54-2.37c-.29-1.53-.64-3.76-1-6.52-.78-5.52-1.6-13.18-2.48-21.62s-1.8-16.08-2.67-21.57c-.42-2.75-.79-5-1.06-6.5a10.63 10.63 0 0 1-.31-2.41 11.09 11.09 0 0 1 .69 2.32c.4 1.51.87 3.72 1.39 6.46 1.05 5.48 2.1 13.13 3 21.59s1.61 15.88 2.19 21.64c.28 2.6.51 4.8.7 6.56a11.26 11.26 0 0 1 .09 2.42ZM4431.82 1024.92a15.26 15.26 0 0 1-2.84.34c-1.83.16-4.48.38-7.74.76-6.53.71-15.51 2-25.36 3.85s-18.69 4-25 5.64c-3.18.82-5.74 1.55-7.51 2a15.26 15.26 0 0 1-2.78.68 15.84 15.84 0 0 1 2.66-1.07c1.74-.61 4.28-1.45 7.44-2.37 6.32-1.87 15.17-4.06 25.05-5.94a251.3 251.3 0 0 1 25.47-3.56c3.28-.29 5.95-.4 7.79-.44a15.16 15.16 0 0 1 2.82.11ZM4329.51 1117.44a3.6 3.6 0 0 1-.49-.87l-1.22-2.58c-1.05-2.24-2.48-5.53-4.2-9.61-3.44-8.17-7.83-19.6-12.51-32.27s-9-24.13-12.23-32.36c-1.6-4-2.91-7.29-3.89-9.73-.42-1.06-.76-1.94-1.05-2.65a4.18 4.18 0 0 1-.3-1 3.6 3.6 0 0 1 .49.87l1.22 2.58c1.05 2.24 2.48 5.53 4.2 9.61 3.44 8.17 7.83 19.59 12.51 32.27s9 24.13 12.23 32.36c1.6 4 2.91 7.29 3.89 9.73.42 1.06.76 1.94 1.05 2.65a4.18 4.18 0 0 1 .3 1ZM4424.21 1086.91a3.36 3.36 0 0 1-.94.39l-2.75.92-10.14 3.29c-8.56 2.78-20.34 6.75-33.36 11.15s-24.85 8.28-33.47 10.88c-4.31 1.3-7.81 2.32-10.24 3l-2.81.74a3.83 3.83 0 0 1-1 .19 3.36 3.36 0 0 1 .94-.39l2.75-.92 10.14-3.29c8.56-2.77 20.34-6.75 33.36-11.15s24.84-8.28 33.47-10.88c4.31-1.3 7.81-2.32 10.24-3l2.81-.74a3.83 3.83 0 0 1 1-.19Z" class="color6bb14e svgShape"/><path fill="#0e1c54" d="M4276.18 1297.01h80.37l31.76-132.87h-142.6l30.47 132.87z" class="color0e1c54 svgShape"/><path fill="#6bb14e" d="M2306.32 1097.13c38.64-27 47.41-77.11 45.88-122.15-.25-7.52.57-15.45-3-22.05s-11.93-11.1-18.66-7.93c-5.58 2.63-8 9.12-11.14 14.49a44 44 0 0 1-17.63 16.84c-4.79 2.49-10.72 4-15.44 1.4-6.49-3.58-7.25-12.54-7.21-20l.27-41.81c0-7.48.06-15.11-2.26-22.21s-7.47-13.71-14.58-15.71-15.91 2.11-17.41 9.43c-.63 3 0 6.21-.22 9.31s-1.65 6.54-4.6 7.4-6-1.24-8.21-3.43c-7.72-7.55-13-17.28-17.85-27s-9.65-19.58-16.65-27.81-16.69-14.76-27.4-15.37-22.12 6-24.83 16.52 3.44 21.24 10.13 29.77a167 167 0 0 0 34.76 33.18c2.35 1.67 4.91 3.48 5.81 6.25 1.62 5-3.1 9.94-8 11.58-5.58 1.85-11.62 1.27-17.46 2s-12.14 3.26-14.35 8.77c-3.06 7.64 3.33 15.66 9.62 20.9a142.93 142.93 0 0 0 42.32 24.43c5.5 2 11.29 3.78 15.73 7.65s7.11 10.58 4.43 15.85-9.56 7-15.32 5.89-10.92-4.2-16.41-6.27c-10.28-3.88-23.55-3.17-30.13 5.71-4.33 5.84-4.71 14-2.52 20.93s6.62 12.95 11.33 18.48c16.48 19.32 37.56 34.88 61.4 43.15s45.93 10.5 69.62 1.84" class="color6bb14e svgShape"/><path fill="#57a542" d="M2156.18 836.85a5.56 5.56 0 0 0 .73.71l2.22 2c2 1.73 4.85 4.29 8.48 7.68a281.1 281.1 0 0 1 28.56 30.83c5.56 6.93 11.35 14.77 17.4 23.31s12.44 17.73 18.8 27.63a336 336 0 0 1 18.45 32c2.89 5.72 5.46 11.7 8.08 17.8s5.25 12.28 7.93 18.54c10.63 25.08 20 49.32 26.65 72a334.11 334.11 0 0 1 12.47 61.37 245.43 245.43 0 0 1 .7 42.23c-.39 5-.78 8.85-1.13 11.45-.14 1.25-.26 2.24-.34 3a7.15 7.15 0 0 0-.08 1s-4.86 45.11.22-1c.11-.74.28-1.72.48-3 .44-2.6.91-6.46 1.38-11.44a233.46 233.46 0 0 0-.27-42.38 327.65 327.65 0 0 0-12.22-61.63c-6.63-22.73-16-47.05-26.59-72.14q-4-9.4-7.95-18.56c-2.62-6.08-5.22-12.11-8.13-17.86a333.91 333.91 0 0 0-18.59-32c-6.41-9.91-12.85-19.08-18.93-27.6s-11.95-16.36-17.58-23.27a264.66 264.66 0 0 0-29-30.6 232.31 232.31 0 0 0-8.65-7.49l-2.31-1.88a5.1 5.1 0 0 0-.78-.7Z" class="color57a542 svgShape"/><path fill="#57a542" d="M2251.63 960.28a15 15 0 0 0 .73-3.19c.39-2.07.86-5.07 1.39-8.8 1.06-7.44 2.17-17.78 3.35-29.17s2.43-21.69 3.6-29.1c.57-3.7 1.06-6.7 1.43-8.77a15 15 0 0 0 .42-3.24 15.2 15.2 0 0 0-.94 3.13c-.53 2-1.17 5-1.87 8.71-1.42 7.4-2.83 17.71-4 29.12-1.14 11.25-2.16 21.42-2.95 29.2-.37 3.51-.69 6.47-1 8.84a15.15 15.15 0 0 0-.16 3.27Z" class="color57a542 svgShape"/><path fill="#57a542" d="M2155.49 942.31a19.47 19.47 0 0 0 3.83.46c2.47.22 6 .52 10.44 1 8.81 1 20.92 2.69 34.21 5.19s25.21 5.33 33.78 7.6c4.29 1.11 7.74 2.1 10.13 2.77a20.65 20.65 0 0 0 3.75.92 20.65 20.65 0 0 0-3.59-1.44c-2.35-.83-5.76-2-10-3.2-8.52-2.52-20.45-5.48-33.78-8a338.2 338.2 0 0 0-34.37-4.8c-4.42-.39-8-.54-10.5-.59a19.94 19.94 0 0 0-3.9.09ZM2293.51 1067.12a4.54 4.54 0 0 0 .66-1.17l1.65-3.48c1.41-3 3.34-7.46 5.66-13 4.64-11 10.56-26.43 16.88-43.53s12.09-32.55 16.49-43.65c2.16-5.39 3.93-9.83 5.25-13.13.57-1.43 1-2.61 1.41-3.58a5.19 5.19 0 0 0 .41-1.28 4.54 4.54 0 0 0-.66 1.17c-.45.94-1 2.09-1.64 3.48-1.42 3-3.35 7.46-5.67 13-4.64 11-10.56 26.43-16.88 43.54s-12.09 32.55-16.49 43.65l-5.25 13.12c-.57 1.43-1 2.62-1.41 3.58a5.31 5.31 0 0 0-.41 1.28ZM2165.75 1025.94a5.06 5.06 0 0 0 1.27.53l3.71 1.24 13.68 4.43c11.55 3.75 27.45 9.11 45 15s33.52 11.16 45.16 14.67c5.81 1.76 10.53 3.13 13.81 4l3.79 1a4.83 4.83 0 0 0 1.34.25 5.1 5.1 0 0 0-1.27-.52l-3.71-1.25-13.68-4.43c-11.55-3.74-27.44-9.1-45-15.05s-33.51-11.16-45.14-14.67c-5.82-1.75-10.54-3.13-13.82-4l-3.78-1a5.14 5.14 0 0 0-1.36-.2Z" class="color57a542 svgShape"/><path fill="#83d35e" d="M2314.54 1139.68c-28.64-20-35.14-57.16-34-90.55.19-5.57-.42-11.45 2.23-16.34s8.84-8.23 13.83-5.88c4.14 1.95 5.94 6.76 8.26 10.74a32.58 32.58 0 0 0 13.07 12.49c3.55 1.84 7.94 3 11.44 1 4.81-2.65 5.38-9.29 5.34-14.83q-.09-15.51-.19-31c0-5.54-.05-11.2 1.67-16.46s5.53-10.15 10.81-11.63 11.79 1.56 12.91 7c.46 2.26 0 4.6.15 6.9s1.23 4.85 3.41 5.49 4.44-.92 6.09-2.54c5.72-5.6 9.61-12.81 13.24-20s7.15-14.51 12.34-20.62 12.37-10.94 20.31-11.39 16.4 4.45 18.4 12.25-2.54 15.74-7.51 22.07a123.65 123.65 0 0 1-25.76 24.55c-1.75 1.24-3.64 2.58-4.31 4.64-1.2 3.69 2.3 7.36 5.95 8.58 4.13 1.37 8.61.95 12.94 1.45s9 2.42 10.64 6.51c2.27 5.66-2.47 11.6-7.14 15.49a105.91 105.91 0 0 1-31.37 18.11c-4.07 1.49-8.37 2.8-11.65 5.66s-5.28 7.85-3.29 11.76 7.09 5.16 11.36 4.36 8.09-3.11 12.16-4.64c7.62-2.88 17.46-2.35 22.34 4.23 3.2 4.33 3.49 10.35 1.86 15.51s-4.91 9.6-8.4 13.7c-12.21 14.33-27.84 25.86-45.51 32s-34.05 7.78-51.61 1.36" class="color83d35e svgShape"/><path fill="#6bb14e" d="M2425.83 946.74s-.17.19-.53.53l-1.65 1.47c-1.45 1.28-3.59 3.17-6.28 5.69a207.07 207.07 0 0 0-21.18 22.85c-4.12 5.14-8.41 11-12.9 17.28s-9.22 13.14-13.93 20.48a251.86 251.86 0 0 0-13.68 23.69c-2.14 4.24-4 8.68-6 13.2l-5.88 13.75c-7.87 18.58-14.8 36.55-19.75 53.34a247.75 247.75 0 0 0-9.24 45.49 181.06 181.06 0 0 0-.52 31.31c.29 3.69.57 6.55.83 8.48.11.93.19 1.66.26 2.21a3.84 3.84 0 0 1 .05.75s3.61 33.44-.16-.74c-.08-.54-.2-1.27-.35-2.19-.33-1.93-.68-4.79-1-8.48a173.57 173.57 0 0 1 .2-31.42 243.28 243.28 0 0 1 9.06-45.68c4.91-16.85 11.83-34.88 19.72-53.48q3-7 5.89-13.75c1.94-4.51 3.86-9 6-13.24a247.28 247.28 0 0 1 13.78-23.76c4.75-7.34 9.53-14.14 14-20.46s8.85-12.12 13-17.24a196.22 196.22 0 0 1 21.46-22.69c2.74-2.47 4.92-4.32 6.42-5.55l1.71-1.39a5.06 5.06 0 0 1 .67-.45Z" class="color6bb14e svgShape"/><path fill="#6bb14e" d="M2355.08 1038.24a10.89 10.89 0 0 1-.54-2.37c-.29-1.53-.64-3.76-1-6.52-.78-5.52-1.61-13.18-2.48-21.62s-1.8-16.08-2.67-21.57c-.42-2.75-.79-5-1.06-6.5a10.63 10.63 0 0 1-.31-2.41 11.09 11.09 0 0 1 .69 2.32c.4 1.51.87 3.72 1.39 6.46 1 5.48 2.1 13.13 3 21.59s1.6 15.88 2.19 21.64c.28 2.6.51 4.8.7 6.56a11.26 11.26 0 0 1 .09 2.42ZM2426.35 1024.92a15.26 15.26 0 0 1-2.84.34c-1.83.16-4.48.38-7.74.76-6.53.71-15.51 2-25.36 3.85s-18.69 4-25 5.64c-3.18.82-5.74 1.55-7.51 2a15.26 15.26 0 0 1-2.78.68 15.84 15.84 0 0 1 2.66-1.07c1.74-.61 4.28-1.45 7.44-2.37 6.32-1.87 15.17-4.06 25.05-5.94a251.3 251.3 0 0 1 25.47-3.56c3.28-.29 6-.4 7.79-.44a15.16 15.16 0 0 1 2.82.11ZM2324 1117.44a3.6 3.6 0 0 1-.49-.87l-1.22-2.58c-1-2.24-2.48-5.53-4.2-9.61-3.44-8.17-7.83-19.6-12.51-32.27s-9-24.13-12.23-32.36c-1.6-4-2.91-7.29-3.89-9.73-.42-1.06-.76-1.94-1.05-2.65a3.63 3.63 0 0 1-.3-1 4.07 4.07 0 0 1 .49.87l1.22 2.58c1 2.24 2.48 5.53 4.2 9.61 3.44 8.17 7.83 19.59 12.51 32.27s9 24.13 12.23 32.36c1.6 4 2.91 7.29 3.89 9.73.42 1.06.76 1.94 1 2.65a4.18 4.18 0 0 1 .35 1ZM2418.74 1086.91a3.36 3.36 0 0 1-.94.39l-2.75.92-10.14 3.29c-8.56 2.78-20.34 6.75-33.36 11.15s-24.85 8.28-33.47 10.88c-4.31 1.3-7.81 2.32-10.24 3l-2.81.74a3.9 3.9 0 0 1-1 .19 3.36 3.36 0 0 1 .94-.39l2.75-.92 10.14-3.29c8.56-2.77 20.34-6.75 33.36-11.15s24.84-8.28 33.47-10.88c4.31-1.3 7.81-2.32 10.24-3l2.81-.74a3.83 3.83 0 0 1 1-.19Z" class="color6bb14e svgShape"/><path fill="#0e1c54" d="M2270.71 1297.01h80.37l31.76-132.87h-142.6l30.47 132.87z" class="color0e1c54 svgShape"/><path fill="#6bb14e" d="M296.35 1097.13c38.65-27 47.41-77.11 45.88-122.15-.25-7.52.58-15.45-3-22.05s-11.92-11.1-18.66-7.93c-5.58 2.63-8 9.12-11.14 14.49a43.88 43.88 0 0 1-17.63 16.84c-4.79 2.49-10.71 4-15.44 1.4-6.48-3.58-7.25-12.54-7.2-20l.26-41.81c.05-7.48.07-15.11-2.26-22.21S259.7 880 252.58 878s-15.91 2.11-17.41 9.43c-.63 3 0 6.21-.21 9.31s-1.66 6.54-4.6 7.4-6-1.24-8.22-3.43c-7.72-7.55-12.95-17.28-17.85-27s-9.64-19.58-16.65-27.81-16.64-14.7-27.4-15.31-22.12 6-24.83 16.52 3.44 21.24 10.13 29.77A167 167 0 0 0 180.3 910c2.36 1.67 4.91 3.48 5.81 6.25 1.63 5-3.1 9.94-8 11.58-5.57 1.85-11.62 1.27-17.45 2s-12.15 3.26-14.36 8.77c-3.06 7.64 3.33 15.66 9.62 20.9a143.06 143.06 0 0 0 42.32 24.43c5.5 2 11.29 3.78 15.73 7.65s7.11 10.58 4.43 15.85-9.56 7-15.32 5.89-10.92-4.2-16.41-6.27c-10.28-3.88-23.55-3.17-30.13 5.71-4.33 5.84-4.71 14-2.52 20.93s6.63 12.95 11.34 18.48c16.47 19.32 37.55 34.88 61.4 43.15s45.92 10.5 69.61 1.84" class="color6bb14e svgShape"/><path fill="#57a542" d="M146.22 836.85a5 5 0 0 0 .72.71l2.22 2c2 1.73 4.85 4.29 8.48 7.68a279.13 279.13 0 0 1 28.56 30.83c5.57 6.93 11.35 14.77 17.41 23.31S216 919.09 222.41 929a340.34 340.34 0 0 1 18.45 32c2.88 5.72 5.45 11.7 8.07 17.8l7.94 18.54c10.62 25.08 20 49.32 26.65 72a334.85 334.85 0 0 1 12.48 61.28 244.41 244.41 0 0 1 .7 42.23c-.39 5-.77 8.85-1.12 11.45-.15 1.25-.26 2.24-.35 3a6.1 6.1 0 0 0-.07 1s-4.87 45.11.21-1l.48-3c.44-2.6.91-6.46 1.38-11.44a234.21 234.21 0 0 0-.26-42.38 329.25 329.25 0 0 0-12.22-61.63c-6.63-22.73-16-47.05-26.6-72.14l-7.94-18.56c-2.63-6.08-5.23-12.11-8.13-17.86a336.05 336.05 0 0 0-18.6-32c-6.4-9.91-12.84-19.08-18.93-27.6s-11.97-16.36-17.55-23.27a265.52 265.52 0 0 0-29-30.6c-3.69-3.34-6.64-5.83-8.66-7.49l-2.34-1.88a6.1 6.1 0 0 0-.78-.6Z" class="color57a542 svgShape"/><path fill="#57a542" d="M241.66 960.28a14.53 14.53 0 0 0 .74-3.19c.39-2.07.86-5.07 1.38-8.8 1.06-7.44 2.17-17.78 3.35-29.17s2.43-21.69 3.6-29.1c.57-3.7 1.07-6.7 1.44-8.77a14.47 14.47 0 0 0 .41-3.24 15.2 15.2 0 0 0-.94 3.13c-.53 2-1.17 5-1.87 8.71-1.41 7.4-2.83 17.71-4 29.12-1.13 11.25-2.16 21.42-2.94 29.2-.38 3.51-.7 6.47-.95 8.84a15.7 15.7 0 0 0-.22 3.27Z" class="color57a542 svgShape"/><path fill="#57a542" d="M145.52 942.31a19.8 19.8 0 0 0 3.83.46c2.47.22 6 .52 10.44 1 8.81 1 20.93 2.69 34.21 5.19s25.21 5.33 33.78 7.6c4.29 1.11 7.74 2.1 10.13 2.77a20.65 20.65 0 0 0 3.75.92 20.65 20.65 0 0 0-3.59-1.44c-2.34-.83-5.76-2-10-3.2-8.53-2.52-20.46-5.48-33.79-8a338.44 338.44 0 0 0-34.36-4.8c-4.43-.39-8-.54-10.51-.59a20 20 0 0 0-3.89.09ZM283.55 1067.12a5.2 5.2 0 0 0 .65-1.17l1.65-3.48c1.41-3 3.35-7.46 5.66-13 4.64-11 10.57-26.43 16.88-43.53s12.09-32.55 16.5-43.65c2.15-5.39 3.93-9.83 5.25-13.13l1.41-3.58a4.83 4.83 0 0 0 .4-1.28 4.94 4.94 0 0 0-.66 1.17c-.44.94-1 2.09-1.64 3.48-1.42 3-3.35 7.46-5.66 13-4.64 11-10.57 26.43-16.89 43.54s-12.1 32.51-16.49 43.64l-5.25 13.12-1.41 3.58a4.48 4.48 0 0 0-.4 1.29ZM155.78 1025.94a5.06 5.06 0 0 0 1.27.53l3.71 1.24 13.68 4.43c11.56 3.75 27.45 9.11 45 15s33.52 11.16 45.15 14.67c5.82 1.76 10.53 3.13 13.82 4l3.78 1a4.81 4.81 0 0 0 1.35.25 5.34 5.34 0 0 0-1.27-.52l-3.71-1.25-13.68-4.43c-11.55-3.74-27.45-9.1-45-15.05s-33.52-11.16-45.15-14.67c-5.81-1.75-10.53-3.13-13.82-4l-3.78-1a5.14 5.14 0 0 0-1.35-.2Z" class="color57a542 svgShape"/><path fill="#83d35e" d="M304.57 1139.68c-28.64-20-35.14-57.16-34-90.55.19-5.57-.42-11.45 2.23-16.34s8.84-8.23 13.83-5.88c4.14 1.95 5.94 6.76 8.26 10.74a32.58 32.58 0 0 0 13.11 12.49c3.55 1.84 7.94 3 11.44 1 4.81-2.65 5.38-9.29 5.34-14.83q-.09-15.51-.19-31c0-5.54-.05-11.2 1.67-16.46s5.54-10.15 10.81-11.63 11.8 1.56 12.91 7c.46 2.26 0 4.6.16 6.9s1.22 4.85 3.41 5.49 4.43-.92 6.09-2.54c5.72-5.6 9.6-12.81 13.23-20s7.15-14.51 12.34-20.62 12.37-10.94 20.31-11.39 16.4 4.45 18.41 12.25-2.55 15.74-7.51 22.07A123.7 123.7 0 0 1 390.6 1001c-1.74 1.24-3.64 2.58-4.31 4.64-1.2 3.69 2.3 7.36 5.95 8.58 4.13 1.37 8.62.95 12.94 1.45s9 2.42 10.64 6.51c2.27 5.66-2.47 11.6-7.13 15.49a106.16 106.16 0 0 1-31.37 18.11c-4.08 1.49-8.37 2.8-11.66 5.66s-5.27 7.85-3.29 11.76 7.09 5.16 11.36 4.36 8.1-3.11 12.17-4.64c7.61-2.88 17.45-2.35 22.33 4.23 3.21 4.33 3.49 10.35 1.87 15.51s-4.91 9.6-8.41 13.7c-12.21 14.33-27.84 25.86-45.51 32s-34 7.78-51.61 1.36" class="color83d35e svgShape"/><path fill="#6bb14e" d="M415.87 946.74a3.84 3.84 0 0 1-.54.53l-1.65 1.47c-1.45 1.28-3.59 3.17-6.28 5.69a207.16 207.16 0 0 0-21.17 22.85c-4.13 5.14-8.41 11-12.9 17.28s-9.22 13.14-13.94 20.48a251.86 251.86 0 0 0-13.68 23.69c-2.13 4.24-4 8.68-6 13.2s-3.9 9.1-5.88 13.75c-7.83 18.58-14.83 36.55-19.74 53.32a247.75 247.75 0 0 0-9.24 45.49 181.06 181.06 0 0 0-.52 31.31c.29 3.69.57 6.55.84 8.48.1.93.19 1.66.25 2.21a6.91 6.91 0 0 1 .06.75s3.6 33.44-.16-.74l-.36-2.19c-.32-1.93-.67-4.79-1-8.48a172.65 172.65 0 0 1 .2-31.42 244 244 0 0 1 9.05-45.68c4.92-16.85 11.84-34.88 19.72-53.48l5.89-13.75c1.94-4.51 3.87-9 6-13.24a247.31 247.31 0 0 1 13.79-23.76c4.75-7.34 9.52-14.14 14-20.46s8.86-12.12 13-17.24a196.14 196.14 0 0 1 21.47-22.69c2.73-2.47 4.91-4.32 6.41-5.55l1.71-1.39a4.57 4.57 0 0 1 .67-.43Z" class="color6bb14e svgShape"/><path fill="#6bb14e" d="M345.11 1038.24a12.63 12.63 0 0 1-.54-2.37c-.29-1.53-.64-3.76-1-6.52-.78-5.52-1.6-13.18-2.48-21.62s-1.8-16.08-2.67-21.57c-.42-2.75-.79-5-1.06-6.5a11.42 11.42 0 0 1-.31-2.41 11.41 11.41 0 0 1 .7 2.32c.39 1.51.87 3.72 1.38 6.46 1 5.48 2.1 13.13 3 21.59l2.18 21.64c.28 2.6.52 4.8.71 6.56a10.05 10.05 0 0 1 .09 2.42ZM416.39 1024.92a15.48 15.48 0 0 1-2.85.34c-1.83.16-4.47.38-7.74.76-6.52.71-15.51 2-25.35 3.85s-18.69 4-25 5.64c-3.19.82-5.74 1.55-7.51 2a15 15 0 0 1-2.79.68 15.77 15.77 0 0 1 2.67-1.07c1.74-.61 4.27-1.45 7.44-2.37 6.32-1.87 15.16-4.06 25-5.94a251.45 251.45 0 0 1 25.48-3.56c3.28-.29 5.94-.4 7.78-.44a15.38 15.38 0 0 1 2.87.11ZM314.07 1117.44a4.07 4.07 0 0 1-.49-.87l-1.22-2.58c-1.05-2.24-2.48-5.53-4.2-9.61-3.43-8.17-7.83-19.6-12.51-32.27s-9-24.13-12.23-32.36c-1.59-4-2.91-7.29-3.89-9.73a59.01 59.01 0 0 1-1-2.65 3.2 3.2 0 0 1-.3-1 4.41 4.41 0 0 1 .48.87c.33.7.74 1.55 1.22 2.58 1.05 2.24 2.48 5.53 4.2 9.61 3.44 8.17 7.83 19.59 12.51 32.27s9 24.13 12.23 32.36c1.6 4 2.92 7.29 3.89 9.73l1 2.65a3.63 3.63 0 0 1 .31 1ZM408.78 1086.91a3.56 3.56 0 0 1-.94.39l-2.75.92-10.15 3.29c-8.56 2.78-20.34 6.75-33.36 11.15s-24.84 8.28-33.47 10.88c-4.31 1.3-7.81 2.32-10.24 3l-2.8.74a3.93 3.93 0 0 1-1 .19 3.36 3.36 0 0 1 .94-.39l2.75-.92 10.14-3.29c8.56-2.77 20.35-6.75 33.36-11.15s24.85-8.28 33.47-10.88c4.31-1.3 7.81-2.32 10.24-3l2.81-.74a3.86 3.86 0 0 1 1-.19Z" class="color6bb14e svgShape"/><path fill="#0e1c54" d="M260.74 1297.01h80.38l31.76-132.87h-142.6l30.46 132.87z" class="color0e1c54 svgShape"/><path fill="#1f2b73" d="M3763.43 1081.85c0 144.9 53.71 361.73 65.93 416.79 14.27 2.81 29.11 4.66 38.93 5.7q2.41-7.54 5.26-17c18.33-61 48.58-180 68.57-341.55a663 663 0 0 0 4.88-68.14c-72.38 30.88-151.42 13.63-183.57 4.2Z" class="color1f2b73 svgShape"/><path fill="#0e1c54" d="M3851.74 1505.24v-3c0-.4.22-.74.51-.75s.52.3.52.71v3Zm.43-6.75c-.28 0-.5-.32-.51-.71v-4.42c0-.4.22-.74.51-.75s.52.31.52.72v4.41c0 .4-.23.74-.51.75Zm-.07-8.82c-.28 0-.5-.33-.5-.72v-4.42c0-.41.23-.74.52-.75.28 0 .51.32.51.72v4.41c0 .41-.23.75-.51.76Zm0-8.83c-.28 0-.51-.33-.51-.72v-4.42c0-.41.23-.74.52-.75s.52.32.52.73v4.41c0 .4-.23.74-.52.75Zm0-8.83c-.28 0-.51-.32-.51-.72v-4.42c0-.41.23-.74.52-.74s.52.31.52.72v4.41c0 .41-.23.74-.52.75Zm0-8.83c-.28 0-.51-.32-.51-.72v-4.42c0-.4.23-.74.52-.74.28 0 .5.32.5.73v4.41c0 .4-.24.74-.52.74Zm0-8.82c-.28 0-.5-.33-.5-.73v-4.42c0-.4.24-.74.52-.74s.51.33.51.73v4.41c0 .41-.23.74-.52.75Zm0-8.83c-.28 0-.51-.33-.51-.73v-4.42c0-.4.24-.73.53-.74s.51.33.51.73v4.42c0 .4-.24.73-.52.74Zm0-8.83c-.28 0-.51-.33-.51-.73v-4.42c0-.4.24-.73.53-.73.28 0 .5.33.5.73v4.41c0 .41-.24.74-.52.74Zm.07-8.83c-.29 0-.51-.33-.51-.73v-4.42c0-.4.24-.73.53-.73.29 0 .51.33.51.73v4.42c0 .4-.24.73-.53.73Zm.08-8.82c-.28 0-.51-.34-.5-.74v-4.41c0-.41.24-.74.53-.74a.65.65 0 0 1 .51.74v4.41c0 .41-.24.74-.52.74Zm.1-8.83c-.28 0-.51-.33-.5-.74l.05-4.41c0-.41.24-.74.53-.73.29 0 .51.33.51.73l-.06 4.42c0 .4-.24.73-.52.73Zm.12-8.83c-.29 0-.51-.33-.51-.74l.07-4.41c0-.41.24-.73.53-.73.28 0 .51.33.5.74l-.06 4.41c0 .41-.24.73-.53.73Zm.13-8.82c-.28 0-.51-.34-.5-.75l.07-4.41c0-.41.24-.73.53-.73s.51.34.51.75l-.08 4.41c0 .4-.24.73-.53.73Zm.15-8.83c-.28 0-.51-.34-.5-.74l.08-4.42c0-.4.24-.73.53-.72.29 0 .51.34.5.74l-.08 4.41c.04.41-.2.74-.49.73Zm.17-8.82c-.29 0-.51-.34-.51-.75l.09-4.41c0-.41.25-.73.53-.73s.51.34.5.75l-.09 4.41c.04.41-.2.73-.44.73Zm.18-8.83c-.29 0-.51-.34-.5-.75l.1-4.41c0-.41.24-.73.53-.72.29 0 .51.34.5.75l-.1 4.41c.03.4-.2.72-.49.72Zm.2-8.83c-.29 0-.51-.34-.5-.74 0-1.47.07-2.94.1-4.42 0-.4.25-.72.54-.72.29 0 .51.35.5.75 0 1.48-.07 2.95-.11 4.41.04.46-.2.73-.49.72Zm.22-8.82c-.28 0-.5-.35-.49-.75 0-1.47.07-2.94.11-4.41 0-.41.25-.73.53-.72.28 0 .51.34.5.75l-.12 4.41c.03.4-.21.72-.49.72Zm.24-8.82c-.29 0-.51-.35-.5-.76l.12-4.41c0-.41.24-.72.54-.72s.51.35.5.76l-.12 4.41c.02.4-.22.72-.5.72Zm.25-8.83c-.29 0-.51-.35-.5-.75l.14-4.42c0-.4.24-.71.53-.71.28 0 .5.35.49.76l-.13 4.41c.03.4-.21.72-.49.71Zm.27-8.82c-.29 0-.51-.35-.5-.76l.15-4.41c0-.4.25-.72.53-.71.28 0 .5.35.49.76l-.14 4.41c.03.4-.21.74-.49.74Zm.29-8.82c-.29 0-.51-.36-.5-.76l.15-4.41c0-.41.27-.74.55-.71s.5.35.49.76l-.15 4.41c.01.4-.22.71-.5.71Zm.31-8.82c-.28 0-.5-.36-.49-.76l.16-4.42c0-.4.26-.73.55-.7s.5.36.49.76l-.16 4.41c0 .38-.23.71-.51.71Zm.32-8.82c-.29 0-.51-.36-.49-.77l.17-4.41c0-.4.25-.73.54-.7s.51.36.49.76l-.17 4.41c.02.4-.22.71-.5.71Zm.35-8.82c-.28 0-.5-.36-.49-.77l.19-4.41c0-.4.28-.72.54-.7s.51.36.49.77l-.18 4.41c0 .39-.23.7-.51.7Zm.37-8.82c-.29 0-.51-.36-.49-.77.06-1.46.13-2.93.19-4.41 0-.4.29-.73.55-.7s.5.37.49.77c-.07 1.48-.13 2.94-.19 4.41 0 .4-.24.71-.47.7Zm.38-8.81c-.28 0-.5-.36-.48-.77.06-1.46.13-2.93.2-4.41 0-.4.28-.7.55-.69s.5.37.48.77c-.06 1.47-.13 2.94-.2 4.41 0 .38-.23.69-.51.69Zm.41-8.82c-.29 0-.5-.37-.48-.77l.21-4.41c0-.4.25-.7.53-.7.29 0 .5.36.48.77l-.21 4.41c.02.4-.24.71-.49.7Zm.43-8.81c-.29 0-.5-.37-.48-.78.07-1.47.14-2.94.22-4.41 0-.4.27-.71.55-.69s.5.38.48.78c-.07 1.47-.15 2.94-.22 4.4 0 .4-.23.7-.51.7Zm.45-8.81c-.29 0-.5-.38-.48-.78.08-1.48.15-2.95.23-4.43 0-.4.26-.72.56-.68s.5.37.48.78l-.24 4.42c0 .39-.23.69-.51.69Zm.48-8.84c-.28 0-.5-.38-.47-.79l.24-4.42c0-.4.28-.7.56-.68s.5.38.48.78c-.09 1.48-.17 2.95-.25 4.42-.01.39-.25.69-.52.69Zm.5-8.84c-.29 0-.5-.38-.47-.78.08-1.47.17-3 .26-4.42 0-.4.27-.71.56-.68s.49.38.47.79c-.09 1.47-.18 2.94-.26 4.41-.01.39-.25.74-.52.68Zm.53-8.82c-.28 0-.49-.39-.47-.79l.27-4.41c0-.41.27-.71.56-.68s.5.38.48.79c-.1 1.47-.19 2.94-.28 4.41-.02.38-.25.68-.52.68Zm.55-8.82c-.28 0-.49-.39-.47-.79.09-1.47.19-2.94.29-4.41 0-.4.28-.71.56-.67s.49.38.47.79c-.1 1.46-.19 2.93-.29 4.4-.02.38-.21.68-.52.68Zm.57-8.81c-.28 0-.49-.39-.46-.79.1-1.47.19-2.94.3-4.41 0-.4.27-.7.56-.67s.49.39.47.79l-.3 4.4c-.03.39-.26.68-.53.68Zm.6-8.8a.7.7 0 0 1-.46-.8c.1-1.47.21-2.93.31-4.4 0-.4.29-.7.57-.67s.49.4.46.8c-.1 1.47-.21 2.93-.31 4.4-.03.38-.26.67-.53.67Zm.63-8.79c-.28 0-.49-.39-.46-.79l.33-4.4c0-.4.28-.71.57-.66s.49.39.46.8l-.33 4.39c-.02.37-.26.66-.53.66Zm.66-8.79c-.29 0-.49-.4-.46-.8.11-1.47.23-2.93.34-4.39 0-.41.29-.7.57-.66s.49.4.46.8c-.11 1.46-.23 2.93-.34 4.39-.03.38-.26.67-.53.66Zm.69-8.77c-.29 0-.49-.4-.46-.81l.36-4.38c0-.41.3-.7.57-.66s.49.4.46.81l-.36 4.38c-.03.38-.26.66-.53.66Zm.72-8.76c-.29 0-.49-.4-.46-.81.13-1.46.25-2.92.37-4.38 0-.4.3-.7.58-.65a.7.7 0 0 1 .45.81c-.12 1.46-.25 2.92-.37 4.38-.03.37-.26.65-.53.65Zm.76-8.76h-.06a.72.72 0 0 1-.45-.81l.39-4.38c0-.4.3-.69.58-.65a.71.71 0 0 1 .45.82l-.39 4.37c.01.38-.22.66-.48.65Zm.78-8.74c-.28 0-.48-.42-.45-.82.14-1.46.27-2.92.41-4.37 0-.4.3-.69.58-.64s.48.41.45.81c-.14 1.46-.28 2.91-.41 4.37-.04.38-.27.65-.54.65Zm.83-8.73h-.06a.71.71 0 0 1-.44-.82l.42-4.38c0-.4.31-.69.59-.64s.48.42.44.83c-.14 1.45-.29 2.91-.43 4.37.01.37-.22.64-.48.64Zm.86-8.76h-.06a.74.74 0 0 1-.44-.83l.45-4.38c0-.4.29-.68.59-.63s.47.42.43.83c-.15 1.45-.3 2.91-.44 4.37 0 .37-.23.65-.49.64Zm.91-8.75h-.07a.73.73 0 0 1-.43-.83c.15-1.46.31-2.92.46-4.38.05-.4.31-.68.59-.62s.48.42.44.83c-.16 1.45-.32 2.91-.47 4.37 0 .37-.18.64-.48.63Zm.94-8.74h-.07c-.28 0-.47-.43-.43-.83.16-1.46.33-2.92.49-4.37 0-.4.31-.68.6-.62a.74.74 0 0 1 .43.83c-.17 1.46-.33 2.91-.49 4.37-.01.36-.23.62-.49.62Zm1-8.73h-.07a.74.74 0 0 1-.43-.84c.17-1.45.34-2.91.52-4.36 0-.4.31-.68.59-.62a.73.73 0 0 1 .43.84c-.17 1.45-.35 2.91-.51 4.36-.02.36-.24.62-.5.62Z" class="color0e1c54 svgShape"/><path fill="#0e1c54" d="M3848.94 1505.3c-4-49.45 4.43-307.59 15.29-417.93l1 .18c-10.85 110.26-19.31 368.17-15.28 417.56Z" class="color0e1c54 svgShape"/><path fill="#0e1c54" d="M3796.71 1535.34c3.43.26 59.71-1.13 61.12-2 .59-.35 4.49-10.32 10.46-29-3.42-.36-7.44-.82-11.84-1.39-8.24-1-17.79-2.48-27.09-4.31 1.66 7.54 2.55 12 2.43 12.92-1.11 7.72-44.19 23.07-35.08 23.78ZM3817.7 758c-13.42 83.36-116.6 231.6-146.43 240.18l28.92 26.75s146-46.57 169-107S3817.7 758 3817.7 758Z" class="color0e1c54 svgShape"/><path fill="#0e53e4" d="M3935.32 683.74c-9.71 27.81-38.37 25.5-36.29 54.16s23.12 29.64 18.49 42.09-8.09 4.56-3.93 15.32 1.41 23.69-6.1 27.69-96.29-72.12-98.37-99.62c-2.06-27.14 4.56-45.2 4.73-45.69s36.15-23.38 56.62-41.57a62.52 62.52 0 0 0 11.22 4c42.54 11.33 63.31 15.88 53.63 43.62Z" class="color0e53e4 svgShape"/><path fill="#0e47bc" d="M3827.15 672c3.23 5.32 5.34 22.19 1.63 31.21s4.61 35.32 20.09 41.47 24.33 29.09 24.33 29.09-47.07 8-60.66-20.64-16.12-81.8 14.61-81.13Z" class="color0e47bc svgShape"/><path fill="#0e53e4" d="M3810.5 796.3c-12.17-.92-26-4.31-32.05-15.57a14.11 14.11 0 0 0-4.84-5.28c-7.31-4.79-18.91-4-30.6-14.13-14.79-12.79-9.09-29.43-2-44s-6.16-17.53-4.46-34c1.11-10.84 9.28-23.14 21.74-30.29a45.12 45.12 0 0 1 22.64-6.08s41.75 150.28 29.57 149.35Z" class="color0e53e4 svgShape"/><path fill="#0e47bc" d="M3776.25 645c-15.67 11.55-4 31.8-12.78 40.78s10.63 25.66 2.64 43.83.63 32.5 11.26 36.66 15.49 25.82 27.47 22.78-14-68.57-11.32-95.91-17.27-48.14-17.27-48.14Z" class="color0e47bc svgShape"/><path fill="#feb3b0" d="M3830.3 758.24c-4 4.44-16.81 14.52-25.86 21.48l-6.12 4.64-3.38 2.53a105.23 105.23 0 0 0 1.75-15.25A122 122 0 0 0 3795 745a60.53 60.53 0 0 0-1.84-7.63 13.92 13.92 0 0 0-2.43-5.06c-2.87-3-6.28 2.06-12.7 2.85a15 15 0 0 1-6.67-.79c-.47-.15-1-.35-1.47-.56-6.77-2.92-5-14.8-2.29-24.82 2.13-7.84 4.9-14.54 4.69-15-.35-.79-5.08-.52-7.45-.77a2.35 2.35 0 0 1-1.33-.37c-.62-.85 6.38-8.32 9.16-11.87a5.59 5.59 0 0 0 .48-.76c1.6-3 2.81-10.16 3.09-18.42.09-2.45.11-5 0-7.57-.07-2.1-.19-4.22-.4-6.3 0 0 29.27 12.56 31.26 13.63s6 23.12 6 23.12.4 6.2 1.54 14.79a210.38 210.38 0 0 0 4.22 22.9c.12.54.26 1.08.4 1.61 4.79 18.17 11 23 11 23s6.44 4.17.04 11.26Z" class="colorfeb3b0 svgShape"/><path fill="#f99393" d="M3793.17 737.3a14.18 14.18 0 0 0-2.43-5.06c-2.89-3-6.29 2.06-12.72 2.86a56.74 56.74 0 0 0 13.35-9.05c1.39-1.5 1.68 8.57 1.8 11.25ZM3803.73 672s-20.57-2.15-27.48-10.32c.08-2.45.09-5 0-7.57a3.52 3.52 0 0 1 3.12-1.91c5.01-.13 24.36 19.8 24.36 19.8Z" class="colorf99393 svgShape"/><path fill="#0e53e4" d="M3870.48 636.07c-20.47 18.19-56.62 41.57-56.62 41.57-2.25-.69-4.43-1.41-6.56-2.18-20.23-7.3-35.31-18.41-43.26-37.65-8.78-21.26 19.88-59.4 59.18-49a48.87 48.87 0 0 1 12.36 4.92c19.42 11.27 11.65 31.05 34.9 42.34Z" class="color0e53e4 svgShape"/><path fill="#feb3b0" d="M3819.18 687.7c-3.62 1.82-7 3.34-7.66 5.36-.34 1.09-.83 1-1.38.3-2.06-2.73-5-14.87-5-14.87 6.48-10.24 19.11-15.79 23.12-4.08 2.38 7.05-3.59 10.53-9.08 13.29Z" class="colorfeb3b0 svgShape"/><path fill="#f99393" d="M3810.1 683.19c-.76-5.52 5.72-5.78 6.07-3.47s-3.58 2.14-4.62 4-.87 3.63-1.45-.53Z" class="colorf99393 svgShape"/><path fill="#ffffff" d="M3794.21 1058.41c-3.87 30.23-7.41 49.89-9.83 48.86-5.2-2.24-14.6-3.41-22.93-3.76-7.22-.3-13.64 0-15.9.75-4.85 1.62-3.7.93 0-23.51s28-170.88 31.21-179.9 6.7-52.7 8.55-61.94 8.4-58.56 8.94-61.41l.54-.29c1.63-.48 2.77 2.64 2.77 2.64a50.49 50.49 0 0 1 5.17-2.81c4.34-2 10.37-4 13.75-1.67 4.32 3.01-10.48 191.48-22.27 283.04Z" class="colorfff svgShape"/><path fill="#ebeff2" d="M3794.21 1058.41c-3.87 30.23-7.41 49.89-9.83 48.86-5.2-2.24-14.6-3.41-22.93-3.76 7.4-18.58 2.64-52.6 6.52-72.25 4.16-21.07 7.24-76.23 11.71-87.49s10.3-87.33 15.12-109.85 7.76-49.63 6.3-52.26-3.34-1.88-3.52-1.81c.3-.28 3.27-2.94 4.7-3a1.12 1.12 0 0 1 .47.14c2.43 1.22 10.87 9.67 11.7 16.43.69 5.58-13.38 180.5-20.24 264.99Z" class="colorebeff2 svgShape"/><path fill="#0e1c54" d="M3947 1145.82c-10.94-2.24-81.89-40.44-117.58-33a94.48 94.48 0 0 0-10.11 2.66c-5 1.63-9.44 3.23-13.38 4.79-24.24 9.54-46.58 19.09-49.17 16.9-3-2.55 15.71-150.55 26.8-215.89s20-104.16 21.27-121.12-2.39-23.65-7.24-20.3c0 0 2.63-6.25 8.45-8.23a9.38 9.38 0 0 1 1.43-.38c2.59-.51 9.73-2.51 17.59-4.78 12.86-3.73 27.65-8.22 27.65-8.22 49.51 21.88 90.5 97.08 103.45 155.63s2.84 234.41-9.16 231.94Z" class="color0e1c54 svgShape"/><path fill="#ffffff" d="M3796.71 760.87c-3.16 4.92-13 26.44-12.13 27.45s4.27-15.74 13-8.47Z" class="colorfff svgShape"/><path fill="#f99393" d="M3830.3 758.24c-4 4.44-16.81 14.52-25.86 21.48l-6.12 4.64a15.08 15.08 0 0 1 0-6c1.49-7.07 7.56-10.71 14.82-20.17 5.63-7.37 7-21.49 5.76-36 .12.54.26 1.08.4 1.61 4.79 18.17 11 23 11 23s6.4 4.35 0 11.44Z" class="colorf99393 svgShape"/><path fill="#ffffff" d="M3852.68 758.24c-.22 1.38-31.65 20.34-35.35 24.39a29.72 29.72 0 0 0-3.64 5.69c-2.53 4.77-4.52 9.58-3.65 5.4 1.28-6.13 1.28-18.15-2.77-20.12s-5.66.59-9.71 6.25c2.88-7.17 11.91-11.79 17.46-17.22a52.33 52.33 0 0 0 5.24-6.32c3.91-5.35 7.49-11.19 8.85-11.59 1.97-.58 23.81 12.13 23.57 13.52Z" class="colorfff svgShape"/><path fill="#fa993b" d="m3834.54 1081.44-111 40.92a7.58 7.58 0 0 1-7-1.09 10.26 10.26 0 0 1-3.69-4.87l-65.93-178.88a9.89 9.89 0 0 1 .24-7.71 7.29 7.29 0 0 1 4-3.76l111-40.92a7.68 7.68 0 0 1 7.33 1.32 10.21 10.21 0 0 1 3.37 4.64l65.96 178.91a10 10 0 0 1 0 7.27 7.34 7.34 0 0 1-4.28 4.17Z" class="colorfa993b svgShape"/><path fill="#ffffff" d="M3684.04 912.76h118.82v185.17h-118.82z" transform="rotate(-20.23 3744.32 1005.436)" class="colorfff svgShape"/><path fill="#ff790b" d="M3739.72 913.87c2.57-1 3.76-4.15 2.66-7.15l-4.58-12.43c-1.11-3-4.09-4.66-6.67-3.71l-14.05 5.18c-3.63-5.77-10.2-8.62-16-6.48s-8.93 8.56-8 15.3l-14.8 5.46c-2.58 1-3.77 4.15-2.66 7.15l4.58 12.43c1.1 3 4.09 4.66 6.66 3.71m22-22.73c-3.31 1.22-7.14-.91-8.55-4.76s.11-8 3.41-9.17 7.13.91 8.55 4.76-.01 7.95-3.27 9.17Z" class="colorff790b svgShape"/><path fill="#fa993b" d="m3730.34 888.44-14.05 5.17c-3.63-5.76-10.2-8.61-16-6.48s-8.93 8.56-8 15.31l-14.8 5.46c-2.58.94-3.77 4.15-2.66 7.14l4.58 12.43c1.1 3 4.09 4.66 6.66 3.71l52.8-19.46c2.57-1 3.76-4.15 2.66-7.14l-4.53-12.43c-1.1-3-4.08-4.66-6.66-3.71Zm-22.17 20c-3.31 1.21-7.14-.92-8.55-4.76s.11-8 3.41-9.17 7.13.91 8.55 4.76-.11 7.97-3.41 9.19Z" class="colorfa993b svgShape"/><path fill="#ebeff2" d="M3764.09 1065.26h40.93v3.71h-40.93z" transform="rotate(-20.23 3785.443 1067.198)" class="colorebeff2 svgShape"/><rect width="22.68" height="26.4" x="3681.89" y="951.99" fill="#ebeff2" rx="4.81" transform="rotate(-20.23 3694.08 965.27)" class="colorebeff2 svgShape"/><path fill="#ebeff2" d="M3706.8 941.56h67.24v4.53h-67.24z" transform="rotate(-20.23 3741.277 943.873)" class="colorebeff2 svgShape"/><path fill="#ebeff2" d="M3710.78 956.41h32.39v2.65h-32.39z" transform="rotate(-20.23 3727.835 957.786)" class="colorebeff2 svgShape"/><path fill="#ebeff2" d="M3698.84 1013.39h96.93v4.53h-96.93z" transform="rotate(-20.23 3748.182 1015.726)" class="colorebeff2 svgShape"/><path fill="#ebeff2" d="M3713.56 996.47h54.92v4.29h-54.92z" transform="rotate(-20.23 3741.884 998.668)" class="colorebeff2 svgShape"/><path fill="#ebeff2" d="M3698.89 979.63h74.31v10.97h-74.31z" transform="rotate(-20.23 3736.917 985.173)" class="colorebeff2 svgShape"/><path fill="#ebeff2" d="M3703.52 1026.08h96.93v4.53h-96.93z" transform="rotate(-20.23 3752.858 1028.417)" class="colorebeff2 svgShape"/><path fill="#ebeff2" d="M3708.26 1038.95h96.93v4.53h-96.93z" transform="rotate(-20.23 3757.589 1041.292)" class="colorebeff2 svgShape"/><path fill="#ebeff2" d="M3719.14 1052.58h85.22v4.53h-85.22z" transform="rotate(-20.23 3762.615 1054.942)" class="colorebeff2 svgShape"/><path fill="#feb3b0" d="M3684.66 1081.91a130.62 130.62 0 0 1-21.84 3c-14.45.86-27.61-.43-26.63-4.37 1.77-7.08 18.65-21.36 39.24-26.57a23.79 23.79 0 0 0 .28 3.83c1.13 8.07 5.5 18.2 8.95 24.11Z" class="colorfeb3b0 svgShape"/><path fill="#1f2b73" d="M3944.66 991.91c-3.72 48-97 70.83-168.1 81.37-23.8 3.53-45.13 5.68-59.8 7-1.09-8-8-33.15-10.15-40.66 37.06-10.8 105.5-31.48 115.59-70.94 13.41-52.5 9.34-143.46 38.5-176.71 11.45-13.16 89.8 124.52 83.96 199.94Z" class="color1f2b73 svgShape"/><path fill="#1f2b73" d="M3716.79 1082.61c-1.31 2.62-26 4.65-28.14 4.37-.74-.1-2.24-2.06-4-5.07-3.45-6-7.82-16-9-24.09a23.79 23.79 0 0 1-.28-3.83c0-8.4 5.37-8.86 5.37-8.86 3.8-1.89 25.23-7.73 25.23-7.73s.23.77.6 2.14c2.11 7.48 9.08 32.66 10.16 40.69a5.66 5.66 0 0 1 .06 2.38Z" class="color1f2b73 svgShape"/><path fill="#f99393" d="M3675.4 1054a23.79 23.79 0 0 0 .28 3.83c1.16 8 5.53 18.14 9 24.09a130.62 130.62 0 0 1-21.84 3c5.06-1.74 10.61-3.73 12.58-4.69 3.94-1.94-2.96-11.18-.02-26.23Z" class="colorf99393 svgShape"/><path fill="#0e1c54" d="M3776.56 1073.28c-23.8 3.53-45.13 5.68-59.8 7-1.09-8-8-33.15-10.15-40.66.48 1 15.74 31.67 22.83 32.65 4.15.52 27.77.85 47.12 1.01Z" class="color0e1c54 svgShape"/><circle cx="3702.07" cy="1073.46" r="5.97" fill="#0e1c54" class="color0e1c54 svgShape"/><path fill="#0e53e4" d="M3361.86 727.67c-12 28.38-64.85 109.2-113.64 99.34s-22.84-60.22 14-77.59S3306.88 744 3304 678a80.38 80.38 0 0 1 14.68-49.42l48.41 35.58s6.75 35.15-5.23 63.51Z" class="color0e53e4 svgShape"/><path fill="#0e47bc" d="M3352.71 671.43c1.82 23.36-12.26 43.6-34 59.69s-50.73 47-51.43 57.37 14.6 14.76 23.69 11.14 72.58-68.34 75.22-85.43-13.48-42.77-13.48-42.77Z" class="color0e47bc svgShape"/><path fill="#1f2b73" d="M3534.62 836.74C3502.73 863.52 3433.08 920.39 3377 940c-16.44 5.77-31.73 8.33-44.55 6a38.57 38.57 0 0 1-22.6-12.34c-50.3-56.38-15.41-111.28-11.39-117.19.24-.34.38-.52.38-.52l2.86-1 54.56-22.75v1.4c.2 6.36.54 12.5 1.08 18.3 2.61 28.23 13.49 51.26 32.26 52.26 11.1.61 60.7-19.83 110-41l.16-.06c7.15-3.07 14.32-6.16 21.34-9.22 2.49 5.45 9.89 18.45 13.51 22.83Z" class="color1f2b73 svgShape"/><path fill="#0e1c54" d="M3377 940c-16.44 5.77-31.73 8.33-44.55 6a38.57 38.57 0 0 1-22.6-12.34c-50.3-56.38-15.41-111.28-11.39-117.19.24-.34.38-.52.38-.52l2.86-1 54.56-22.75v1.4c-7.46 29.83-15.87 96.68-7 126.39 3.36 11.01 14.58 16.94 27.74 20.01Z" class="color0e1c54 svgShape"/><path fill="#feb3b0" d="M3580.46 808.58c-1.69 3.16-18.45 8.74-29.05 13-1.67.67-3.18 1.31-4.46 1.91l-10.74-15.87s6.5-7.08 12.07-13.52c3.62-4.15 6.83-8 7.65-9.57 2.08-3.89-10-17.7-7.9-21s7.45 3.69 10.69 12.41 4.88 4.16 10.6 5.75 13.1 23.22 11.14 26.89Z" class="colorfeb3b0 svgShape"/><path fill="#f99393" d="M3551.41 821.61c-1.67.67-3.18 1.31-4.46 1.91l-10.74-15.87s6.5-7.08 12.07-13.52c-1.29 2.91-3.41 12.57-2.24 16.24s5.37 11.24 5.37 11.24Z" class="colorf99393 svgShape"/><path fill="#0e47bc" d="M3412.64 642.21c13.74 18 27 50.49 13.8 91.17s-33.91 39.91-22 66.25-66.74 10.68-66.74 10.68 22.14-123.18 29.37-124.08 45.57-44.02 45.57-44.02Z" class="color0e47bc svgShape"/><path fill="#1f2b73" d="M3316.4 1524.66h-60.63c-2-6.4-4.18-13.37-6.42-20.8-7.9-26.26-16.89-58.21-25.57-90.51-20.05-74.63-38.44-151.22-38-164.3.92-24.31 109.46-151.55 128.84-174.08 1.9-2.21 2.95-3.41 2.95-3.41 5.29 54.44-2.37 368.78-1.17 453.1Z" class="color1f2b73 svgShape"/><path fill="#0e1c54" d="M3316.4 1524.66h-60.63c-2-6.4-4.18-13.37-6.42-20.8 3.16 5.53 6.85 11.4 8.74 12.25 3.69 1.64 58.31 8.55 58.31 8.55ZM3314.67 1075l-90.89 338.38c-20.05-74.63-38.44-151.22-38-164.3.97-24.34 109.51-151.58 128.89-174.08Z" class="color0e1c54 svgShape"/><path fill="#0e1c54" d="M3291.63 1549.72c0-.1-.21-1.37-.56-3.72a.9.9 0 0 1 .67-1 .86.86 0 0 1 .94.77c.35 2.34.54 3.61.56 3.71Zm-.45-8.36a.85.85 0 0 1-.9-.77q-.36-2.41-.78-5.41a.88.88 0 0 1 .68-1 .84.84 0 0 1 .93.77c.29 2 .55 3.8.78 5.4a.88.88 0 0 1-.68 1Zm-1.54-10.82a.85.85 0 0 1-.91-.77c-.24-1.71-.5-3.51-.76-5.42a.9.9 0 0 1 .68-1 .85.85 0 0 1 .9.78c.27 1.9.52 3.71.76 5.41a.88.88 0 0 1-.68 1Zm-1.51-10.82a.86.86 0 0 1-.91-.78l-.74-5.41a.89.89 0 0 1 .68-1 .84.84 0 0 1 .93.78l.75 5.41a.9.9 0 0 1-.69 1Zm-1.48-10.83a.85.85 0 0 1-.91-.78l-.73-5.41a.9.9 0 0 1 .69-1 .86.86 0 0 1 .93.78l.73 5.42a.89.89 0 0 1-.69 1Zm-1.44-10.83a.84.84 0 0 1-.91-.78q-.36-2.65-.72-5.42a.89.89 0 0 1 .69-1 .84.84 0 0 1 .91.78c.24 1.85.48 3.65.71 5.42a.88.88 0 0 1-.69 1Zm-1.42-10.83a.86.86 0 0 1-.91-.79l-.7-5.42a.89.89 0 0 1 .69-1 .87.87 0 0 1 .91.79l.69 5.42a.88.88 0 0 1-.69 1Zm-1.39-10.84a.85.85 0 0 1-.91-.79l-.69-5.42a.82.82 0 1 1 1.62-.23l.68 5.42a.87.87 0 0 1-.69 1Zm-1.37-10.84a.85.85 0 0 1-.91-.79l-.67-5.42a.89.89 0 0 1 .7-1 .86.86 0 0 1 .91.79l.67 5.43a.88.88 0 0 1-.7 1Zm-1.33-10.84a.86.86 0 0 1-.92-.8l-.65-5.42a.88.88 0 0 1 .7-1 .87.87 0 0 1 .92.8l.65 5.42a.89.89 0 0 1-.7 1Zm-1.32-10.85a.86.86 0 0 1-.91-.8l-.64-5.42a.88.88 0 0 1 .7-1 .86.86 0 0 1 .92.8l.64 5.42a.88.88 0 0 1-.7 1Zm-1.28-10.86a.85.85 0 0 1-.91-.8l-.64-5.43a.88.88 0 0 1 .71-1 .86.86 0 0 1 .91.81l.64 5.42a.88.88 0 0 1-.71 1Zm-1.26-10.85a.86.86 0 0 1-.91-.81l-.62-5.43a.87.87 0 0 1 .7-1 .85.85 0 0 1 .91.8l.62 5.43a.89.89 0 0 1-.71 1Zm-1.24-10.86a.87.87 0 0 1-.91-.81l-.61-5.43a.89.89 0 0 1 .71-1 .86.86 0 0 1 .91.81l.61 5.43a.87.87 0 0 1-.71 1Zm-1.21-10.86a.86.86 0 0 1-.91-.81l-.59-5.43a.87.87 0 0 1 .71-1 .86.86 0 0 1 .91.81l.59 5.43a.87.87 0 0 1-.71 1.01Zm-1.18-10.86a.86.86 0 0 1-.91-.81l-.58-5.44a.86.86 0 0 1 .71-1 .85.85 0 0 1 .91.81l.58 5.43a.88.88 0 0 1-.71 1.02Zm-1.16-10.87a.86.86 0 0 1-.91-.81l-.57-5.44a.88.88 0 0 1 .71-1 .86.86 0 0 1 .91.81l.56 5.43a.87.87 0 0 1-.7 1.02Zm-1.12-10.87a.86.86 0 0 1-.91-.81c-.18-1.81-.37-3.62-.55-5.44a.86.86 0 0 1 .71-1 .85.85 0 0 1 .9.81q.27 2.73.56 5.44a.88.88 0 0 1-.71 1.01Zm-1.11-10.87a.86.86 0 0 1-.9-.82c-.18-1.8-.36-3.62-.54-5.44a.88.88 0 0 1 .71-1 .86.86 0 0 1 .9.82l.54 5.44a.88.88 0 0 1-.71 1.04Zm-1.07-10.88a.86.86 0 0 1-.9-.82l-.53-5.44a.87.87 0 0 1 .73-1 .86.86 0 0 1 .9.82l.53 5.43a.88.88 0 0 1-.73 1.02Zm-1.05-10.87a.86.86 0 0 1-.9-.82l-.51-5.45a.87.87 0 0 1 .71-1 .84.84 0 0 1 .89.82l.52 5.44a.88.88 0 0 1-.71 1.02Zm-1-10.88a.87.87 0 0 1-.9-.83l-.5-5.44a.88.88 0 0 1 .72-1 .87.87 0 0 1 .9.83l.5 5.44a.89.89 0 0 1-.74 1.01Zm-1-10.89a.87.87 0 0 1-.89-.83l-.48-5.45a.82.82 0 1 1 1.62-.15c.16 1.82.32 3.63.49 5.44a.88.88 0 0 1-.75 1Zm-1-10.88a.86.86 0 0 1-.89-.83l-.47-5.45a.82.82 0 1 1 1.63-.14l.47 5.44a.89.89 0 0 1-.72.99Zm-.93-10.89a.87.87 0 0 1-.89-.84l-.46-5.44a.82.82 0 1 1 1.63-.14l.45 5.44a.87.87 0 0 1-.71.99Zm-.9-10.89a.86.86 0 0 1-.88-.84l-.44-5.45a.88.88 0 0 1 .74-1 .86.86 0 0 1 .88.84l.44 5.44a.88.88 0 0 1-.72 1.02Zm-.87-10.9a.86.86 0 0 1-.88-.84c-.15-1.81-.29-3.63-.43-5.45a.88.88 0 0 1 .75-1 .86.86 0 0 1 .88.84l.42 5.45a.86.86 0 0 1-.74 1.01Zm-.83-10.9a.87.87 0 0 1-.88-.85c-.14-1.81-.27-3.63-.41-5.45a.9.9 0 0 1 .75-1 .87.87 0 0 1 .88.85c.14 1.82.27 3.63.41 5.45a.87.87 0 0 1-.73 1.02Zm-.81-10.89a.87.87 0 0 1-.88-.85c-.14-1.81-.27-3.63-.39-5.45a.86.86 0 0 1 .71-1 .86.86 0 0 1 .87.85l.39 5.45a.88.88 0 0 1-.68 1.01Zm-.77-10.91a.86.86 0 0 1-.87-.86c-.13-1.81-.25-3.63-.38-5.45a.87.87 0 0 1 .76-1 .86.86 0 0 1 .87.85c.13 1.82.25 3.64.37 5.45a.86.86 0 0 1-.73 1.02Zm-.73-10.9a.87.87 0 0 1-.88-.85c-.12-1.83-.24-3.65-.35-5.48a.84.84 0 0 1 .75-1 .88.88 0 0 1 .88.86c.11 1.82.23 3.65.35 5.47a.87.87 0 0 1-.73 1.01Zm-.7-11a.87.87 0 0 1-.87-.86c-.11-1.83-.23-3.65-.34-5.48a.82.82 0 1 1 1.63-.09c.11 1.82.23 3.65.34 5.47a.87.87 0 0 1-.74 1.02Zm-.67-10.94h-.05a.86.86 0 0 1-.86-.86c-.11-1.82-.22-3.65-.32-5.47a.82.82 0 1 1 1.63-.09c.1 1.83.21 3.65.32 5.47a.88.88 0 0 1-.7 1.01Zm-.62-10.94a.88.88 0 0 1-.87-.87c-.1-1.82-.2-3.64-.29-5.47a.85.85 0 0 1 .76-1 .88.88 0 0 1 .87.87c.1 1.82.19 3.65.29 5.47a.86.86 0 0 1-.74 1.06Zm-.58-10.93h-.06a.88.88 0 0 1-.86-.88c-.09-1.82-.19-3.64-.28-5.46a.83.83 0 1 1 1.64-.08l.27 5.47a.86.86 0 0 1-.69 1.01Zm-.54-10.93h-.06a.88.88 0 0 1-.86-.88c-.09-1.82-.17-3.64-.25-5.46a.86.86 0 0 1 .77-1 .89.89 0 0 1 .86.88c.08 1.82.16 3.64.25 5.46a.87.87 0 0 1-.69 1.06Zm-.5-10.92h-.06a.87.87 0 0 1-.86-.88c-.08-1.82-.16-3.64-.23-5.46a.87.87 0 0 1 .78-.94.88.88 0 0 1 .85.89c.08 1.81.15 3.63.23 5.45a.87.87 0 0 1-.69 1Zm-.45-10.92h-.07a.88.88 0 0 1-.85-.89l-.21-5.46a.85.85 0 0 1 .78-.93.88.88 0 0 1 .85.88l.21 5.46a.86.86 0 0 1-.69 1Zm-.41-10.91h-.07a.88.88 0 0 1-.85-.89l-.18-5.45a.85.85 0 0 1 .78-.93.88.88 0 0 1 .85.89c.06 1.81.12 3.63.19 5.45a.88.88 0 0 1-.7.99Zm-.36-10.91h-.03a.87.87 0 0 1-.84-.89c-.06-1.82-.11-3.64-.17-5.45a.88.88 0 0 1 .8-.93.89.89 0 0 1 .84.9c0 1.81.1 3.63.16 5.45a.87.87 0 0 1-.74.98Zm-.3-10.9h-.08a.87.87 0 0 1-.84-.9c0-1.81-.09-3.63-.14-5.45a.86.86 0 0 1 .8-.92.89.89 0 0 1 .84.9c0 1.82.08 3.63.13 5.45a.87.87 0 0 1-.69.94Zm-.26-10.9h-.08a.88.88 0 0 1-.84-.9c0-1.82-.07-3.63-.1-5.45a.84.84 0 0 1 .8-.91.88.88 0 0 1 .83.9c0 1.82.07 3.63.11 5.45a.87.87 0 0 1-.7.97Zm-.2-10.89h-.09a.87.87 0 0 1-.83-.9c0-1.82 0-3.64-.07-5.45a.85.85 0 0 1 .8-.91.89.89 0 0 1 .83.91c0 1.81.05 3.63.08 5.44a.88.88 0 0 1-.7.97Zm-.14-10.89h-.09a.89.89 0 0 1-.83-.91c0-1.83 0-3.65-.05-5.47a.86.86 0 0 1 .81-.9.88.88 0 0 1 .83.91v5.46a.87.87 0 0 1-.65.97Zm-.08-10.92h-.1a.89.89 0 0 1-.82-.92v-5.47a.85.85 0 0 1 .82-.9.89.89 0 0 1 .82.93v5.45a.86.86 0 0 1-.7.97Zm0-10.92h-.1a.88.88 0 0 1-.82-.92v-5.47a.85.85 0 0 1 .82-.89.89.89 0 0 1 .81.93v5.46a.88.88 0 0 1-.71.95Zm0-10.92h-.05a.89.89 0 0 1-.81-.93c0-1.82 0-3.65.05-5.46a.86.86 0 0 1 .83-.89.9.9 0 0 1 .81.94v5.45a.88.88 0 0 1-.78.95Zm.12-10.92h-.12a.88.88 0 0 1-.8-.94l.09-5.46a.85.85 0 0 1 .83-.88.89.89 0 0 1 .8.95l-.09 5.45a.85.85 0 0 1-.66.94Z" class="color0e1c54 svgShape"/><path fill="#0e1c54" d="M3287.25 1550.38c-14.39-59.83-43.39-378.3-44.46-515.94h1.63c1.08 137.54 30 455.73 44.41 515.49Z" class="color0e1c54 svgShape"/><path fill="#fa993b" d="M3362.88 1566.28c-4.79-.39-40.37-.25-65.76-.11-11.9 0-21.56.11-24.77.11-2.39 0-8.56-16.33-16.58-41.62h60.63c.17 12.76.55 20.24 1.22 20.77 5.03 4.04 52.31 21.42 45.26 20.85Z" class="colorfa993b svgShape"/><path fill="#1f2b73" d="M3127.62 1524.59c-15.62.05-38.67.11-49.88 0-.28-6.49-.55-13.63-.79-21.37-2.31-73.69-2.26-200.08 8.22-310 4.85-50.89 11.94-98.25 22.08-135.19 0 0 59.43-6.09 115.53-5.81 46.29.22 90.31 4.79 96.82 20.68a1.55 1.55 0 0 1 .08.23 10.66 10.66 0 0 1 .71 3.17c2.47 34.48-166.67 354.89-192.77 448.29Z" class="color1f2b73 svgShape"/><path fill="#0e1c54" d="M3127.62 1524.59c-15.62.05-38.67.11-49.88 0-.28-6.49-.55-13.63-.79-21.37 3 5 7.14 11.56 9 12.85 2.67 1.89 33.23 7.07 40.27 8.24Z" class="color0e1c54 svgShape"/><path fill="#0e1c54" d="M3099.13 1534.11c0-.1.23-1.37.64-3.71a.88.88 0 0 1 1-.77.85.85 0 0 1 .65 1c-.4 2.33-.61 3.6-.63 3.69Zm2.2-8.08a.85.85 0 0 1-.62-1c.28-1.6.59-3.39.95-5.38a.88.88 0 0 1 1-.77.85.85 0 0 1 .65 1l-.95 5.37a.88.88 0 0 1-1 .77Zm1.91-10.76a.85.85 0 0 1-.62-1c.3-1.69.63-3.49 1-5.38a.88.88 0 0 1 1-.76.85.85 0 0 1 .62 1c-.34 1.89-.67 3.69-1 5.38a.9.9 0 0 1-1 .77Zm2-10.75a.86.86 0 0 1-.62-1l1-5.37a.89.89 0 0 1 1-.76.84.84 0 0 1 .64 1l-1 5.37a.87.87 0 0 1-1 .76Zm2-10.75a.84.84 0 0 1-.62-1l1-5.38a.88.88 0 0 1 1-.75.86.86 0 0 1 .64 1l-1 5.37a.89.89 0 0 1-1 .76Zm2-10.74a.86.86 0 0 1-.62-1q.49-2.62 1-5.37a.88.88 0 0 1 1-.75.86.86 0 0 1 .62 1q-.53 2.73-1 5.36a.89.89 0 0 1-1 .76Zm2-10.73a.85.85 0 0 1-.62-1l1-5.37a.89.89 0 0 1 1-.75.86.86 0 0 1 .62 1l-1 5.36a.88.88 0 0 1-1 .75Zm2.07-10.73a.85.85 0 0 1-.62-1l1-5.37a.82.82 0 1 1 1.61.29l-1 5.36a.88.88 0 0 1-1 .75Zm2.09-10.72a.86.86 0 0 1-.62-1l1.06-5.36a.89.89 0 0 1 1-.75.85.85 0 0 1 .62 1l-1.06 5.36a.88.88 0 0 1-1 .75Zm2.12-10.72a.86.86 0 0 1-.62-1l1.07-5.36a.88.88 0 0 1 1-.74.86.86 0 0 1 .62 1l-1.07 5.36a.88.88 0 0 1-1 .74Zm2.14-10.71a.87.87 0 0 1-.61-1.05l1.08-5.35a.87.87 0 0 1 1-.74.84.84 0 0 1 .62 1l-1.08 5.36a.88.88 0 0 1-1 .74Zm2.17-10.71a.86.86 0 0 1-.61-1l1.09-5.35a.89.89 0 0 1 1-.74.87.87 0 0 1 .62 1l-1.1 5.35a.88.88 0 0 1-1 .74ZM3124 1408a.86.86 0 0 1-.62-1l1.11-5.36a.88.88 0 0 1 1-.73.85.85 0 0 1 .61 1.05l-1.1 5.35a.87.87 0 0 1-1 .73Zm2.22-10.7a.84.84 0 0 1-.61-1l1.12-5.34a.88.88 0 0 1 1-.74.86.86 0 0 1 .62 1.06l-1.12 5.34a.88.88 0 0 1-1 .73Zm2.25-10.69a.86.86 0 0 1-.61-1l1.13-5.35a.89.89 0 0 1 1-.73.85.85 0 0 1 .62 1l-1.14 5.34a.87.87 0 0 1-.99.74Zm2.27-10.69a.86.86 0 0 1-.61-1.05l1.15-5.34a.88.88 0 0 1 1-.73.85.85 0 0 1 .61 1l-1.15 5.35a.86.86 0 0 1-.99.77Zm2.29-10.68a.87.87 0 0 1-.61-1.06l1.16-5.34a.88.88 0 0 1 1-.72.85.85 0 0 1 .61 1.06l-1.16 5.33a.88.88 0 0 1-1.03.73Zm2.33-10.68a.86.86 0 0 1-.6-1.06l1.17-5.34a.89.89 0 0 1 1-.72.86.86 0 0 1 .61 1.06q-.6 2.68-1.17 5.34a.88.88 0 0 1-1 .72Zm2.35-10.67a.86.86 0 0 1-.6-1.06c.39-1.77.79-3.55 1.18-5.34a.89.89 0 0 1 1-.72.86.86 0 0 1 .6 1.06q-.6 2.67-1.18 5.33a.88.88 0 0 1-.99.73Zm2.38-10.67a.85.85 0 0 1-.6-1.06l1.2-5.33a.82.82 0 1 1 1.59.35l-1.2 5.33a.87.87 0 0 1-.98.71Zm2.4-10.66a.86.86 0 0 1-.6-1.06l1.21-5.33a.88.88 0 0 1 1-.72.86.86 0 0 1 .6 1.06l-1.21 5.33a.88.88 0 0 1-.99.72Zm2.43-10.65a.86.86 0 0 1-.6-1.06l1.23-5.33a.87.87 0 0 1 1-.71.84.84 0 0 1 .59 1.06l-1.22 5.33a.88.88 0 0 1-.99.71Zm2.46-10.65a.87.87 0 0 1-.59-1.07c.41-1.77.83-3.55 1.25-5.32a.82.82 0 1 1 1.59.36q-.63 2.67-1.24 5.32a.88.88 0 0 1-1 .71Zm2.49-10.64a.87.87 0 0 1-.59-1.07l1.26-5.32a.88.88 0 0 1 1-.7.87.87 0 0 1 .58 1.08l-1.25 5.31a.88.88 0 0 1-.99.7Zm2.52-10.64a.87.87 0 0 1-.59-1.07l1.28-5.32a.84.84 0 0 1 1-.7.87.87 0 0 1 .58 1.08l-1.27 5.31a.86.86 0 0 1-.99.72Zm2.55-10.62a.86.86 0 0 1-.58-1.07l1.29-5.32a.89.89 0 0 1 1-.69.87.87 0 0 1 .58 1.08l-1.29 5.31a.88.88 0 0 1-.94.69Zm2.58-10.62a.87.87 0 0 1-.58-1.08q.64-2.64 1.31-5.31a.88.88 0 0 1 1-.69.87.87 0 0 1 .57 1.08c-.43 1.77-.87 3.54-1.3 5.31a.89.89 0 0 1-.99.69Zm2.61-10.62a.86.86 0 0 1-.57-1.08q.64-2.65 1.31-5.31a.89.89 0 0 1 1-.68.87.87 0 0 1 .57 1.08l-1.32 5.3a.87.87 0 0 1-.98.69Zm2.65-10.6a.86.86 0 0 1-.57-1.08c.44-1.76.89-3.53 1.33-5.3a.88.88 0 0 1 1-.69.86.86 0 0 1 .57 1.08l-1.34 5.3a.87.87 0 0 1-.98.69Zm2.67-10.6a.86.86 0 0 1-.56-1.08l1.35-5.3a.82.82 0 1 1 1.58.41l-1.35 5.29a.86.86 0 0 1-1.01.68Zm2.71-10.58a.87.87 0 0 1-.56-1.09q.67-2.65 1.37-5.31a.82.82 0 1 1 1.58.41c-.46 1.77-.91 3.54-1.37 5.31a.88.88 0 0 1-1.01.68Zm2.76-10.62a.87.87 0 0 1-.55-1.09q.69-2.65 1.39-5.3a.87.87 0 0 1 1-.68.89.89 0 0 1 .56 1.09c-.47 1.77-.93 3.54-1.4 5.31a.87.87 0 0 1-.99.67Zm2.79-10.6a.88.88 0 0 1-.55-1.1l1.41-5.29a.82.82 0 1 1 1.57.43l-1.41 5.29a.87.87 0 0 1-1.01.67Zm2.83-10.59h-.05a.86.86 0 0 1-.55-1.09l1.42-5.29a.85.85 0 0 1 1-.66.87.87 0 0 1 .55 1.09c-.48 1.76-1 3.53-1.43 5.29a.86.86 0 0 1-.93.66Zm2.86-10.56a.87.87 0 0 1-.55-1.09q.72-2.64 1.45-5.28a.85.85 0 0 1 1-.66.87.87 0 0 1 .55 1.1c-.48 1.76-1 3.52-1.45 5.27a.87.87 0 0 1-.99.69Zm2.9-10.55a.87.87 0 0 1-.55-1.1l1.47-5.27a.86.86 0 0 1 1-.65.87.87 0 0 1 .54 1.1l-1.47 5.27a.87.87 0 0 1-.98.65Zm2.94-10.53h-.06a.87.87 0 0 1-.53-1.1c.49-1.76 1-3.51 1.48-5.26a.85.85 0 0 1 1-.65.87.87 0 0 1 .54 1.1c-.5 1.76-1 3.51-1.49 5.26a.87.87 0 0 1-.93.65Zm3-10.52h-.07a.88.88 0 0 1-.53-1.11q.75-2.62 1.51-5.25a.85.85 0 0 1 1-.64.86.86 0 0 1 .53 1.1l-1.5 5.25a.86.86 0 0 1-.94.65Zm3-10.49h-.06a.87.87 0 0 1-.53-1.11l1.53-5.24a.86.86 0 0 1 1-.63.87.87 0 0 1 .52 1.11l-1.53 5.23a.87.87 0 0 1-.91.64Zm3.07-10.47h-.07a.88.88 0 0 1-.52-1.11q.77-2.62 1.55-5.23a.87.87 0 0 1 1-.64.88.88 0 0 1 .52 1.12c-.52 1.74-1 3.48-1.55 5.22a.87.87 0 0 1-.91.64Zm3.12-10.46h-.08a.88.88 0 0 1-.51-1.12c.52-1.74 1-3.48 1.57-5.22a.87.87 0 0 1 1.05-.63.88.88 0 0 1 .51 1.12q-.79 2.61-1.57 5.22a.86.86 0 0 1-.95.68Zm3.16-10.43h-.08a.88.88 0 0 1-.51-1.12c.53-1.73 1.07-3.47 1.6-5.21a.85.85 0 0 1 1.05-.61.88.88 0 0 1 .51 1.12q-.81 2.6-1.6 5.2a.87.87 0 0 1-.95.62Zm3.22-10.4h-.09a.87.87 0 0 1-.5-1.12c.54-1.73 1.08-3.47 1.63-5.19a.85.85 0 0 1 1-.62.89.89 0 0 1 .51 1.13q-.83 2.58-1.63 5.19a.87.87 0 0 1-.9.61Zm3.27-10.39h-.09a.89.89 0 0 1-.5-1.13c.55-1.73 1.1-3.47 1.66-5.2a.86.86 0 0 1 1-.61.89.89 0 0 1 .5 1.13q-.84 2.6-1.66 5.2a.86.86 0 0 1-.89.61Zm3.33-10.4h-.09a.88.88 0 0 1-.49-1.13q.84-2.61 1.69-5.2a.83.83 0 0 1 1.05-.6.88.88 0 0 1 .49 1.13c-.56 1.73-1.13 3.46-1.69 5.19a.86.86 0 0 1-.94.61Zm3.4-10.38a.38.38 0 0 1-.1 0 .89.89 0 0 1-.49-1.13c.58-1.73 1.15-3.46 1.73-5.19a.85.85 0 0 1 1.06-.59.89.89 0 0 1 .48 1.14q-.87 2.58-1.72 5.18a.87.87 0 0 1-.94.64Zm3.46-10.36h-.1a.88.88 0 0 1-.48-1.14l1.75-5.17a.85.85 0 0 1 1.07-.58.89.89 0 0 1 .47 1.14q-.89 2.58-1.75 5.17a.87.87 0 0 1-.94.58Zm3.53-10.33h-.11a.89.89 0 0 1-.47-1.15q.89-2.58 1.79-5.16a.84.84 0 0 1 1.06-.57.89.89 0 0 1 .47 1.14l-1.79 5.16a.87.87 0 0 1-.93.58Z" class="color0e1c54 svgShape"/><path fill="#0e1c54" d="M3094.77 1533.37c5-61.33 77-372.91 119-504l1.55.52c-42 131-113.93 442.28-119 503.54Z" class="color0e1c54 svgShape"/><path fill="#0e1c54" d="M3320.43 1073.12h-.74c-12.05.48-166.65 6.6-181.38 11.22-12.21 3.83-37.7 44.81-53.13 108.87 4.85-50.89 11.94-98.25 22.08-135.19 0 0 59.43-6.09 115.53-5.81 47.22 9 90.38 19.15 96.82 20.68Z" class="color0e1c54 svgShape"/><path fill="#fa993b" d="M3163.71 1565.78c-7.33 0-47 .63-68.56.48-8 0-13.54-.21-13.94-.55-1-.89-2.38-16.09-3.47-41.08h26l23.87-.06c-4.08 14.57-6.21 23.17-5.66 23.72 4.05 4.08 51.82 17.49 41.76 17.49Z" class="colorfa993b svgShape"/><path fill="#1f2b73" d="M3347.76 824.55c-.75 4.17-1.48 8.42-2.22 12.75-6.3 37.38-11.68 80.28-15 120.4-7.54 92 0 116.18 0 116.18l-69-5.13-82.9-6.16-71.41-5.31s11.25-30.41 28-69.39c17.59-41 41.24-91.57 64.2-126.13 15.54-23.4 35-44 54.5-61.62 9.66-8.75 19.34-16.79 28.61-24.13 6.33-5 12.45-9.69 18.23-14 8.04 6.1 34.6 45.17 46.99 62.54Z" class="color1f2b73 svgShape"/><path fill="#feb3b0" d="M3426.38 660.2c-1.13 2.27-14 8.93-13.58 14.71s16.81 17.69.71 33.45a47.65 47.65 0 0 1-16.07 10.64c-5.44 2.3-10.57 3.94-16.24 8.69a55.21 55.21 0 0 0-9.09 10.07c-4.76 6.55-9.81 21.21-14.74 41.06-20 .34-47.3-15.58-53.37-19.24 6.78-5.08 13-9.68 18.48-13.82 7.77-5.87 13.94-10.78 17.77-14.71a67.28 67.28 0 0 0 16.13-28.4 76.42 76.42 0 0 0 3-17.89 44.69 44.69 0 0 0-.73-11.31c-2.27-9.8 30.68-21.12 35.63-21.12s12.65-2.65 12.65-2.65c5.5 9.64 20.59 8.26 19.45 10.52Z" class="colorfeb3b0 svgShape"/><path fill="#0e1c54" d="M3265.81 1034.79c2.4 13.89.54 25.29-4.24 34l-82.9-6.16c-18.62-19-36.34-46.35-43.45-74.7 17.59-41 41.24-91.57 64.2-126.13 15.54-23.4 35-44 54.5-61.62 19.53-4.83 36.67-8.11 42-7.69 11.94.94 17.05 35.68 17.05 35.68-23.55 34.65-91.59 88.47-85.49 116.13s31.79 52.75 38.33 90.49Z" class="color0e1c54 svgShape"/><path fill="#ffffff" d="M3354.21 832.85c-.25.22-2.7-3.05-6.45-8.3-12.39-17.37-39-56.44-47-62.59a4.73 4.73 0 0 0-1.37-.79c-1-.28 2.88-2.63 3.39-2.39l1.22.75c6.07 3.66 33.39 19.58 53.37 19.24.77 0 1.51 0 2.24-.11 1.76.11-4.25 53.18-5.4 54.19Z" class="colorfff svgShape"/><path fill="#1f2b73" d="M3226.27 914.3c-15.35 24.37-.8 50.29 13.08 75.55-7.22 2.49-33.31 18.48-37.3 23-32.86-31.61-76.85-78-72.35-114.11 7-56.33 76-77.46 136.81-97.58 15.1-5 44.26-19.68 53.82 5s-70.92 71.42-94.06 108.14Z" class="color1f2b73 svgShape"/><path fill="#1f2b73" d="M3249.21 1005.12c0 .15-.38.58-1.15 1.25-4.95 4.26-24.56 17.82-30.52 21.14a5.22 5.22 0 0 1-1.65.75c-1.77-.12-13.35-12-14.34-14.47-.08-.19.1-.52.5-1 4-4.49 30.08-20.48 37.3-23 1-.34 1.64-.43 1.81-.2a71.2 71.2 0 0 1 8.05 15.53ZM3552.3 824.21c-1.31 1.39-14 12.66-15.83 14-.3.22-1-.34-1.85-1.42-3.62-4.38-11-17.4-13.52-22.84-.65-1.43-1-2.34-.77-2.44 1.06-.57 13.15-6.46 17.78-8.36 0 0 .79 1 2 2.56 3.35 4.34 9.94 13.08 11.8 16.84.41.85.58 1.45.39 1.66Z" class="color1f2b73 svgShape"/><path fill="#feb3b0" d="M3236.33 1047.59c-.44-1.92-4.13-5.95-9.9-11.61-2.59-2.51-5.59-5.35-8.89-8.47 6-3.32 25.54-16.86 30.51-21.13a97.65 97.65 0 0 1 7.89 21.1c8.06 36.21-17.09 31.18-19.61 20.11Z" class="colorfeb3b0 svgShape"/><path fill="#1f2b73" d="M3347.76 824.55c-.75 4.17-1.48 8.42-2.22 12.75-9.11-22.85-43.31-72.4-44.1-73.23s-13.56 8.36-18.91 11.94c6.33-5 12.45-9.69 18.23-14 8.05 6.1 34.61 45.17 47 62.54ZM3534.62 836.75c-9.08-3.75-14.92-18.11-18.18-18-3 .06-15.18 3.94-16.68 4.42 7.16-3.08 14.31-6.17 21.34-9.22 2.48 5.44 9.89 18.44 13.51 22.82Z" class="color1f2b73 svgShape"/><path fill="#f99393" d="M3357.37 778.77c-20 .34-47.3-15.58-53.37-19.24 6.78-5.08 13-9.68 18.48-13.82-1.83 2.67-3.06 5.75-4.69 10.77-3.11 9.52 22.46 21.63 39.58 22.29ZM3367.1 686.23c-2.82 8.62-6.22 12.33-10.72 16.37a76.42 76.42 0 0 0 3-17.89c5.01.94 7.72 1.52 7.72 1.52ZM3397.44 718.94c-5.44 2.3-10.57 3.94-16.24 8.69a80.93 80.93 0 0 1-13.54-.67c13.67-1.33 14.22-2.38 29.78-8.02Z" class="colorf99393 svgShape"/><path fill="#0e1c54" d="M3239.35 989.85c-7.22 2.49-33.31 18.48-37.3 23 1.71-6.17 23.02-28.1 37.3-23Z" class="color0e1c54 svgShape"/><path fill="#f99393" d="M3223.62 1029.38c.67 2.17 3.64 5.67 2.81 6.6-2.59-2.51-5.59-5.35-8.89-8.47 6-3.32 25.54-16.86 30.51-21.13-1.05 6.54-25.26 20.36-24.43 23Z" class="colorf99393 svgShape"/><path fill="#0e53e4" d="m3367.09 664.19-48.41-35.58c24.37-35.18 72.45-49.89 94-18.59 29.93 43.61-13.75 48.62-45.59 54.17Z" class="color0e53e4 svgShape"/><path fill="#feb3b0" d="M3375.75 680.78c1.76-11.73-8-36.3-22.47-23.72s3.11 36.46 12.41 34.62 10.06-10.9 10.06-10.9Z" class="colorfeb3b0 svgShape"/><path fill="#f99393" d="M3369.13 680c-.43-7.37-6-18.53-10.14-12.16s4.94 4.19 5.07 6.46 1.21 3 2.47 3.18 2.66 3.52 2.6 2.52Z" class="colorf99393 svgShape"/><ellipse cx="3434.94" cy="2927.11" fill="#b3e3ef" rx="441.19" ry="31.91" class="colorb3e3ef svgShape"/><ellipse cx="1727.79" cy="1593.19" fill="#b3e3ef" rx="837.92" ry="42.63" class="colorb3e3ef svgShape"/><path fill="#c4ebf0" d="M2628.85 1466.75c0 16.36-18.17 54.51-47.24 54.51H2365.4c-29.08 0-58.15-20-99-20H1069.47c-25.89 0-87.67-16.36-114.92-34.53s-30-22.71-30-34.52v-71.77c0-10.9 32.7-22.71 32.7-41.79v-105.36c0-27.25 245.29-201.68 323.42-220.75s420.62-20.9 512.37-12.72S2082 1085.2 2206.41 1177c133.55 0 277.09 33.56 339.77 71.29s82.67 102.23 82.67 129.49Z" class="colorc4ebf0 svgShape"/><path fill="#b3e3ef" d="M2612.68 1320.27c11.54 23 16.17 44.46 16.17 57.46v89c0 16.36-18.17 54.51-47.24 54.51H2365.4c-29.08 0-58.15-20-99-20H1069.47c-25.89 0-87.67-16.36-114.92-34.53s-30-22.71-30-34.52v-71.77c0-10.9 32.7-22.71 32.7-41.79v-94Z" class="colorb3e3ef svgShape"/><path fill="#6eb1cb" d="M1655 1242.15c-13.09-139.16-31.89-220.08-34.24-229.88h2.8c2.92 12.29 21.29 92.89 34.15 229.61 12.9 137.32 2 219.62.23 231.68h-2.75c1.56-10.48 12.81-92.85-.19-231.41ZM2138.89 1222.76c-4.92-5.07-6.59-13.61-4.56-23.44 2.55-12.39 10.25-23.81 18.31-27.15l1 2.52c-7.28 3-14.3 13.61-16.68 25.18-1.84 8.93-.44 16.58 3.85 21 8.15 8.39 65.63 17.14 170.83 26 23.82 2 38.87 2.39 54.81 2.79 18.29.46 37.21.93 71.47 3.83 56 4.73 101.41 17.07 125.79 23.7 3.84 1 7.19 2 10 2.68a60.15 60.15 0 0 0 13 2.17c.77.87 1.48 1.75 2.22 2.62-.49 0-.88.14-1.41.14a61.07 61.07 0 0 1-14.53-2.29c-2.84-.73-6.2-1.65-10.05-2.69-24.3-6.61-69.54-18.91-125.31-23.62-34.18-2.88-53.06-3.36-71.31-3.82-16-.4-31.07-.78-55-2.79-107.23-9.06-163.68-17.84-172.43-26.83Z" class="color6eb1cb svgShape"/><path fill="#6eb1cb" d="M1265.72 1187.17c4.49-26.21 114.68-173.56 145.61-177.59 9.44-1.23 28.94-1.83 59.63-1.83 30.41 0 66.26.58 97.89 1.1 24 .38 44.64.72 58 .72h19.06c63.43 0 144.37 2.83 207.89 24.86 36.65 12.71 85.75 36.47 138.25 66.9 70.53 40.88 108.57 75 113.08 101.54 5.54 32.51 6.14 190.06 5.47 215.57-.06 2.27-.1 4.58-.14 6.9-.4 23.9-.85 51-26.43 51h-616.65c-19 0-38.29-13.49-51.59-36.1-5.79-9.83-20.22-29.12-36.93-51.47-22.09-29.52-49.57-66.26-66.23-93.64l-1.13-1.86c-28.97-47.66-49.9-82.06-45.78-106.1Zm48.11 104.63 1.13 1.86c16.59 27.27 44 64 66.08 93.43 16.76 22.41 31.24 41.76 37.09 51.72 12.81 21.76 31.22 34.76 49.25 34.76h187.8c-.11.7-.17 1.08-.18 1.13l2.68.46.25-1.59H2084c22.9 0 23.31-24.56 23.71-48.3 0-2.33.08-4.65.14-6.93.67-25.47.07-182.68-5.44-215-4.36-25.66-42-59.18-111.76-99.64-52.35-30.34-101.28-54-137.77-66.69-63.14-21.89-143.79-24.7-207-24.7h-22.33c-.25-1-.4-1.63-.41-1.69l-2.65.66s.11.41.26 1c-13.18-.07-31.34-.36-52-.7-31.61-.51-67.45-1.09-97.84-1.09-30.57 0-50 .59-59.27 1.8-30 3.92-139.32 152.25-143.28 175.35s16.8 57.06 45.47 104.16Z" class="color6eb1cb svgShape"/><path fill="#6eb1cb" d="M1212.56 1304.59A166.15 166.15 0 0 1 1376 1501.28h-306.5a134.74 134.74 0 0 1-20.71-2.11 166.15 166.15 0 0 1 163.8-194.58ZM2266.37 1501.28h-143.43a166.23 166.23 0 1 1 321.86 20h-79.4c-29.08-.02-58.15-20-99.03-20Z" class="color6eb1cb svgShape"/><circle cx="2286.36" cy="1470.84" r="143.08" fill="#7ecae1" class="color7ecae1 svgShape"/><circle cx="2286.36" cy="1470.84" r="101.24" fill="#b3e3ef" class="colorb3e3ef svgShape"/><circle cx="1212.56" cy="1470.84" r="143.08" fill="#7ecae1" class="color7ecae1 svgShape"/><circle cx="1212.56" cy="1470.84" r="101.24" fill="#b3e3ef" class="colorb3e3ef svgShape"/><path fill="#ffffff" d="M2580.25 1288.24s16.35 20 19.53 29.52 0 20.45-13.17 20.45h-77.22c-12.27 0-35-18.63-47.7-33.62s-31.79-39.52-26.34-42.7 75.86 5.91 144.9 26.35ZM2541.58 1440.86c4.55-9 15.56-16.35 24.59-16.35h62.68v42.24c0 4.51-1.43 10.7-4 17.27h-88.62c-9 0-12.66-7.33-8.12-16.36Z" class="colorfff svgShape"/><path fill="#6eb1cb" d="M2206.41 1177h-49c-10 0-26.35-1.81-41.79-11.35s-84.37-61.32-128-86.87-68.31-38.49-72.22-40.2c-7-3.07-10-11.93-1-11.93h28.6s137.59 54.92 263.41 150.35ZM2051.07 1159.24c7.95 6.21 16.81 23.17 0 24.07s-343.86-11.8-359.3-12-20-9.32-22.71-19.76-21.8-105.84-22.71-114-.91-15.89 13.17-15.89 122.64 4.09 183.51 23.62 141.72 62.18 208.04 113.96ZM1605.92 1038.41S1610 1146.52 1610 1152s-2.72 14.54-13.17 14.54-341.14-7.72-354.76-8.18-20-5-17.72-14.54 76.32-99.47 137.19-115.37 219.39-6.81 227.11-6.81 16.76 3.2 17.27 16.77ZM1184.38 1038.71c10.44 4.45 24.8 10.56 28.18 12 5.45 2.27 4.54 11.35-10.45 20s-63.14 49.06-82.22 66.78-31.8 23.16-45.42 23.16h-66.31c46.14-37.55 115.95-86.3 176.22-121.94ZM957.27 1318.67v-97.2H1035c11.36 0 17.27 4.31 11.36 20.55s-35 59.84-43.15 66.21-15.45 11.35-25.89 11.35h-20.14c.02-.3.09-.58.09-.91ZM924.57 1402.94v-22.89h25.12a11.45 11.45 0 1 1 0 22.89ZM1192.36 1144.63h9.88v519.88h-9.88z" class="color6eb1cb svgShape"/><path fill="#b3e3ef" d="M1080.68 841.27h233.26v334.98h-233.26z" class="colorb3e3ef svgShape"/><path fill="#7ecae1" d="M1116.26 873.81h162.09v162.09h-162.09zM1127.38 1086.42h139.85v5.71h-139.85zM1127.38 1070.01h139.85v5.71h-139.85zM1145.91 1102.84h102.79v5.71h-102.79z" class="color7ecae1 svgShape"/><path fill="#6eb1cb" d="M1128.17 1659.57h131.45v9.88h-131.45z" class="color6eb1cb svgShape"/><path fill="#6eb1cb" fill-rule="evenodd" d="M2017.5 1197.83c4 4.94 20.32 14.94 22.79 15.05s15.73-10.45 15.84-13.48-11-14.82-17.63-14.6-21 13.03-21 13.03Z" class="color6eb1cb svgShape"/><path fill="#b3e3ef" fill-rule="evenodd" d="M1947.92 1173.17a37.82 37.82 0 0 0 39.37 37.65c31.81-1.39 69.83-7.86 73.09-19.72 4.94-18-62.41-62.1-106.08-62.9a6.26 6.26 0 0 0-2.9.64 6.55 6.55 0 0 0-3.67 5.92Z" class="colorb3e3ef svgShape"/><ellipse cx="1593.34" cy="1976.56" fill="#b3e3ef" rx="1080.54" ry="54.97" class="colorb3e3ef svgShape"/><path fill="#c4ebf0" d="M2755.3 1813.52c0 21.08-23.43 70.29-60.92 70.29h-278.82c-37.48 0-75-25.78-127.69-25.78H744.41c-33.39 0-113.06-21.08-148.2-44.51s-38.66-29.29-38.66-44.52v-92.55c0-14.06 42.17-29.29 42.17-53.89v-135.9c0-35.14 316.32-260.07 417.06-284.67s542.41-27 660.73-16.4 372.54 135.89 533 254.21c172.21 0 357.31 43.27 438.14 91.93s106.61 131.83 106.61 167Z" class="colorc4ebf0 svgShape"/><path fill="#b3e3ef" d="M2734.45 1624.61c14.89 29.65 20.85 57.34 20.85 74.1v114.81c0 21.08-23.43 70.29-60.92 70.29h-278.82c-37.48 0-75-25.78-127.69-25.78H744.41c-33.39 0-113.06-21.08-148.2-44.51s-38.66-29.29-38.66-44.52v-92.55c0-14.06 42.17-29.29 42.17-53.89v-121.22Z" class="colorb3e3ef svgShape"/><path fill="#6eb1cb" d="M1499.45 1523.88c-16.87-179.46-41.11-283.81-44.15-296.44h3.61c3.78 15.85 27.46 119.78 44 296.1 16.64 177.07 2.61 283.2.3 298.75h-3.55c2.07-13.51 16.59-119.73-.21-298.41ZM2123.48 1498.87c-6.35-6.53-8.5-17.55-5.89-30.22 3.29-16 13.22-30.7 23.61-35l1.34 3.25c-9.38 3.89-18.43 17.55-21.51 32.47-2.37 11.51-.56 21.38 5 27.06 10.51 10.82 84.63 22.1 220.3 33.56 30.71 2.59 50.12 3.08 70.67 3.59 23.59.6 48 1.21 92.17 4.94 72.23 6.1 130.77 22 162.22 30.56 4.94 1.35 9.27 2.52 12.92 3.46a78 78 0 0 0 16.81 2.81c1 1.11 1.9 2.25 2.87 3.37-.64 0-1.14.18-1.83.18-4.86 0-11.12-1-18.73-3-3.67-1-8-2.13-13-3.48-31.34-8.52-89.67-24.38-161.59-30.45-44.08-3.72-68.42-4.33-92-4.92-20.61-.52-40.07-1-70.88-3.61-138.41-11.65-211.21-22.97-222.48-34.57Z" class="color6eb1cb svgShape"/><path fill="#6eb1cb" d="M997.48 1453c5.79-33.8 147.89-223.81 187.77-229 12.17-1.59 37.32-2.36 76.9-2.36 39.21 0 85.44.75 126.23 1.41 30.89.5 57.56.93 74.75.93h24.59c81.78 0 186.17 3.64 268.08 32 47.26 16.4 110.58 47 178.28 86.28 90.94 52.72 140 96.77 145.82 130.94 7.14 41.92 7.92 245.08 7.06 278-.08 2.92-.13 5.9-.18 8.89-.52 30.82-1.11 65.75-34.09 65.75h-795.16c-24.51 0-49.38-17.41-66.53-46.56-7.46-12.67-26.07-37.56-47.62-66.37-28.49-38.07-63.93-85.45-85.41-120.76l-1.46-2.4c-37.35-61.41-64.34-105.75-59.03-136.75Zm62 134.93 1.47 2.4c21.39 35.16 56.78 82.47 85.21 120.47 21.61 28.9 40.28 53.86 47.83 66.7 16.52 28.07 40.25 44.82 63.51 44.82h242.2c-.14.91-.22 1.4-.23 1.47l3.46.58c0-.07.13-.81.32-2h549.44c29.53 0 30.06-31.66 30.57-62.29.06-3 .11-6 .18-8.92.87-32.86.1-235.59-7-277.31-5.64-33.09-54.12-76.32-144.13-128.49-67.51-39.13-130.6-69.67-177.67-86-81.41-28.24-185.41-31.86-266.92-31.86h-28.81c-.31-1.32-.5-2.1-.52-2.19l-3.42.86c0 .06.14.52.33 1.32-17-.1-40.41-.47-67-.91-40.77-.66-87-1.41-126.17-1.41-39.42 0-64.43.77-76.44 2.33-38.71 5-179.66 196.33-184.77 226.12s21.63 73.54 58.59 134.29ZM928.92 1604.4c118.4 0 214.39 96 214.39 214.39a214.12 214.12 0 0 1-3.66 39.24H744.41a174.11 174.11 0 0 1-26.71-2.71 215.58 215.58 0 0 1-3.17-36.53c0-118.41 95.99-214.39 214.39-214.39ZM2287.87 1858h-185a215 215 0 0 1-3.65-39.24c0-118.41 96-214.39 214.38-214.39s214.39 96 214.39 214.39a214.31 214.31 0 0 1-10.07 65h-102.4c-37.44.05-74.93-25.76-127.65-25.76Z" class="color6eb1cb svgShape"/><circle cx="2313.64" cy="1818.79" r="184.51" fill="#7ecae1" class="color7ecae1 svgShape"/><circle cx="2313.64" cy="1818.79" r="130.55" fill="#b3e3ef" class="colorb3e3ef svgShape"/><circle cx="928.92" cy="1818.79" r="184.51" fill="#7ecae1" class="color7ecae1 svgShape"/><circle cx="928.92" cy="1818.79" r="130.55" fill="#b3e3ef" class="colorb3e3ef svgShape"/><path fill="#ffffff" d="M2692.63 1583.31s21.09 25.78 25.18 38.08 0 26.36-17 26.36h-99.58c-15.82 0-45.1-24-61.51-43.35s-41-51-34-55.06 97.87 7.66 186.91 33.97ZM2642.76 1780.13c5.87-11.65 20.06-21.09 31.71-21.09h80.83v54.48c0 5.81-1.84 13.79-5.21 22.26h-114.28c-11.65 0-16.33-9.45-10.47-21.09Z" class="colorfff svgShape"/><path fill="#6eb1cb" d="M2210.55 1439.8h-63.26c-12.89 0-34-2.34-53.89-14.64s-108.8-79.08-165-112-88.09-49.62-93.13-51.83c-9-4-13-15.38-1.32-15.38h37s177.34 70.85 339.6 193.85ZM2010.22 1417c10.25 8 21.68 29.87 0 31s-443.41-15.22-463.33-15.52-25.77-12-29.29-25.48-28.11-136.48-29.29-147-1.16-20.5 17-20.5 158.16 5.27 236.65 30.46 182.75 80.22 268.26 147.04ZM1436.18 1261.15s5.27 139.41 5.27 146.44-3.51 18.74-17 18.74-439.91-9.95-457.48-10.54-25.77-6.45-22.84-18.75 98.41-128.27 176.9-148.78 282.92-8.78 292.87-8.78 21.62 4.17 22.28 21.67ZM892.58 1261.53c13.47 5.74 32 13.62 36.34 15.44 7 2.92 5.86 14.64-13.47 25.77s-81.42 63.26-106 86.1-41 29.88-58.58 29.88h-85.53c59.5-48.36 149.53-111.23 227.24-157.19ZM599.72 1622.56v-125.35h100.17c14.64 0 22.26 5.56 14.64 26.5s-45.09 77.17-55.64 85.38-19.92 14.64-33.39 14.64h-25.9c.03-.39.12-.73.12-1.17ZM557.55 1731.22v-29.51H590a14.76 14.76 0 1 1 0 29.51ZM902.88 1398.12h12.75v670.42h-12.75z" class="color6eb1cb svgShape"/><path fill="#b3e3ef" d="M758.86 1006.93h300.8v431.98h-300.8z" class="colorb3e3ef svgShape"/><path fill="#7ecae1" d="M804.74 1048.89h209.03v209.03H804.74zM819.08 1323.06h180.35v7.36H819.08zM819.08 1301.89h180.35v7.36H819.08zM842.98 1344.23h132.55v7.36H842.98z" class="color7ecae1 svgShape"/><path fill="#6eb1cb" d="M820.1 2062.16h169.52v12.75H820.1z" class="color6eb1cb svgShape"/><path fill="#6eb1cb" fill-rule="evenodd" d="M1966.93 1466.72c5.21 6.38 26.21 19.27 29.4 19.41s20.28-13.47 20.42-17.38-14.19-19.12-22.74-18.83-27.08 16.8-27.08 16.8Z" class="color6eb1cb svgShape"/><path fill="#b3e3ef" fill-rule="evenodd" d="M1877.21 1434.93a48.76 48.76 0 0 0 50.77 48.55c41-1.79 90-10.14 94.24-25.44 6.38-23.24-80.47-80.07-136.79-81.11a8.24 8.24 0 0 0-3.74.83 8.43 8.43 0 0 0-4.73 7.63Z" class="colorb3e3ef svgShape"/><ellipse cx="1677.34" cy="2707.45" fill="#b3e3ef" rx="1614.63" ry="82.14" class="colorb3e3ef svgShape"/><path fill="#fa993b" d="M3149.4 2486.63c0 29-32.2 96.58-83.71 96.58h-383.11c-51.51 0-103-35.41-175.46-35.41H386.34c-45.87 0-155.34-29-203.63-61.17s-53.12-40.24-53.12-61.17V2298.3c0-19.32 57.95-40.24 57.95-74.05v-186.72c0-48.3 434.63-357.36 573.06-391.16s745.29-37 907.87-22.54 511.88 186.73 732.41 349.31c236.63 0 491 59.45 602 126.3s146.49 181.15 146.49 229.44Z" class="colorfa993b svgShape"/><path fill="#ff790b" d="M3120.74 2227.07c20.46 40.73 28.66 78.79 28.66 101.81v157.75c0 29-32.2 96.58-83.71 96.58h-383.11c-51.51 0-103-35.41-175.46-35.41H386.34c-45.87 0-155.34-29-203.63-61.17s-53.12-40.24-53.12-61.17V2298.3c0-19.32 57.95-40.24 57.95-74.05V2057.7Z" class="colorff790b svgShape"/><path fill="#ea6c0f" d="M1423.81 2088.65c-23.19-246.57-56.5-390-60.67-407.31h5c5.19 21.77 37.73 164.58 60.52 406.84 22.86 243.31 3.57 389.13.4 410.51h-4.87c2.75-18.56 22.7-164.51-.38-410.04ZM2281.24 2054.3c-8.73-9-11.67-24.11-8.08-41.53 4.52-22 18.16-42.18 32.43-48.1l1.85 4.46c-12.9 5.35-25.33 24.11-29.55 44.62-3.26 15.82-.78 29.37 6.82 37.18 14.44 14.86 116.29 30.37 302.7 46.11 42.2 3.56 68.87 4.23 97.11 4.94 32.41.81 65.93 1.66 126.64 6.78 99.25 8.38 179.68 30.25 222.89 42 6.8 1.85 12.74 3.47 17.76 4.76 10.42 2.7 17.82 3.71 23.1 3.86 1.36 1.52 2.61 3.09 3.93 4.63-.87.05-1.55.24-2.5.24-6.68 0-15.28-1.35-25.74-4-5-1.3-11-2.92-17.82-4.78-43.06-11.7-123.21-33.49-222-41.84-60.56-5.11-94-6-126.35-6.76-28.32-.71-55.05-1.38-97.39-5-190.28-16.08-290.3-31.64-305.8-47.57Z" class="colorea6c0f svgShape"/><path fill="#ea6c0f" d="M734.08 1991.24c8-46.44 203.2-307.52 258-314.67 16.72-2.18 51.28-3.24 105.66-3.24 53.88 0 117.4 1 173.44 1.94 42.45.69 79.1 1.28 102.71 1.28h33.79c112.38 0 255.81 5 368.36 44 64.94 22.53 151.94 64.63 245 118.55 125 72.44 192.38 133 200.37 179.92 9.8 57.6 10.88 336.76 9.69 382-.11 4-.17 8.11-.24 12.22-.72 42.34-1.52 90.33-46.84 90.33H1091.39c-33.68 0-67.85-23.91-91.41-64-10.25-17.42-35.82-51.61-65.44-91.2-39.13-52.31-87.83-117.41-117.35-165.92l-2-3.31c-51.33-84.35-88.42-145.31-81.11-187.9Zm85.23 185.4 2 3.3c29.39 48.32 78 113.31 117.09 165.54 29.69 39.7 55.34 74 65.72 91.63 22.69 38.57 55.31 61.6 87.26 61.6h332.76c-.19 1.24-.3 1.92-.32 2l4.76.81c0-.11.18-1.12.43-2.82h755c40.57 0 41.3-43.51 42-85.59.07-4.13.14-8.23.24-12.27 1.19-45.14.14-323.7-9.62-381-7.74-45.46-74.37-104.87-198-176.55-92.77-53.77-179.46-95.73-244.13-118.16-111.87-38.8-254.77-43.78-366.77-43.78l-33.79.05h-5.79c-.43-1.82-.69-2.9-.71-3l-4.7 1.18c0 .08.19.72.45 1.81-23.35-.13-55.53-.65-92-1.24-56-.91-119.52-1.94-173.37-1.94-54.17 0-88.53 1-105 3.2-53.19 6.94-246.86 269.76-253.88 310.7s29.58 101.06 80.37 184.53ZM639.87 2199.3c162.69 0 294.58 131.89 294.58 294.58a295.64 295.64 0 0 1-5 53.92H386.34c-9.73 0-22.43-1.37-36.7-3.73a296.46 296.46 0 0 1-4.35-50.19c0-162.69 131.89-294.58 294.58-294.58ZM2507.12 2547.8H2253a295.64 295.64 0 0 1-5-53.92c0-162.69 131.89-294.58 294.58-294.58s294.57 131.89 294.57 294.58a294.29 294.29 0 0 1-13.83 89.33h-140.7c-51.55 0-103.06-35.41-175.5-35.41Z" class="colorea6c0f svgShape"/><circle cx="2542.54" cy="2493.88" r="253.53" fill="#262626" class="color262626 svgShape"/><circle cx="2542.54" cy="2493.88" r="179.38" fill="#ffffff" class="colorfff svgShape"/><circle cx="639.87" cy="2493.88" r="253.53" fill="#262626" class="color262626 svgShape"/><circle cx="639.87" cy="2493.88" r="179.38" fill="#ffffff" class="colorfff svgShape"/><path fill="#ffffff" d="M3063.28 2170.33s29 35.41 34.61 52.31 0 36.22-23.35 36.22h-136.82c-21.73 0-62-33-84.51-59.56s-56.34-70-46.68-75.66 134.41 10.47 256.75 46.69Z" class="colorfff svgShape"/><path fill="#f03e30" d="M2994.76 2440.76c8.06-16 27.57-29 43.57-29h111.07v74.85c0 8-2.53 18.95-7.16 30.59h-157c-16 0-22.44-13-14.38-29Z" class="colorf03e30 svgShape"/><path fill="#ffffff" d="M2400.88 1973.14H2314c-17.71 0-46.68-3.22-74.05-20.12s-149.5-108.66-226.76-153.93-121.05-68.19-128-71.23c-12.38-5.43-17.81-21.13-1.81-21.13h50.8s243.76 97.39 466.7 266.41ZM2125.63 1941.75c14.08 11 29.78 41 0 42.65s-609.28-20.91-636.65-21.32-35.41-16.51-40.23-35-38.64-187.53-40.25-202-1.6-28.17 23.34-28.17 217.31 7.25 325.16 41.85 251.12 110.24 368.63 201.99ZM1336.86 1727.66s7.25 191.55 7.25 201.21-4.82 25.76-23.34 25.76-604.45-13.63-628.59-14.49-35.41-8.86-31.39-25.76S796 1738.13 903.87 1710s388.74-12.07 402.42-12.07 29.71 5.68 30.57 29.73ZM589.94 1728.18c18.5 7.88 43.95 18.72 49.93 21.21 9.66 4 8 20.12-18.51 35.41s-111.88 86.93-145.68 118.32-56.35 41-80.49 41H277.71c81.75-66.41 205.45-152.79 312.23-215.94Z" class="colorfff svgShape"/><path fill="#f03e30" d="M187.54 2224.25V2052h137.63c20.12 0 30.59 7.64 20.12 36.42s-62 106-76.45 117.31-27.37 20.12-45.88 20.12h-35.59c.03-.53.17-1.05.17-1.6ZM129.59 2373.55V2333h44.52a20.27 20.27 0 1 1 0 40.54Z" class="colorf03e30 svgShape"/><path fill="#ea6c0f" fill-rule="evenodd" d="M2069.43 1975.39c7.61 9.29 38.24 28.09 42.88 28.3s29.57-19.64 29.79-25.35-20.7-27.88-33.17-27.46-39.5 24.51-39.5 24.51Z" class="colorea6c0f svgShape"/><path fill="#ff790b" fill-rule="evenodd" d="M1938.58 1929a71.12 71.12 0 0 0 74.05 70.81c59.83-2.62 131.32-14.78 137.45-37.1 9.3-33.89-117.36-116.78-199.5-118.29a12 12 0 0 0-5.45 1.2 12.31 12.31 0 0 0-6.9 11.14Z" class="colorff790b svgShape"/><path fill="#1f2b73" d="M430.4 1258.55h449.47v645.49H430.4z" class="color1f2b73 svgShape"/><path fill="#ffffff" d="M498.96 1321.26H811.3v312.34H498.96zM520.39 1730.94h269.49v11H520.39zM520.39 1699.31h269.49v11H520.39zM556.1 1762.58h198.07v11H556.1z" class="colorfff svgShape"/><path fill="#1f2b73" d="M645.61 1843.1h19.05v1001.79h-19.05z" class="color1f2b73 svgShape"/><path fill="#1f2b73" d="M521.91 2835.36h253.3v19.05h-253.3z" class="color1f2b73 svgShape"/><path fill="#ffffff" d="m2106.07 2133.37 7.38-7.15q-2.52 2.39-4.84 4.51c1.47-1.5 3-3.06 4.65-4.69l-7.88 7.62c-39.38 35.3-35.88 13.87-77-22.7 35.22 42.3 56.38 39.85 19.73 78.17l-7.91 7.66c1.68-1.59 3.29-3.08 4.85-4.5-1.47 1.5-3 3.05-4.66 4.68l7.36-7.12c40.1-35.81 37.35-13.37 82.85 27.68-39.6-46.8-61.73-45.14-24.53-84.16ZM2722.78 2059.15l7.39-7.15c-1.68 1.59-3.29 3.09-4.84 4.52 1.47-1.51 3-3.07 4.64-4.7l-7.87 7.63c-39.39 35.29-35.89 13.86-77-22.71 35.23 42.3 56.39 39.85 19.74 78.17l-7.92 7.66c1.69-1.59 3.3-3.08 4.86-4.5-1.48 1.5-3 3.06-4.66 4.68l7.35-7.12c40.1-35.81 37.36-13.37 82.85 27.68-39.58-46.8-61.74-45.14-24.54-84.16ZM1331.13 2078.16l14.55-14.08c-3.32 3.12-6.48 6.07-9.54 8.88q4.33-4.46 9.15-9.24l-15.5 15c-77.55 69.49-70.66 27.31-151.67-44.71 69.36 83.29 111 78.47 38.86 153.92L1201.4 2203c3.32-3.12 6.49-6.07 9.56-8.87-2.91 3-6 6-9.17 9.23l14.47-14c79-70.52 73.56-26.32 163.13 54.49-77.87-92.14-121.5-88.85-48.26-165.69ZM1753.05 1655.33l7.38-7.15c-1.68 1.59-3.29 3.08-4.84 4.51 1.47-1.51 3-3.07 4.65-4.7l-7.88 7.63c-39.38 35.29-35.88 13.87-77-22.71 35.22 42.31 56.38 39.86 19.73 78.17l-7.91 7.66c1.68-1.58 3.29-3.08 4.85-4.5q-2.21 2.25-4.66 4.69l7.36-7.12c40.1-35.82 37.35-13.37 82.85 27.67-39.58-46.8-61.73-45.14-24.53-84.15ZM503.69 2093.85l14.74 2.31c-3.31-.56-6.45-1.12-9.46-1.67 3 .39 6.18.81 9.5 1.28l-15.71-2.45c-75.28-14.77-47.42-29.44-41-109-18.21 77.75 3.11 100.12-73.28 91.16l-15.79-2.48c3.31.56 6.45 1.12 9.45 1.68q-4.53-.58-9.49-1.3l14.67 2.3c76.51 15.14 48.12 31.57 40.34 120.11 19.63-86.71-1.66-110.92 76.03-101.94Z" class="colorfff svgShape"/><path fill="#57a542" d="M3263.67 2857.68 3153.22 2935h192.67v-88.36l-82.22 11.04zM3573.84 2857.68 3463.39 2935h192.67v-88.36l-82.22 11.04z" class="color57a542 svgShape"/><path fill="#1f2b73" d="M3703.62 2778.8c-13.63 54.63-25.17 87.09-31.34 86.62-28.31-2.19-116.81.9-130.23 0h-.33c-12.24-.95-9.71-836.93-36.07-836.25-20 .52-67.57 484.93-107 715.87-12.45 72.86-24.09 120.49-33.81 119.74-36.68-2.84-93.12 6.16-122.51-5.68a40.07 40.07 0 0 1-8.27-4.43c-22.42-16-15.34-630.57-1.19-940.32 2-44.69 4.22-83 6.49-112.3 0 0 63.21-43.35 146.59-81.36 116-52.88 271.07-95.41 349.29 3.54 18.92 23.93 33.35 56.13 41.63 98.47 4.36 22.22 7.83 46 10.49 70.92 29.7 276.94-38.49 703.58-83.74 885.18Z" class="color1f2b73 svgShape"/><path fill="#0e1c54" d="M3386 1720.7a686.92 686.92 0 0 1 79.79 42c-.13 1.66-.28 3.29-.44 4.91-6.74 69.22-28.61 95-132.94 126.05-52.21 15.55-82 18.43-99.49 20.73 2-44.69 4.22-83 6.49-112.3-.05-.03 63.16-43.38 146.59-81.39ZM3495.17 1773.06c-11.25 36.79 10.48 256.12 10.48 256.12s37-29.12 45.69-62.87 1.7-183.94-7.9-193.25-48.27 0-48.27 0ZM3787.36 1893.63c-66.2-23.65-157.14-30.47-212-97.9 0 0 35.77-89.42 159.9-71.49 18.92 23.93 33.35 56.13 41.63 98.47 4.34 22.22 7.81 45.96 10.47 70.92Z" class="color0e1c54 svgShape"/><path fill="#ffffff" d="M2937.75 1399.13c-3.15 11.63-5.61 33.63-7.56 44.78-.75-.42-1.47-.81-2.16-1.18a128.2 128.2 0 0 0-13-6l7.7-36.67q7.39-.59 15.02-.93Z" class="colorfff svgShape"/><path fill="#6bb14e" d="M3321.16 1469.63c-60.35 140.55-193 92.41-290 37.27-18.55-10.54-35.8-21.35-51-31.13 7-9.88 21-38.61 25.27-57.73a.15.15 0 0 0 0-.06c1.67-7.6 1.8-13.67-.7-16.42a268.52 268.52 0 0 1 33.13 6.2c98.17 25.16 258.38-131.07 344.92-275.76 33.22-55.47 27.73 129.54-61.62 337.63Z" class="color6bb14e svgShape"/><path fill="#fcb1b5" d="M3499.59 1038.49c2.55 33.53-22.23 60.86-27.7 65.24s23.73 70.33 49.77 71.79 52.9-41.76 53.86-62.24-20.52-33.61-17.62-69.28-58.31-5.51-58.31-5.51Z" class="colorfcb1b5 svgShape"/><path fill="#ebeff2" d="M3494.99 1780.31h59.06l30.33-658.69-85.35 12.27-31.24-23.02-34.59 669.44h61.79z" class="colorebeff2 svgShape"/><path fill="#ffffff" d="M3495 1780.31c-8.59.51-18.4 5.63-20.86 0s10.45-244.92 11.06-285.42 16.55 4.6 16.55 4.6Z" class="colorfff svgShape"/><path fill="#ffb91d" d="M3477.46 1502c1.83 10.67 12 148.12 13.24 153.44s44.15-133 42.12-139.5-55.36-13.94-55.36-13.94ZM3472.63 1116.42c21.75 17.67 35.22 76.39 36.2 84.89s63.72-66.5 64.83-69.31 0-35.62 0-35.62-33.56 7-41.39 22.37-16.57 13.25-16.57 13.25-8.28-20.15-16.26-20-26.81 4.42-26.81 4.42Z" class="colorffb91d svgShape"/><path fill="#57a542" d="M3449.73 1800.1c-2.9 11.93-10.25 21.48-20.8 29-62.75 44.83-238.46 18-261-5.59-26.3-27.55 123.79-318.94 143.66-464.65s65.09-264.47 137.25-272.93l23.61 15.28.16 15.19c13.2 36.36-2.68 600.75-22.88 683.7Z" class="color57a542 svgShape"/><path fill="#6bb14e" d="M3449.73 1800.1c-2.9 11.93-10.25 21.48-20.8 29 6.08-68.81 20.77-238.32 23.15-298.28 3-76-21-133.09-39.41-146.95s37.26-48.05 34.87-84.18-67.3-34.42-52.83-72.57 66.81-123.84 54.15-141.19l17.15 3.6 6.62 26.87c13.18 36.36-2.7 600.75-22.9 683.7Z" class="color6bb14e svgShape"/><path fill="#57a542" d="M3535.87 1786.87c1.88 12.13 8.4 22.27 18.26 30.68 58.72 50 236.06 38.21 260.51 16.61 28.55-25.21-95.24-375-62.74-517.26 32.76-143.38-83.27-227-154.45-241.52l-24.82 13.21-1.46 15.13c-16.17 35.08-48.37 598.78-35.3 683.15Z" class="color57a542 svgShape"/><path fill="#6bb14e" d="M3535.87 1786.87c1.88 12.13 8.4 22.27 18.26 30.68-.21-69.08-.43-239.22 2.29-299.17 3.45-76 32.26-130.82 51.76-143.07s-33-51-27.59-86.83 70-28.58 58.81-67.82-56-129.08-42-145.28l-17.4 2.13-8.88 26.21c-16.12 35.08-48.32 598.78-35.25 683.15Z" class="color6bb14e svgShape"/><path fill="#ffffff" d="M3516.45 1131.23c.62-14.83 59.38-63.43 74.09-59.31s-.28 9-1 22.66 3.42 19-3.32 21.82-12.48-16.82-31.44-7.85-37.44 33.48-37.44 33.48Z" class="colorfff svgShape"/><path fill="#6bb14e" d="m3935.44 1434.56-204.81-97.41c18.21-29.52-67.25-104.77-99.18-151.89-40.8-60.19-23.88-91.86 65.8-60.26 131.11 46.19 280.68 176.51 238.19 309.56Z" class="color6bb14e svgShape"/><path fill="#57a542" d="M3730.64 1337.16c32.09-16.74 43.26-64.62 29.78-101.77s-134.55-87.59-150-74.5 120.22 176.27 120.22 176.27Z" class="color57a542 svgShape"/><path fill="#ffcfd2" d="M3587.86 930.52c-.05 13.49-.34 23.65-.23 24.91.3 3.6 1.84 101.18-40.42 111.25s-68.52-19.34-84-81.68l-4.55-25.07s-1-6.51-2.45-16.15c-2.6-17.67-6.48-45.9-7.62-64-.44-6.88-.48-12.29.1-15.1 2.93-14.19 123-26.64 132.28-8.53.22.42.43.87.63 1.36 5.55 13.12 6.32 48.49 6.26 73.01Z" class="colorffcfd2 svgShape"/><path fill="#fcb1b5" d="M3461 911.08c23.78 9.54 74.49-31.27 107.69-13.88s10-29.33-51.46-18.47-58.75 16.78-59.69 22.81a10.62 10.62 0 0 0 3.46 9.54Z" class="colorfcb1b5 svgShape"/><path fill="#ffcfd2" d="M3572.78 959.49c1.09-21.44 25-44.36 36.15-29.28s-28.58 56.15-30.72 55.1-5.43-25.82-5.43-25.82ZM3472.72 967.8c-4.62-21-32-39.61-40.49-22.9s37.46 50.66 39.4 49.27 1.09-26.37 1.09-26.37Z" class="colorffcfd2 svgShape"/><path fill="#cc1f1b" d="M3475.32 893.19a109.45 109.45 0 0 0-19.07 50.6c-2.6-17.67-6.48-45.9-7.62-64 11.09 2.1 26.69 13.4 26.69 13.4ZM3587.86 930.52c-.27-1-13.31-49.56-52.49-44.48-29.86 3.88 17.66-20 46.27-28.5 5.51 13.09 6.28 48.46 6.22 72.98Z" class="colorcc1f1b svgShape"/><path fill="#ff790b" d="M3587.63 908.21c-1.12-23 27.83-95.63-67.3-103.11s-131.19 10.59-127.15 51.82 82.59 49.16 123.59 35 70.86 16.29 70.86 16.29Z" class="colorff790b svgShape"/><path fill="#fcb1b5" d="M3586.29 955.57c1.21-8.18 14.88-18.6 14.76-12s-12.34 16.78-13.7 19.86-1.06-7.86-1.06-7.86ZM3461.79 968.14c-2.49-7.72-17.41-15.59-16.22-9.22s14.65 14.24 16.47 17-.25-7.78-.25-7.78Z" class="colorfcb1b5 svgShape"/><path fill="#ffffff" d="M3505.39 1006.44c7.29 2.48 40.84-1.24 49.1-5.62s-6.21 45.83-24 51.32-43.49-52.14-25.1-45.7ZM3448.86 1086c13.3 2 18.93 40.09 14.43 50.11s13.81-21.46 31.86-19.07 15.91 30.9 20.47 28.88 6.69-23.13-13.67-45.86-53.09-14.06-53.09-14.06Z" class="colorfff svgShape"/><circle cx="3445.7" cy="1774.89" r="5.42" fill="#ffffff" class="colorfff svgShape"/><circle cx="3455.11" cy="1660.87" r="5.42" fill="#ffffff" class="colorfff svgShape"/><circle cx="3460.53" cy="1546.34" r="5.42" fill="#ffffff" class="colorfff svgShape"/><circle cx="3545.92" cy="1551.76" r="5.42" fill="#ffffff" class="colorfff svgShape"/><circle cx="3545.92" cy="1658.93" r="5.42" fill="#ffffff" class="colorfff svgShape"/><circle cx="3545.92" cy="1773.06" r="5.42" fill="#ffffff" class="colorfff svgShape"/><path fill="#6bb14e" d="M2980.16 1475.77c-1.49 2.1-2.66 3.35-3.35 3.47-5.21.92-50.31-19.94-47.55-30.68.29-1.16.61-2.75.93-4.65 1.95-11.15 4.41-33.15 7.56-44.78 1.25-4.64 2.62-7.62 4.09-7.63 12 0 52.78-1 62.9 10.06 8.78 9.65-14.8 60.44-24.58 74.21Z" class="color6bb14e svgShape"/><path fill="#ffcfd2" d="m2922.69 1400-7.69 36.65a108.14 108.14 0 0 0-19.69-5.8c-36.36-7-59 9.5-69.12 3.23-18.65-11.47 31.95-29.08 96.5-34.08Z" class="colorffcfd2 svgShape"/><path fill="#0e53e4" d="M3636.24 1365.54v2.69c-.02-.97-.01-1.87 0-2.69Z" class="color0e53e4 svgShape"/><path fill="#57a542" d="M3031.14 1506.9c-18.55-10.54-35.8-21.35-51-31.13 7-9.88 21-38.61 25.27-57.73-3.24 17.84-12.86 43.2-4.07 56.6 5.97 9.07 18.49 21.68 29.8 32.26Z" class="color57a542 svgShape"/><circle cx="2965.31" cy="1455.16" r="9.66" fill="#57a542" class="color57a542 svgShape"/><path fill="#fcb1b5" d="m2922.68 1400.06-7.69 36.65a108.14 108.14 0 0 0-19.69-5.8c4.52-.71 8.9-1.59 11.26-2.6 6.03-2.57 15.83-27.47 16.12-28.25Z" class="colorfcb1b5 svgShape"/><path fill="#0e1c54" d="m3466 1760.15-.2 2.52c.02-.83.09-1.67.2-2.52ZM3703.62 2778.8c-13.63 54.63-25.17 87.09-31.34 86.62-28.31-2.19-116.81.9-130.23 0h-.33s100.28-1.74 161.9-86.62ZM3398.65 2745.05c-12.45 72.86-24.09 120.49-33.81 119.74-36.68-2.84-93.12 6.16-122.51-5.68 56.8 2.82 114.52-2.38 133-47.26 8.4-20.48 16.61-45.06 23.32-66.8Z" class="color0e1c54 svgShape"/><path fill="#0e53e4" d="M3467.63 1208.65a1.34 1.34 0 0 1-.56-.05 1.52 1.52 0 0 1-1.07-1.87c.18-.66 10.16-93.57 22.19-130.3a1.53 1.53 0 1 1 2.91 1c-12 36.66-22 129.49-22.15 130.15a1.52 1.52 0 0 1-1.32 1.07Z" class="color0e53e4 svgShape"/><path fill="#0e53e4" d="M3466.92 1206.87a1.53 1.53 0 0 0 2.15.27c71.14-55.53 104.09-125.51 93.47-140.29a1.53 1.53 0 1 0-2.48 1.79c8.46 11.78-20.22 79.37-92.87 136.09a1.52 1.52 0 0 0-.27 2.14Z" class="color0e53e4 svgShape"/><path fill="#0e53e4" d="m3452.4 1306.49-40.32-15.44a5.21 5.21 0 0 1-3-6.72l32.23-84.15a5.19 5.19 0 0 1 6.71-3l40.32 15.44a5.2 5.2 0 0 1 3 6.71l-32.23 84.16a5.2 5.2 0 0 1-6.71 3Z" class="color0e53e4 svgShape"/><path fill="#1472fa" d="m3462.79 1247.86-19.29-7.39a4.42 4.42 0 0 1-2.21-1.86 4.36 4.36 0 0 1-.33-3.82l7.39-19.3a4.4 4.4 0 0 1 5.65-2.49l19.3 7.39a4.42 4.42 0 0 1 2.54 5.68l-7.39 19.3a4.4 4.4 0 0 1-5.69 2.54ZM3430.07 1250.75c3.26.91 6.46 2 9.66 3.07s6.35 2.26 9.51 3.45 6.28 2.44 9.38 3.78l4.65 2c1.53.72 3.08 1.39 4.59 2.16-1.64-.45-3.24-1-4.86-1.46l-4.8-1.61c-3.2-1.08-6.35-2.27-9.51-3.45s-6.28-2.45-9.38-3.79-6.21-2.65-9.24-4.15ZM3426.53 1260c3.26.91 6.46 2 9.65 3.07s6.36 2.27 9.52 3.45 6.28 2.45 9.38 3.79l4.65 2c1.53.73 3.08 1.4 4.59 2.16-1.64-.44-3.24-1-4.86-1.46l-4.8-1.6c-3.2-1.08-6.36-2.27-9.51-3.46s-6.29-2.45-9.38-3.78-6.21-2.68-9.24-4.17ZM3423 1269.24c3.26.91 6.46 2 9.65 3.07s6.36 2.26 9.52 3.45 6.28 2.45 9.38 3.78l4.65 2c1.53.72 3.07 1.4 4.59 2.16-1.64-.44-3.24-1-4.86-1.46l-4.8-1.61c-3.2-1.07-6.36-2.26-9.51-3.45s-6.29-2.45-9.39-3.79-6.23-2.65-9.23-4.15Z" class="color1472fa svgShape"/><path fill="#d3dce2" d="M3536.88 1111.68c-.86 2.42-77.54 248.23-77.54 248.23s302.5-145.93 301.08-150-1-27.64-17.12-42.61-203.71-63.23-206.42-55.62Z" class="colord3dce2 svgShape"/><path fill="#ebeff2" d="M3547 1132.61c8.44-6.86 203.79 46.51 212.19 52.89s1.19 24.37 1.19 24.37l-251.59.74s21.76-67.4 26.77-73.94 11.44-4.06 11.44-4.06Z" class="colorebeff2 svgShape"/><path fill="#ffffff" d="M3673.08 1545.66c-2.9 1.6-21.32.25-47.11-2.73-75.18-8.64-213.28-30.93-213.93-33.61-.33-1.42 13.51-45.2 31.17-99.79 2.36-7.26 4.78-14.74 7.24-22.32 25.8-79.35 56.29-171.51 63.35-190.78 12.79-35 19.84-47.39 28-45.33 19.77 5 223.3 37.12 218.64 58.75-3.26 15.11-39 169.62-64.11 263.73-10.92 40.77-19.83 70.2-23.25 72.08Z" class="colorfff svgShape"/><path fill="#ffcfd2" d="M3575.42 1447.87c-7.86-3.09-15.38-6.18-22.49-9.22-44.53-19.1-72.61-36.39-67-41.69 8.87-8.49 48.49-15.55 93.47-22.73-2.5 14-8.79 54.21-3.98 73.64Z" class="colorffcfd2 svgShape"/><path fill="#6bb14e" d="M3935.45 1434.56q-2.25 7.07-5.24 14.12c-29.15 68.94-145.19 60.71-251.47 32.91-16.36-4.29-32.48-9-48-14 1.56-14.74 3.66-50.89 4.76-77.46a2.23 2.23 0 0 0 0-.36c.33-8 .57-15 .68-20.38v-4.21c36.57-6.12 69.71-12.73 85.82-20.65a20.24 20.24 0 0 0 8.58-7.34Z" class="color6bb14e svgShape"/><path fill="#6bb14e" d="M3636.25 1365.15c-.14 20-3.35 81.91-5.53 102.41-.42 3.86-.8 6.26-1.11 6.63-2.24 2.65-38.42-3-50.8-18.56a20.39 20.39 0 0 1-3.39-7.76c-4.81-19.44 1.48-59.64 3.94-73.63.54-3.12.89-4.93.89-4.93 7.6-4.94 54.52-16 55.8-10.18a43.08 43.08 0 0 1 .2 6.02Z" class="color6bb14e svgShape"/><path fill="#57a542" d="M3678.74 1481.59c-16.36-4.29-32.48-9-48-14 1.56-14.74 3.66-50.89 4.76-77.46-.57 24.14.18 56 11.69 67.43 9.81 9.78 22.73 18.54 31.55 24.03Z" class="color57a542 svgShape"/><circle cx="3603.4" cy="1442.32" r="10.23" fill="#57a542" class="color57a542 svgShape"/><path fill="#fcb1b5" d="M3575.42 1447.87c-7.86-3.09-15.38-6.18-22.49-9.22 4.64-.48 8.92-1.33 11.4-2.81 7.49-4.47 1.63-40.56 15-61.61-2.43 14-8.72 54.21-3.91 73.64Z" class="colorfcb1b5 svgShape"/></g></g></svg>