<svg xmlns="http://www.w3.org/2000/svg" xmlns:xlink="http://www.w3.org/1999/xlink" viewBox="0 0 800 600"><defs><linearGradient id="a" x1="574.4" x2="669.41" y1="415.36" y2="415.36" gradientUnits="userSpaceOnUse"><stop offset="0" stop-color="#c6cbe7" class="stopColorc6cbe7 svgShape"/><stop offset=".26" stop-color="#d6d9ee" class="stopColord6d9ee svgShape"/><stop offset=".98" stop-color="#ffffff" class="stopColorfff svgShape"/></linearGradient><linearGradient id="l" x1="580.33" x2="585.02" y1="405.62" y2="416.69" xlink:href="#a"/><linearGradient id="m" x1="598.89" x2="604.24" y1="415.81" y2="427.15" xlink:href="#a"/><linearGradient id="n" x1="1341.23" x2="1369.83" y1="430" y2="380.46" gradientTransform="matrix(-1 0 0 1 1952.21 0)" gradientUnits="userSpaceOnUse"><stop offset=".24" stop-color="#34318f" class="stopColor34318f svgShape"/><stop offset=".51" stop-color="#7f7ff4" class="stopColor7f7ff4 svgShape"/></linearGradient><linearGradient id="b" x1="1356.31" x2="1366.58" y1="408.61" y2="426.41" gradientTransform="matrix(-1 0 0 1 1952.21 0)" gradientUnits="userSpaceOnUse"><stop offset=".55" stop-color="#f7f7fc" class="stopColorf7f7fc svgShape"/><stop offset=".92" stop-color="#d0d4f6" class="stopColord0d4f6 svgShape"/></linearGradient><linearGradient id="o" x1="1375.45" x2="1385.72" y1="397.57" y2="415.36" xlink:href="#b"/><linearGradient id="p" x1="522.37" x2="680.86" y1="525.8" y2="525.8" gradientUnits="userSpaceOnUse"><stop offset="0" stop-color="#c6cbe7" class="stopColorc6cbe7 svgShape"/><stop offset=".29" stop-color="#d2d6ec" class="stopColord2d6ec svgShape"/><stop offset=".8" stop-color="#f1f3f9" class="stopColorf1f3f9 svgShape"/><stop offset="1" stop-color="#ffffff" class="stopColorfff svgShape"/></linearGradient><linearGradient id="q" x1="490.22" x2="652.4" y1="545.88" y2="545.88" gradientUnits="userSpaceOnUse"><stop offset="0" stop-color="#4141aa" class="stopColor4141aa svgShape"/><stop offset="1" stop-color="#1e1c6b" class="stopColor1e1c6b svgShape"/></linearGradient><linearGradient id="s" x1="559.78" x2="582.84" y1="519.84" y2="519.84" gradientUnits="userSpaceOnUse"><stop offset="0" stop-color="#34318f" class="stopColor34318f svgShape"/><stop offset="1" stop-color="#0b0b33" class="stopColor0b0b33 svgShape"/></linearGradient><linearGradient id="t" x1="449.67" x2="507.01" y1="299.71" y2="399.03" gradientTransform="matrix(.87 .5 0 1.15 110.69 -443.99)" gradientUnits="userSpaceOnUse"><stop offset="0" stop-color="#7f7ff4" class="stopColor7f7ff4 svgShape"/><stop offset=".36" stop-color="#6464d4" class="stopColor6464d4 svgShape"/><stop offset=".77" stop-color="#4b4bb5" class="stopColor4b4bb5 svgShape"/><stop offset="1" stop-color="#4141aa" class="stopColor4141aa svgShape"/></linearGradient><linearGradient id="u" x1="520.03" x2="533.92" y1="223.53" y2="199.47" gradientUnits="userSpaceOnUse"><stop offset="0" stop-color="#000000" class="stopColor000000 svgShape"/><stop offset=".19" stop-color="#321217" class="stopColor321217 svgShape"/><stop offset=".48" stop-color="#752a35" class="stopColor752a35 svgShape"/><stop offset=".72" stop-color="#a73c4c" class="stopColora73c4c svgShape"/><stop offset=".9" stop-color="#c6475a" class="stopColorc6475a svgShape"/><stop offset="1" stop-color="#d14b5f" class="stopColord14b5f svgShape"/></linearGradient><linearGradient id="v" x1="48.44" x2="165.21" y1="318.18" y2="345.29" gradientUnits="userSpaceOnUse"><stop offset="0" stop-color="#f3b378" class="stopColorf3b378 svgShape"/><stop offset=".35" stop-color="#b08b99" class="stopColorb08b99 svgShape"/><stop offset=".65" stop-color="#7f6eb1" class="stopColor7f6eb1 svgShape"/><stop offset=".87" stop-color="#605cc0" class="stopColor605cc0 svgShape"/><stop offset="1" stop-color="#5555c6" class="stopColor5555c6 svgShape"/></linearGradient><linearGradient id="i" x1="154.82" x2="485.62" y1="428.2" y2="428.2" gradientUnits="userSpaceOnUse"><stop offset="0" stop-color="#d3d8f2" class="stopColord3d8f2 svgShape"/><stop offset=".06" stop-color="#d6daf3" class="stopColord6daf3 svgShape"/><stop offset=".98" stop-color="#ffffff" class="stopColorfff svgShape"/></linearGradient><linearGradient id="w" x1="2164.14" x2="2395.24" y1="27.34" y2="427.63" gradientTransform="matrix(-1 0 0 1 2470.88 0)" gradientUnits="userSpaceOnUse"><stop offset=".3" stop-color="#6a6ae0" class="stopColor6a6ae0 svgShape"/><stop offset=".32" stop-color="#6161d4" class="stopColor6161d4 svgShape"/><stop offset=".41" stop-color="#4141aa" class="stopColor4141aa svgShape"/></linearGradient><linearGradient id="x" x1="327.42" x2="146.9" y1="337.51" y2="156.98" gradientUnits="userSpaceOnUse"><stop offset="0" stop-color="#6a6ae2" class="stopColor6a6ae2 svgShape"/><stop offset=".11" stop-color="#7979e5" class="stopColor7979e5 svgShape"/><stop offset=".52" stop-color="#a8aaee" class="stopColora8aaee svgShape"/><stop offset=".83" stop-color="#c5c9f4" class="stopColorc5c9f4 svgShape"/><stop offset="1" stop-color="#d0d4f6" class="stopColord0d4f6 svgShape"/></linearGradient><linearGradient id="c" x1="372.37" x2="392.66" y1="464.92" y2="429.79" gradientUnits="userSpaceOnUse"><stop offset="0" stop-color="#f6f6fb" class="stopColorf6f6fb svgShape"/><stop offset="1" stop-color="#ced3f8" class="stopColorced3f8 svgShape"/></linearGradient><linearGradient id="d" x1="385.97" x2="368.33" y1="453.08" y2="435.44" gradientUnits="userSpaceOnUse"><stop offset="0" stop-color="#bdc1e4" class="stopColorbdc1e4 svgShape"/><stop offset=".87" stop-color="#6364ca" class="stopColor6364ca svgShape"/><stop offset="1" stop-color="#5555c6" class="stopColor5555c6 svgShape"/></linearGradient><linearGradient id="z" x1="523.87" x2="544.15" y1="377.46" y2="342.33" xlink:href="#c"/><linearGradient id="B" x1="537.46" x2="519.82" y1="365.62" y2="347.97" xlink:href="#d"/><linearGradient id="C" x1="241.23" x2="358.64" y1="453.8" y2="453.8" gradientUnits="userSpaceOnUse"><stop offset=".36" stop-color="#d67747" class="stopColord67747 svgShape"/><stop offset=".78" stop-color="#c5693e" class="stopColorc5693e svgShape"/><stop offset="1" stop-color="#ba6038" class="stopColorba6038 svgShape"/></linearGradient><linearGradient id="e" x1="313.5" x2="382.9" y1="414.73" y2="414.73" gradientUnits="userSpaceOnUse"><stop offset="0" stop-color="#f3b378" class="stopColorf3b378 svgShape"/><stop offset=".41" stop-color="#f1ab6f" class="stopColorf1ab6f svgShape"/><stop offset="1" stop-color="#ed995a" class="stopColored995a svgShape"/></linearGradient><linearGradient id="D" x1="254.37" x2="293.16" y1="370.47" y2="370.47" xlink:href="#e"/><linearGradient id="F" x1="408.29" x2="528.77" y1="418.51" y2="264.31" gradientUnits="userSpaceOnUse"><stop offset=".95" stop-color="#34318f" class="stopColor34318f svgShape"/><stop offset=".96" stop-color="#383696" class="stopColor383696 svgShape"/><stop offset=".97" stop-color="#4543a9" class="stopColor4543a9 svgShape"/><stop offset=".99" stop-color="#5958c7" class="stopColor5958c7 svgShape"/><stop offset="1" stop-color="#6a6ae2" class="stopColor6a6ae2 svgShape"/></linearGradient><linearGradient id="G" x1="401.66" x2="311.63" y1="371.93" y2="325.88" gradientUnits="userSpaceOnUse"><stop offset=".02" stop-color="#1e1c6b" class="stopColor1e1c6b svgShape"/><stop offset=".08" stop-color="#34318f" class="stopColor34318f svgShape"/></linearGradient><linearGradient id="H" x1="296.3" x2="409.99" y1="346.03" y2="346.03" gradientUnits="userSpaceOnUse"><stop offset="0" stop-color="#6a6ae2" class="stopColor6a6ae2 svgShape"/><stop offset=".98" stop-color="#4141aa" class="stopColor4141aa svgShape"/></linearGradient><linearGradient id="f" x1="307.37" x2="407.24" y1="333.65" y2="333.65" gradientUnits="userSpaceOnUse"><stop offset="0" stop-color="#000000" class="stopColor000000 svgShape"/><stop offset="1" stop-color="#34318f" class="stopColor34318f svgShape"/></linearGradient><linearGradient id="I" x1="340.43" x2="312.59" y1="345.84" y2="309.03" gradientUnits="userSpaceOnUse"><stop offset="0" stop-color="#000000" class="stopColor000000 svgShape"/><stop offset="1" stop-color="#4141aa" class="stopColor4141aa svgShape"/></linearGradient><linearGradient id="J" x1="292.94" x2="338.45" y1="335.4" y2="304.8" xlink:href="#f"/><linearGradient id="K" x1="392.84" x2="419.91" y1="389.48" y2="389.48" gradientUnits="userSpaceOnUse"><stop offset="0" stop-color="#34318f" class="stopColor34318f svgShape"/><stop offset="1" stop-color="#1e1c6b" class="stopColor1e1c6b svgShape"/></linearGradient><linearGradient id="L" x1="563.86" x2="563.86" y1="313.38" y2="302.64" gradientUnits="userSpaceOnUse"><stop offset="0" stop-color="#ec6675" class="stopColorec6675 svgShape"/><stop offset=".04" stop-color="#ed6975" class="stopColored6975 svgShape"/><stop offset=".34" stop-color="#f17b73" class="stopColorf17b73 svgShape"/><stop offset=".66" stop-color="#f38671" class="stopColorf38671 svgShape"/><stop offset="1" stop-color="#f48a71" class="stopColorf48a71 svgShape"/></linearGradient><linearGradient id="g" x1="250.67" x2="282.89" y1="461.53" y2="461.53" gradientUnits="userSpaceOnUse"><stop offset="0" stop-color="#9b4c2d" class="stopColor9b4c2d svgShape"/><stop offset="1" stop-color="#ba6038" class="stopColorba6038 svgShape"/></linearGradient><linearGradient id="M" x1="289.68" x2="306.21" y1="473.81" y2="473.81" xlink:href="#g"/><linearGradient id="N" x1="296.25" x2="293.72" y1="471.38" y2="473.74" gradientUnits="userSpaceOnUse"><stop offset="0" stop-color="#1e1c6b" class="stopColor1e1c6b svgShape"/><stop offset="1" stop-color="#5555c6" class="stopColor5555c6 svgShape"/></linearGradient><linearGradient id="O" x1="300.23" x2="297.41" y1="472.07" y2="474.32" gradientUnits="userSpaceOnUse"><stop offset="0" stop-color="#1e1c6b" class="stopColor1e1c6b svgShape"/><stop offset=".05" stop-color="#211f70" class="stopColor211f70 svgShape"/><stop offset=".48" stop-color="#3d3c9f" class="stopColor3d3c9f svgShape"/><stop offset=".81" stop-color="#4f4ebb" class="stopColor4f4ebb svgShape"/><stop offset="1" stop-color="#5555c6" class="stopColor5555c6 svgShape"/></linearGradient><linearGradient id="P" x1="304.14" x2="301.03" y1="472.89" y2="474.75" gradientUnits="userSpaceOnUse"><stop offset="0" stop-color="#1e1c6b" class="stopColor1e1c6b svgShape"/><stop offset=".18" stop-color="#222071" class="stopColor222071 svgShape"/><stop offset=".42" stop-color="#2c2b82" class="stopColor2c2b82 svgShape"/><stop offset=".7" stop-color="#3d3c9f" class="stopColor3d3c9f svgShape"/><stop offset="1" stop-color="#5555c6" class="stopColor5555c6 svgShape"/><stop offset="1" stop-color="#5555c6" class="stopColor5555c6 svgShape"/></linearGradient><linearGradient id="Q" x1="241.12" x2="346.32" y1="429.42" y2="429.42" gradientUnits="userSpaceOnUse"><stop offset="0" stop-color="#d0d4f6" class="stopColord0d4f6 svgShape"/><stop offset="0" stop-color="#d1d5f6" class="stopColord1d5f6 svgShape"/><stop offset=".01" stop-color="#e2e4f9" class="stopColore2e4f9 svgShape"/><stop offset=".03" stop-color="#eeeffb" class="stopColoreeeffb svgShape"/><stop offset=".05" stop-color="#f5f5fc" class="stopColorf5f5fc svgShape"/><stop offset=".12" stop-color="#f7f7fc" class="stopColorf7f7fc svgShape"/><stop offset=".54" stop-color="#f5f5fc" class="stopColorf5f5fc svgShape"/><stop offset=".57" stop-color="#f2f2fb" class="stopColorf2f2fb svgShape"/><stop offset=".84" stop-color="#d9dcf7" class="stopColord9dcf7 svgShape"/><stop offset="1" stop-color="#d0d4f6" class="stopColord0d4f6 svgShape"/></linearGradient><linearGradient id="h" x1="292.27" x2="292.27" y1="464.58" y2="443.6" gradientUnits="userSpaceOnUse"><stop offset="0" stop-color="#ffffff" class="stopColorfff svgShape"/><stop offset=".09" stop-color="#f4f4f4" class="stopColorf4f4f4 svgShape"/><stop offset=".24" stop-color="#d7d7d7" class="stopColord7d7d7 svgShape"/><stop offset=".44" stop-color="#a7a7a7" class="stopColora7a7a7 svgShape"/><stop offset=".67" stop-color="#656565" class="stopColor656565 svgShape"/><stop offset=".94" stop-color="#121212" class="stopColor121212 svgShape"/><stop offset="1" stop-color="#000000" class="stopColor000000 svgShape"/></linearGradient><linearGradient id="R" x1="302.45" x2="302.45" y1="465.17" y2="445.79" xlink:href="#h"/><linearGradient id="S" x1="247.29" x2="247.29" y1="434.62" y2="421.73" xlink:href="#h"/><linearGradient id="T" x1="243.99" x2="243.99" y1="426.64" y2="416.35" xlink:href="#h"/><linearGradient id="U" x1="312.69" x2="312.69" y1="464.65" y2="445.29" xlink:href="#h"/><linearGradient id="V" x1="242.23" x2="346.13" y1="420.92" y2="420.92" gradientUnits="userSpaceOnUse"><stop offset="0" stop-color="#f7f7fc" class="stopColorf7f7fc svgShape"/><stop offset=".13" stop-color="#fdfdfe" class="stopColorfdfdfe svgShape"/><stop offset=".5" stop-color="#ffffff" class="stopColorfff svgShape"/><stop offset="1" stop-color="#f7f7fc" class="stopColorf7f7fc svgShape"/></linearGradient><linearGradient id="W" x1="473.58" x2="492.63" y1="254.66" y2="254.66" xlink:href="#i"/><linearGradient id="X" x1="394.39" x2="517.55" y1="478.55" y2="478.55" gradientUnits="userSpaceOnUse"><stop offset="0" stop-color="#c6cbe7" class="stopColorc6cbe7 svgShape"/><stop offset="1" stop-color="#ffffff" class="stopColorfff svgShape"/></linearGradient><linearGradient id="Y" x1="427.45" x2="473.73" y1="472.47" y2="472.47" gradientUnits="userSpaceOnUse"><stop offset=".87" stop-color="#bdc1e4" class="stopColorbdc1e4 svgShape"/><stop offset="1" stop-color="#d0d4f6" class="stopColord0d4f6 svgShape"/></linearGradient><linearGradient id="j" x1="479.97" x2="508.12" y1="460.68" y2="460.68" gradientUnits="userSpaceOnUse"><stop offset="0" stop-color="#7f7ff4" class="stopColor7f7ff4 svgShape"/><stop offset=".61" stop-color="#5a5ac8" class="stopColor5a5ac8 svgShape"/><stop offset="1" stop-color="#4141aa" class="stopColor4141aa svgShape"/></linearGradient><linearGradient id="Z" x1="406.64" x2="434.77" y1="503.26" y2="503.26" xlink:href="#j"/><linearGradient id="aa" x1="146.97" x2="209.19" y1="492.58" y2="492.58" gradientUnits="userSpaceOnUse"><stop offset="0" stop-color="#c6cbe7" class="stopColorc6cbe7 svgShape"/><stop offset=".1" stop-color="#ccd1ea" class="stopColorccd1ea svgShape"/><stop offset="1" stop-color="#ffffff" class="stopColorfff svgShape"/></linearGradient><linearGradient id="ab" x1="119.11" x2="173.11" y1="471.33" y2="471.33" gradientUnits="userSpaceOnUse"><stop offset="0" stop-color="#f7f7fc" class="stopColorf7f7fc svgShape"/><stop offset=".31" stop-color="#f1f2fb" class="stopColorf1f2fb svgShape"/><stop offset=".71" stop-color="#e0e2f8" class="stopColore0e2f8 svgShape"/><stop offset="1" stop-color="#d0d4f6" class="stopColord0d4f6 svgShape"/></linearGradient><linearGradient id="ac" x1="120.31" x2="171.91" y1="492.58" y2="492.58" gradientUnits="userSpaceOnUse"><stop offset="0" stop-color="#5555c6" class="stopColor5555c6 svgShape"/><stop offset=".12" stop-color="#5959cb" class="stopColor5959cb svgShape"/><stop offset=".62" stop-color="#6565dc" class="stopColor6565dc svgShape"/><stop offset="1" stop-color="#6a6ae2" class="stopColor6a6ae2 svgShape"/></linearGradient><linearGradient id="ad" x1="124.94" x2="124.94" y1="503.12" y2="437.35" gradientUnits="userSpaceOnUse"><stop offset="0" stop-color="#1e1c6b" class="stopColor1e1c6b svgShape"/><stop offset=".61" stop-color="#2d2b84" class="stopColor2d2b84 svgShape"/><stop offset="1" stop-color="#34318f" class="stopColor34318f svgShape"/></linearGradient><linearGradient id="ae" x1="475.56" x2="519.65" y1="818.2" y2="818.2" gradientTransform="matrix(.87 .5 -1 .58 533.38 -286.74)" gradientUnits="userSpaceOnUse"><stop offset="0" stop-color="#c6cbe7" class="stopColorc6cbe7 svgShape"/><stop offset=".07" stop-color="#ccd1ea" class="stopColorccd1ea svgShape"/><stop offset=".44" stop-color="#e8eaf5" class="stopColore8eaf5 svgShape"/><stop offset=".76" stop-color="#f9fafc" class="stopColorf9fafc svgShape"/><stop offset="1" stop-color="#ffffff" class="stopColorfff svgShape"/></linearGradient><linearGradient id="af" x1="176.4" x2="123.3" y1="461.4" y2="446.36" gradientUnits="userSpaceOnUse"><stop offset="0" stop-color="#000000" class="stopColor000000 svgShape"/><stop offset=".32" stop-color="#0b0a26" class="stopColor0b0a26 svgShape"/><stop offset=".77" stop-color="#191758" class="stopColor191758 svgShape"/><stop offset="1" stop-color="#1e1c6b" class="stopColor1e1c6b svgShape"/></linearGradient><linearGradient id="ag" x1="136.4" x2="155.82" y1="432.88" y2="432.88" gradientUnits="userSpaceOnUse"><stop offset="0" stop-color="#5555c6" class="stopColor5555c6 svgShape"/><stop offset=".56" stop-color="#4442a9" class="stopColor4442a9 svgShape"/><stop offset="1" stop-color="#34318f" class="stopColor34318f svgShape"/></linearGradient><linearGradient id="ah" x1="119.11" x2="173.11" y1="440.9" y2="440.9" gradientUnits="userSpaceOnUse"><stop offset="0" stop-color="#d0d4f6" class="stopColord0d4f6 svgShape"/><stop offset=".73" stop-color="#b3b8da" class="stopColorb3b8da svgShape"/><stop offset="1" stop-color="#a7adce" class="stopColora7adce svgShape"/></linearGradient><linearGradient id="ai" x1="649.99" x2="713.59" y1="299.35" y2="317.6" xlink:href="#i"/><linearGradient id="aj" x1="642.37" x2="599.97" y1="307.36" y2="193.02" gradientUnits="userSpaceOnUse"><stop offset="0" stop-color="#d0d4f6" class="stopColord0d4f6 svgShape"/><stop offset=".74" stop-color="#f7f7fc" class="stopColorf7f7fc svgShape"/></linearGradient><linearGradient id="ak" x1="676.38" x2="623.9" y1="292.43" y2="234.39" gradientUnits="userSpaceOnUse"><stop offset="0" stop-color="#c4c9e4" class="stopColorc4c9e4 svgShape"/><stop offset="1" stop-color="#d0d4f6" class="stopColord0d4f6 svgShape"/></linearGradient><linearGradient id="al" x1="632.93" x2="676.78" y1="275.38" y2="275.38" gradientUnits="userSpaceOnUse"><stop offset="0" stop-color="#ffffff" class="stopColorfff svgShape"/><stop offset="1" stop-color="#dce1f4" class="stopColordce1f4 svgShape"/></linearGradient><linearGradient id="k" x1="603.65" x2="624.64" y1="178.41" y2="214.77" gradientUnits="userSpaceOnUse"><stop offset=".26" stop-color="#5555c6" class="stopColor5555c6 svgShape"/><stop offset=".93" stop-color="#7b7bef" class="stopColor7b7bef svgShape"/><stop offset="1" stop-color="#7f7ff4" class="stopColor7f7ff4 svgShape"/></linearGradient><linearGradient id="am" x1="644.36" x2="664.31" y1="203.38" y2="237.94" xlink:href="#k"/><linearGradient id="an" x1="667.08" x2="667.08" y1="305.55" y2="229.45" gradientUnits="userSpaceOnUse"><stop offset="0" stop-color="#1e1c6b" class="stopColor1e1c6b svgShape"/><stop offset=".67" stop-color="#353494" class="stopColor353494 svgShape"/><stop offset="1" stop-color="#4141aa" class="stopColor4141aa svgShape"/></linearGradient><linearGradient id="ao" x1="286.68" x2="350.35" y1="534" y2="534" gradientUnits="userSpaceOnUse"><stop offset="0" stop-color="#c4c9e4" class="stopColorc4c9e4 svgShape"/><stop offset="1" stop-color="#ffffff" class="stopColorfff svgShape"/></linearGradient><linearGradient id="ap" x1="271.81" x2="339.28" y1="540.49" y2="540.49" gradientUnits="userSpaceOnUse"><stop offset="0" stop-color="#f3b378" class="stopColorf3b378 svgShape"/><stop offset=".2" stop-color="#c49585" class="stopColorc49585 svgShape"/><stop offset=".47" stop-color="#8c7195" class="stopColor8c7195 svgShape"/><stop offset=".71" stop-color="#6357a0" class="stopColor6357a0 svgShape"/><stop offset=".89" stop-color="#4a47a7" class="stopColor4a47a7 svgShape"/><stop offset="1" stop-color="#4141aa" class="stopColor4141aa svgShape"/></linearGradient><linearGradient id="aq" x1="406.49" x2="420.47" y1="215.71" y2="191.49" gradientUnits="userSpaceOnUse"><stop offset="0" stop-color="#7f7ff4" class="stopColor7f7ff4 svgShape"/><stop offset=".28" stop-color="#7979ee" class="stopColor7979ee svgShape"/><stop offset=".65" stop-color="#6a6add" class="stopColor6a6add svgShape"/><stop offset="1" stop-color="#5555c6" class="stopColor5555c6 svgShape"/></linearGradient><linearGradient id="ar" x1="924.04" x2="932.83" y1="175.34" y2="190.05" gradientTransform="matrix(-1 0 0 1 1330.22 0)" gradientUnits="userSpaceOnUse"><stop offset="0" stop-color="#5555c6" class="stopColor5555c6 svgShape"/><stop offset="1" stop-color="#7f7ff4" class="stopColor7f7ff4 svgShape"/></linearGradient><clipPath id="y"><path fill="none" d="M381.31,463.22c-7.92,4.58-14.34.87-14.34-8.28s6.42-20.27,14.34-24.84,14.34-.87,14.34,8.28S389.23,458.65,381.31,463.22Z"/></clipPath><clipPath id="A"><path fill="none" d="M532.8,375.76c-7.92,4.57-14.34.87-14.34-8.28s6.42-20.27,14.34-24.84,14.34-.87,14.34,8.28S540.72,371.18,532.8,375.76Z"/></clipPath><clipPath id="E"><path fill="none" d="M386,406.71c-9,5.18-44.41,30-74,36.67-12.09,2.74-23.21,1.41-31.15-3.17l-15.4-8.9s-5.39-3-15.34-8.85c-5.24-3.09-8.42-14.3-2.93-28.8-5,9.64-6,27.49-6,27.49-.64,9.5,2.84,20.84,9.06,24.45,10,5.81,15.26,8.7,15.26,8.7l15.4,8.89c16.82,9.71,49.91,5,70.64-7l5.46-3.15c2.23-13.34,11.84-27.8,23.17-34a24,24,0,0,1,6.49-2.49C386.65,411.91,386.5,407.93,386,406.71Z"/></clipPath><radialGradient id="r" cx="58.52" cy="329.98" r="18.13" gradientTransform="matrix(.87 .5 -.87 .5 806.4 323.06)" gradientUnits="userSpaceOnUse"><stop offset=".3" stop-color="#ba6038" class="stopColorba6038 svgShape"/><stop offset=".37" stop-color="#934c2c" class="stopColor934c2c svgShape"/><stop offset=".46" stop-color="#66351f" class="stopColor66351f svgShape"/><stop offset=".56" stop-color="#422214" class="stopColor422214 svgShape"/><stop offset=".65" stop-color="#25130b" class="stopColor25130b svgShape"/><stop offset=".74" stop-color="#100805" class="stopColor100805 svgShape"/><stop offset=".84" stop-color="#040201" class="stopColor040201 svgShape"/><stop offset=".93" stop-color="#000000" class="stopColor000000 svgShape"/></radialGradient></defs><g style="isolation:isolate" fill="#000000" class="color000 svgShape"><path d="M666.85,405.65l-14.6-8.43a13,13,0,0,0-6.34-1.48H616.25l-34.67,16.6c-6.39,0-9,1.51-5.81,3.35l27.61,15.94c3.2,1.85,11,3.36,17.43,3.36h26.38c6.39,0,9-1.51,5.81-3.36l-8.71-5,21.5-12.41C670.17,411.66,670.65,407.84,666.85,405.65Z" style="mix-blend-mode:multiply" fill="url(#a)"/><path fill="#34318f" d="M620.21,391.43l-1.57-2.71,39.58-22.85a14.28,14.28,0,0,0,0-24.74l-81.47-47a36.73,36.73,0,0,0-36.65,0L517.74,307l-1.57-2.71,22.37-12.91a39.91,39.91,0,0,1,39.78,0l81.47,47a17.41,17.41,0,0,1,0,30.16Z" class="color34318f svgShape"/><path fill="#6a6ae2" d="M629.1,386.38,614.5,378c-3.8-2.19-10.42-1.91-14.8.62l-20.85,12L607.19,407l20.85-12C632.42,392.4,632.89,388.57,629.1,386.38Z" class="color6a6ae2 svgShape"/><path fill="#4141aa" d="M607.19,407l20.85-12c2.4-1.39,3.62-3.17,3.61-4.85,0,0,0,17.07,0,17.07,0,1.7-1.2,3.5-3.62,4.9l-20.85,12Z" class="color4141aa svgShape"/><path fill="#5555c6" d="M570,405.62a12.89,12.89,0,0,0,5.82,10.07l27.61,15.94c3.19,1.85,5.81.34,5.81-3.35V413.05A12.92,12.92,0,0,0,603.38,403L575.77,387c-3.2-1.84-5.82-.33-5.82,3.36Z" class="color5555c6 svgShape"/><path d="M588.46,417.76c-2.55-6.47-7-17.48-7-17.48L579,409l3.12,8.73Z" style="mix-blend-mode:multiply" fill="url(#l)"/><path d="M607.6,428.81c-2.56-6.47-7-17.48-7-17.48l-2.5,8.74,3.12,8.73Z" style="mix-blend-mode:multiply" fill="url(#m)"/><path fill="url(#n)" d="M609.19,428.28V413.05A12.92,12.92,0,0,0,603.38,403L575.77,387a4.11,4.11,0,0,0-4-.42l3.34-1.93c1.06-.65,2.53-.58,4.16.36L606.83,401a12.92,12.92,0,0,1,5.81,10.07v15.22c0,2-.77,3.35-2,3.89l-2.93,1.69A4.25,4.25,0,0,0,609.19,428.28Z"/><path fill="#bdc1e4" d="M600.59,420.07l-11.4,6.59c-2.1,1.2-3.79.23-3.79-2.19a8.36,8.36,0,0,1,3.79-6.56l11.4-6.58Z" class="colorbdc1e4 svgShape"/><path fill="url(#b)" d="M586.28,416.23l11.41-6.58,2.9,1.68-11.4,6.58a8.36,8.36,0,0,0-3.79,6.56,2.7,2.7,0,0,0,1,2.4l-2.75-1.59a2.59,2.59,0,0,1-1.19-2.49A8.39,8.39,0,0,1,586.28,416.23Z"/><path fill="#bdc1e4" d="M581.46,409l-11.41,6.58c-2.09,1.21-3.78.23-3.78-2.19a8.35,8.35,0,0,1,3.78-6.55l11.41-6.59Z" class="colorbdc1e4 svgShape"/><path fill="url(#o)" d="M567.15,405.19l11.4-6.59,2.91,1.68-11.41,6.59a8.35,8.35,0,0,0-3.78,6.55,2.7,2.7,0,0,0,1,2.4l-2.75-1.58a2.62,2.62,0,0,1-1.19-2.49A8.36,8.36,0,0,1,567.15,405.19Z"/><path d="M656.08,491.37c-17.54-10.13-40.87-14.8-63.78-14.12l-26.56.07v5.88a95.75,95.75,0,0,0-19,8.23c-32.67,19-32.48,49.78.39,68.76a95.41,95.41,0,0,0,18.6,8.07v6.15l33.72-.07c20.72-.34,41.25-5.05,57-14.2C689.14,541.14,689,510.36,656.08,491.37Z" style="mix-blend-mode:multiply" fill="url(#p)"/><path fill="url(#q)" d="M628.65,550.42c-31.67,18.28-83,18.28-114.68,0-15.83-9.15-23.75-21.13-23.75-33.11v10.33c0,12,7.92,24,23.75,33.1,31.67,18.29,83,18.29,114.68,0,15.84-9.14,23.75-21.12,23.75-33.1V517.31C652.4,529.29,644.49,541.27,628.65,550.42Z"/><path fill="#34318f" d="M490.22,517.31c0-12,7.92-24,23.75-33.11,31.67-18.28,83-18.28,114.68,0,15.84,9.15,23.75,21.13,23.75,33.11s-7.91,24-23.75,33.11c-31.67,18.28-83,18.28-114.68,0C498.14,541.27,490.22,529.29,490.22,517.31Z" class="color34318f svgShape"/><path fill="#f7f7fc" d="M627.51,484.86c-31-17.91-81.36-17.92-112.4,0s-31,47,0,64.9,81.36,17.92,112.4,0S658.55,502.78,627.51,484.86ZM517.16,548.58c-29.91-17.27-29.91-45.27,0-62.53s78.4-17.27,108.31,0,29.9,45.27,0,62.54S547.07,565.84,517.16,548.58Z" class="colorf7f7fc svgShape"/><path d="M555.61,508.24c8.67-5,22.73-5,31.4,0s8.68,13.13,0,18.14-22.73,5-31.4,0S546.94,513.25,555.61,508.24Z" style="mix-blend-mode:screen" fill="url(#r)"/><polygon fill="#7f7ff4" points="526.22 542.43 527.81 543.35 519.71 548.71 516.93 547.1 526.22 542.43" class="color7f7ff4 svgShape"/><polygon fill="#7f7ff4" points="512.14 536.58 512.82 537.26 507.01 539.55 505.81 538.34 512.14 536.58" class="color7f7ff4 svgShape"/><polygon fill="#7f7ff4" points="514.68 542.13 515.14 542.47 512.25 543.95 511.45 543.35 514.68 542.13" class="color7f7ff4 svgShape"/><polygon fill="#7f7ff4" points="505.48 532.82 505.77 533.22 502.32 534.22 501.82 533.52 505.48 532.82" class="color7f7ff4 svgShape"/><polygon fill="#7f7ff4" points="500.77 522.45 500.88 522.88 497.09 523.34 496.92 522.58 500.77 522.45" class="color7f7ff4 svgShape"/><polygon fill="#7f7ff4" points="500.87 511.74 500.78 512.17 496.92 512.04 497.09 511.28 500.87 511.74" class="color7f7ff4 svgShape"/><polygon fill="#7f7ff4" points="505.77 501.4 505.49 501.8 501.82 501.1 502.32 500.4 505.77 501.4" class="color7f7ff4 svgShape"/><polygon fill="#7f7ff4" points="515.14 492.15 514.68 492.5 511.45 491.27 512.25 490.67 515.14 492.15" class="color7f7ff4 svgShape"/><polygon fill="#7f7ff4" points="528.33 484.61 527.73 484.88 525.16 483.21 526.21 482.75 528.33 484.61" class="color7f7ff4 svgShape"/><polygon fill="#7f7ff4" points="544.46 479.3 543.76 479.47 542.02 477.48 543.24 477.19 544.46 479.3" class="color7f7ff4 svgShape"/><polygon fill="#7f7ff4" points="562.41 476.59 561.66 476.64 560.88 474.46 562.18 474.36 562.41 476.59" class="color7f7ff4 svgShape"/><polygon fill="#7f7ff4" points="580.97 476.64 580.22 476.59 580.44 474.36 581.75 474.46 580.97 476.64" class="color7f7ff4 svgShape"/><polygon fill="#7f7ff4" points="598.87 479.47 598.17 479.31 599.38 477.19 600.6 477.48 598.87 479.47" class="color7f7ff4 svgShape"/><polygon fill="#7f7ff4" points="614.89 484.88 614.29 484.61 616.41 482.75 617.46 483.21 614.89 484.88" class="color7f7ff4 svgShape"/><polygon fill="#7f7ff4" points="627.95 492.5 627.49 492.15 630.37 490.67 631.17 491.27 627.95 492.5" class="color7f7ff4 svgShape"/><polygon fill="#7f7ff4" points="637.14 501.8 636.85 501.4 640.3 500.4 640.81 501.1 637.14 501.8" class="color7f7ff4 svgShape"/><polygon fill="#7f7ff4" points="641.85 512.17 641.75 511.74 645.53 511.29 645.7 512.04 641.85 512.17" class="color7f7ff4 svgShape"/><polygon fill="#7f7ff4" points="641.75 522.88 641.85 522.45 645.7 522.58 645.53 523.34 641.75 522.88" class="color7f7ff4 svgShape"/><polygon fill="#7f7ff4" points="636.85 533.22 637.14 532.82 640.8 533.52 640.3 534.22 636.85 533.22" class="color7f7ff4 svgShape"/><polygon fill="#7f7ff4" points="627.49 542.47 627.94 542.13 631.17 543.35 630.37 543.95 627.49 542.47" class="color7f7ff4 svgShape"/><polygon fill="#7f7ff4" points="503.38 516.91 503.38 517.71 496.37 518 496.37 516.62 503.38 516.91" class="color7f7ff4 svgShape"/><polygon fill="#7f7ff4" points="512.82 497.36 512.14 498.04 505.81 496.28 507.01 495.07 512.82 497.36" class="color7f7ff4 svgShape"/><polygon fill="#7f7ff4" points="537.94 483.14 536.75 483.54 532.8 480.18 534.88 479.49 537.94 483.14" class="color7f7ff4 svgShape"/><polygon fill="#7f7ff4" points="572 478.09 570.63 478.09 570.11 474.04 572.51 474.04 572 478.09" class="color7f7ff4 svgShape"/><polygon fill="#7f7ff4" points="605.87 483.54 604.68 483.15 607.74 479.49 609.83 480.18 605.87 483.54" class="color7f7ff4 svgShape"/><polygon fill="#7f7ff4" points="630.49 498.04 629.8 497.36 635.62 495.07 636.82 496.28 630.49 498.04" class="color7f7ff4 svgShape"/><polygon fill="#7f7ff4" points="639.25 517.71 639.24 516.91 646.26 516.62 646.26 518 639.25 517.71" class="color7f7ff4 svgShape"/><polygon fill="#7f7ff4" points="629.8 537.26 630.49 536.58 636.82 538.34 635.62 539.55 629.8 537.26" class="color7f7ff4 svgShape"/><polygon fill="#7f7ff4" points="510.51 526.04 511.09 527.3 499.43 529.61 498.41 527.41 510.51 526.04" class="color7f7ff4 svgShape"/><polygon fill="#7f7ff4" points="511.09 507.32 510.51 508.58 498.41 507.21 499.43 505.01 511.09 507.32" class="color7f7ff4 svgShape"/><polygon fill="#7f7ff4" points="527.81 491.28 526.22 492.19 516.93 487.52 519.71 485.91 527.81 491.28" class="color7f7ff4 svgShape"/><polygon fill="#7f7ff4" points="556.18 482.2 554.01 482.54 550.01 475.81 553.81 475.22 556.18 482.2" class="color7f7ff4 svgShape"/><polygon fill="#7f7ff4" points="588.61 482.54 586.44 482.2 588.81 475.22 592.61 475.81 588.61 482.54" class="color7f7ff4 svgShape"/><polygon fill="#7f7ff4" points="616.4 492.19 614.82 491.27 622.92 485.91 625.7 487.52 616.4 492.19" class="color7f7ff4 svgShape"/><polygon fill="#7f7ff4" points="632.12 508.57 631.53 507.32 643.2 505.01 644.21 507.21 632.12 508.57" class="color7f7ff4 svgShape"/><polygon fill="#7f7ff4" points="631.53 527.3 632.12 526.04 644.21 527.41 643.2 529.61 631.53 527.3" class="color7f7ff4 svgShape"/><polygon fill="#7f7ff4" points="614.82 543.35 616.41 542.43 625.7 547.1 622.92 548.71 614.82 543.35" class="color7f7ff4 svgShape"/><g style="mix-blend-mode:screen" fill="#000000" class="color000 svgShape"><path fill="#d0d4f6" d="M532.86 493a2.3 2.3 0 00-1.43-.3 3.85 3.85 0 00-1.53.51 4.3 4.3 0 01.89.08 2.8 2.8 0 01.92.33 1.14 1.14 0 01.68.91c0 .35-.24.66-.74.95a3.12 3.12 0 01-1.68.4 3.34 3.34 0 01-1.68-.45c-.81-.46-1-1-.59-1.58a3.58 3.58 0 011.13-.95 7.49 7.49 0 011.45-.65 5.17 5.17 0 011.27-.21 3.72 3.72 0 012 .46 1.8 1.8 0 011 1.14l-1.05.11a.86.86 0 00-.18-.4A1.15 1.15 0 00532.86 493zm-2 1a2.1 2.1 0 00-1-.28 1.57 1.57 0 00-.91.19.61.61 0 00-.38.54q0 .31.42.57a2.13 2.13 0 001 .26 1.68 1.68 0 00.91-.21.63.63 0 00.39-.52C531.28 494.37 531.14 494.18 530.85 494zM532 496.8a2.66 2.66 0 011.38-1.38 5.79 5.79 0 012.39-.8 3.63 3.63 0 012.24.48c.68.39 1 .82.82 1.29a2.7 2.7 0 01-1.37 1.38 6 6 0 01-2.4.8 3.72 3.72 0 01-2.23-.48C532.15 497.69 531.88 497.26 532 496.8zm3.84-1.52a4.57 4.57 0 00-1.65.61 2.48 2.48 0 00-1.05.95c-.15.31 0 .59.41.83a2.16 2.16 0 001.43.24 4.87 4.87 0 001.65-.62 2.46 2.46 0 001.06-1c.15-.31 0-.58-.41-.83A2.12 2.12 0 00535.85 495.28z" class="colord0d4f6 svgShape"/><path fill="#ec6675" d="M604.69 533.73l1.82 1-5 2.89-.8-.46 4.25-2.46-1-.58zM608 536a3.73 3.73 0 011.58.47 1.53 1.53 0 01.82.92c.07.33-.09.6-.47.83a2.81 2.81 0 01-1.56.27q.27.69-.57 1.17a2.91 2.91 0 01-1.59.32 4 4 0 01-1.79-.53c-.56-.32-.86-.66-.92-1a.91.91 0 01.57-.92 3.12 3.12 0 012-.33.84.84 0 01.48-.9A2.52 2.52 0 01608 536zm-3.34 2.5a1 1 0 00.49.53 2.38 2.38 0 00.91.28 1.4 1.4 0 00.94-.16c.26-.15.36-.32.29-.53a1 1 0 00-.5-.53 2.16 2.16 0 00-.93-.29 1.41 1.41 0 00-.92.17C604.68 538.09 604.59 538.27 604.67 538.47zM607 537.2a.78.78 0 00.42.49 1.92 1.92 0 00.85.24 1.47 1.47 0 00.81-.15.44.44 0 00.26-.47.8.8 0 00-.42-.49 1.92 1.92 0 00-.85-.24 1.34 1.34 0 00-.8.16A.43.43 0 00607 537.2zM608.34 540.87a2.7 2.7 0 011.38-1.39 5.92 5.92 0 012.39-.79 3.63 3.63 0 012.24.48c.68.39.95.82.82 1.29a2.74 2.74 0 01-1.37 1.38 5.86 5.86 0 01-2.4.79 3.65 3.65 0 01-2.23-.47C608.49 541.76 608.21 541.33 608.34 540.87zm3.84-1.52a4.57 4.57 0 00-1.65.61 2.48 2.48 0 00-1 .95c-.15.31 0 .59.41.83a2.16 2.16 0 001.43.24 4.94 4.94 0 001.65-.62 2.52 2.52 0 001.06-1c.15-.31 0-.58-.41-.83A2.11 2.11 0 00612.18 539.35z" class="colorec6675 svgShape"/><path fill="#d0d4f6" d="M586.4 539.27l-.56-.32 3.33-1.93.88.51L589 539.32l3.1-.63.88.51-3.34 1.92-.56-.32 2.6-1.51-3.47.67-.32-.18 1.16-2zM595.82 541.2c0 .25-.14.48-.55.72a2.25 2.25 0 01-1.24.31 3.29 3.29 0 01-1.37-.47l-.59-.34-1 .56-.56-.32 3.33-1.93 1.15.66Q595.76 540.82 595.82 541.2zm-1.77.56a1.4 1.4 0 00.69-.2c.23-.13.32-.27.28-.41s-.23-.29-.53-.47l-.58-.33-1.33.77.65.38A1.55 1.55 0 00594.05 541.76zM593.79 543.54l3.33-1.93.57.33-1.45.83 1.66 1 1.44-.83.56.32-3.33 1.93-.56-.33 1.36-.79-1.65-.95-1.37.79zM548.51 542l-.91.53 1.48.85-.52.3-1.48-.85-1.38.79-.56-.32 3.34-1.93 2.22 1.29-.53.3zM515.15 510.09l.92-.53.8.46-.91.53.6.35-.77.44-.6-.35-1.26.73-.8-.46 1.26-.73-2.15-1.24.75-.43 4.83-.67.92.53-4.78.68zM516.39 512.39a2.66 2.66 0 011.38-1.38 5.94 5.94 0 012.39-.8 3.72 3.72 0 012.23.48c.69.39 1 .83.83 1.29a2.66 2.66 0 01-1.38 1.38 5.79 5.79 0 01-2.39.8 3.63 3.63 0 01-2.24-.48C516.53 513.29 516.26 512.86 516.39 512.39zm3.84-1.52a5 5 0 00-1.65.61 2.42 2.42 0 00-1.05.95c-.15.31 0 .59.41.83a2 2 0 001.43.24 4.79 4.79 0 001.64-.61 2.57 2.57 0 001.07-1c.15-.3 0-.58-.41-.82A2.18 2.18 0 00520.23 510.87z" class="colord0d4f6 svgShape"/><path fill="#f7c479" d="M557.21 484.26a3.6 3.6 0 011.58.48 1.48 1.48 0 01.82.91.76.76 0 01-.47.83 2.89 2.89 0 01-1.56.28c.18.45 0 .84-.57 1.16a2.82 2.82 0 01-1.59.33 4 4 0 01-1.79-.53c-.56-.33-.86-.67-.92-1a.92.92 0 01.57-.92 3.06 3.06 0 012-.32.83.83 0 01.48-.9A2.52 2.52 0 01557.21 484.26zm-3.34 2.51a1.07 1.07 0 00.49.53 2.57 2.57 0 00.91.28 1.53 1.53 0 00.94-.16c.26-.15.36-.33.29-.53a1 1 0 00-.5-.54 2.48 2.48 0 00-.93-.29 1.47 1.47 0 00-.92.17C553.88 486.38 553.79 486.56 553.87 486.77zm2.34-1.28a.79.79 0 00.42.5 1.88 1.88 0 00.85.24 1.51 1.51 0 00.8-.16.43.43 0 00.27-.46.78.78 0 00-.42-.49 1.92 1.92 0 00-.85-.24 1.42 1.42 0 00-.8.15A.44.44 0 00556.21 485.49zM557.54 489.16a2.66 2.66 0 011.38-1.38 5.79 5.79 0 012.39-.8 3.77 3.77 0 012.24.48c.68.39 1 .82.82 1.29a2.67 2.67 0 01-1.37 1.38 5.88 5.88 0 01-2.4.8 3.65 3.65 0 01-2.23-.48C557.68 490.06 557.41 489.63 557.54 489.16zm3.84-1.52a4.76 4.76 0 00-1.65.61 2.48 2.48 0 00-1.05.95c-.15.31 0 .59.41.83a2 2 0 001.43.24 4.94 4.94 0 001.65-.62 2.52 2.52 0 001.06-.95c.15-.3 0-.58-.41-.82A2.18 2.18 0 00561.38 487.64z" class="colorf7c479 svgShape"/><path fill="#f48a71" d="M618.33 519.23l1.82 1-5 2.89-.8-.46 4.25-2.46-1-.58zM622.72 522.53a2.37 2.37 0 00-1.43-.3 3.94 3.94 0 00-1.54.51 5.13 5.13 0 01.89.08 3.23 3.23 0 01.92.33c.45.26.68.56.68.91s-.24.66-.73 1a3.17 3.17 0 01-1.68.4 3.41 3.41 0 01-1.69-.45c-.8-.46-1-1-.59-1.58a3.7 3.7 0 011.13-1 6.92 6.92 0 011.46-.64 4.64 4.64 0 011.26-.22 3.67 3.67 0 012 .46 1.8 1.8 0 011 1.14l-1 .12a1.09 1.09 0 00-.18-.41A1.39 1.39 0 00622.72 522.53zm-2 1a2.11 2.11 0 00-1-.28 1.59 1.59 0 00-.91.19.65.65 0 00-.38.54.73.73 0 00.43.57 2 2 0 001 .26 1.77 1.77 0 00.91-.2.68.68 0 00.39-.53C621.14 523.87 621 523.69 620.71 523.52zM621.86 526.3a2.74 2.74 0 011.38-1.38 5.88 5.88 0 012.4-.8 3.67 3.67 0 012.23.48c.68.39 1 .82.83 1.29a2.66 2.66 0 01-1.38 1.38 5.84 5.84 0 01-2.39.8 3.76 3.76 0 01-2.24-.48C622 527.2 621.73 526.77 621.86 526.3zm3.85-1.52a4.76 4.76 0 00-1.65.61 2.52 2.52 0 00-1.06 1c-.14.31 0 .59.41.83a2.16 2.16 0 001.43.24 4.79 4.79 0 001.65-.62 2.56 2.56 0 001.07-.95c.14-.31 0-.58-.41-.82A2.07 2.07 0 00625.71 524.78z" class="colorf48a71 svgShape"/><path fill="#d0d4f6" d="M514.88 523.47a2.06 2.06 0 00.81-.22.47.47 0 00.28-.43c0-.17-.13-.32-.37-.46a2.65 2.65 0 00-1.65-.22l-.29-.62a5.58 5.58 0 011.47 0 3.37 3.37 0 011.28.44 1.26 1.26 0 01.7.87c0 .33-.16.63-.61.89a2.74 2.74 0 01-.94.31 12.21 12.21 0 01-1.64.1h-2.37l2.27 1.31-.81.47-3.42-2 .72-.41h3C514 523.51 514.54 523.5 514.88 523.47zM515 526.29a2.66 2.66 0 011.38-1.38 5.79 5.79 0 012.39-.8 3.65 3.65 0 012.23.48c.69.39 1 .82.83 1.29a2.66 2.66 0 01-1.38 1.38 5.79 5.79 0 01-2.39.8 3.72 3.72 0 01-2.23-.48C515.11 527.19 514.84 526.76 515 526.29zm3.84-1.52a4.76 4.76 0 00-1.65.61 2.42 2.42 0 00-1 1c-.15.31 0 .59.41.83a2.15 2.15 0 001.43.24 4.82 4.82 0 001.64-.62 2.5 2.5 0 001.07-.95c.15-.31 0-.58-.41-.82A2.07 2.07 0 00518.81 524.77z" class="colord0d4f6 svgShape"/><path fill="#f7c479" d="M580.27 481l1.82 1.05-5 2.89-.8-.46 4.25-2.46-1-.58zM579.37 485.5a2.71 2.71 0 011.37-1.39 6 6 0 012.4-.79 3.59 3.59 0 012.23.48c.69.39 1 .82.83 1.29a2.73 2.73 0 01-1.38 1.38 5.77 5.77 0 01-2.39.79 3.69 3.69 0 01-2.24-.47C579.51 486.39 579.24 486 579.37 485.5zm3.84-1.52a4.57 4.57 0 00-1.65.61 2.42 2.42 0 00-1 1c-.15.31 0 .59.41.83a2.15 2.15 0 001.43.24A4.82 4.82 0 00584 486a2.5 2.5 0 001.07-.95c.15-.31 0-.58-.41-.83A2.12 2.12 0 00583.21 484zM584.29 488.34a2.66 2.66 0 011.38-1.38 5.79 5.79 0 012.39-.8 3.7 3.7 0 012.24.48c.68.39 1 .82.82 1.29a2.67 2.67 0 01-1.37 1.38 5.88 5.88 0 01-2.4.8 3.72 3.72 0 01-2.23-.48C584.43 489.24 584.16 488.81 584.29 488.34zm3.84-1.52a4.76 4.76 0 00-1.65.61 2.42 2.42 0 00-1.05.95c-.15.31 0 .59.41.83a2.16 2.16 0 001.43.24 4.94 4.94 0 001.65-.62 2.52 2.52 0 001.06-.95c.15-.31 0-.58-.41-.82A2.07 2.07 0 00588.13 486.82z" class="colorf7c479 svgShape"/><path fill="#f3b378" d="M621.41 504.75l1.82 1-5 2.89-.8-.46 4.25-2.45-1-.59zM623.37 509.31l.91-.53.8.46-.91.53.6.35-.77.44-.6-.35-1.26.73-.8-.46 1.26-.73-2.14-1.24.74-.43 4.84-.67.92.54-4.79.67zM624.6 511.61a2.73 2.73 0 011.38-1.38 5.82 5.82 0 012.39-.79 3.68 3.68 0 012.24.47c.68.4 1 .83.83 1.29a2.78 2.78 0 01-1.38 1.39 5.86 5.86 0 01-2.4.79 3.6 3.6 0 01-2.23-.48C624.75 512.51 624.47 512.08 624.6 511.61zm3.84-1.52a4.84 4.84 0 00-1.64.61 2.46 2.46 0 00-1.06.95c-.15.32 0 .59.41.84a2.1 2.1 0 001.43.23 4.83 4.83 0 001.65-.61 2.59 2.59 0 001.06-.95c.15-.31 0-.59-.4-.83A2.2 2.2 0 00628.44 510.09z" class="colorf3b378 svgShape"/><path fill="#d0d4f6" d="M528.05,540.47a2.71,2.71,0,0,1,1.37-1.39,6,6,0,0,1,2.4-.79,3.59,3.59,0,0,1,2.23.48c.68.39,1,.82.83,1.29a2.73,2.73,0,0,1-1.38,1.38,5.82,5.82,0,0,1-2.39.79,3.68,3.68,0,0,1-2.24-.47C528.19,541.36,527.91,540.93,528.05,540.47Zm3.84-1.52a4.57,4.57,0,0,0-1.65.61,2.46,2.46,0,0,0-1.06,1c-.14.31,0,.59.42.83a2.15,2.15,0,0,0,1.43.24,5,5,0,0,0,1.64-.62,2.63,2.63,0,0,0,1.07-1c.15-.31,0-.58-.41-.83A2.12,2.12,0,0,0,531.89,539Z" class="colord0d4f6 svgShape"/><path fill="#f3b378" d="M608.59 490l1.82 1.05-5 2.89-.8-.47 4.25-2.45-1-.59zM611.81 494.14a1.91 1.91 0 00.81-.22.45.45 0 00.29-.42.64.64 0 00-.37-.46 2.66 2.66 0 00-1.66-.23l-.28-.62a6.59 6.59 0 011.47 0 3.46 3.46 0 011.27.45 1.24 1.24 0 01.7.86c.05.34-.15.64-.61.9a2.74 2.74 0 01-.94.31 12 12 0 01-1.63.1h-2.37l2.27 1.31-.81.46-3.42-2 .71-.41h3C611 494.19 611.48 494.17 611.81 494.14zM611.9 497a2.74 2.74 0 011.38-1.39 5.87 5.87 0 012.39-.79 3.62 3.62 0 012.24.48c.68.39 1 .82.83 1.29a2.73 2.73 0 01-1.38 1.38 5.87 5.87 0 01-2.39.79 3.68 3.68 0 01-2.24-.47C612.05 497.86 611.77 497.43 611.9 497zm3.85-1.52a4.44 4.44 0 00-1.65.61A2.46 2.46 0 00613 497c-.14.31 0 .59.41.83a2.16 2.16 0 001.43.24 5 5 0 001.65-.62 2.56 2.56 0 001.07-.95c.14-.31 0-.58-.41-.83A2.12 2.12 0 00615.75 495.45z" class="colorf3b378 svgShape"/></g><path fill="#1e1c6b" d="M585.14,548.19c-14.27,2.12-29.71.9-42.62-3.65L534.65,552c16.44,5.81,36.1,7.35,54.27,4.65Z" class="color1e1c6b svgShape"/><path fill="#7f7ff4" d="M553,552.77a92.79,92.79,0,0,1-15.09-3.87l-1.76,1.66A97.72,97.72,0,0,0,552,554.64Z" class="color7f7ff4 svgShape"/><path d="M553.74,549.48l-1.87,4,1.69.29,2.24-4C555.11,549.72,554.42,549.61,553.74,549.48Z" style="mix-blend-mode:screen" fill="#f48a71" class="colorf48a71 svgShape"/><path fill="#1e1c6b" d="M559.78,515.68c0-1.71,1.13-3.41,3.38-4.71a18,18,0,0,1,16.3,0c2.25,1.3,3.38,3,3.38,4.7s-1.13,3.41-3.38,4.71a18,18,0,0,1-16.3,0C560.91,519.08,559.78,517.38,559.78,515.68Z" class="color1e1c6b svgShape"/><path fill="url(#s)" d="M579.46,520.38a18,18,0,0,1-16.3,0c-2.23-1.29-3.36-3-3.37-4.67v1.53s0,0,0,.07c0,1.7,1.13,3.41,3.38,4.71a18,18,0,0,0,16.3,0c2.23-1.29,3.35-3,3.38-4.65v-1.63C582.81,517.42,581.69,519.1,579.46,520.38Z"/><polygon points="580.41 517.84 576.22 514.12 507.6 499.68 506.55 501.16 572.9 518.77 580.41 517.84" style="mix-blend-mode:screen" fill="#f48a71" class="colorf48a71 svgShape"/><path fill="url(#t)" d="M579,260.2c0,4.58-3.25,6.46-7.23,4.17L478.1,210.29a16,16,0,0,1-7.22-12.51V137c0-4.59,3.25-6.46,7.22-4.17l93.66,54.07A16,16,0,0,1,579,199.42Z"/><polygon fill="#ffffff" points="476.63 194.71 475.83 194.25 475.83 146.93 476.63 147.39 476.63 194.71" class="colorfff svgShape"/><polygon fill="#ffffff" points="490.45 202.69 489.65 202.23 489.65 154.91 490.45 155.37 490.45 202.69" class="colorfff svgShape"/><polygon fill="#ffffff" points="504.27 210.67 503.47 210.21 503.47 162.88 504.27 163.35 504.27 210.67" class="colorfff svgShape"/><polygon fill="#ffffff" points="518.09 218.65 517.29 218.19 517.29 170.86 518.09 171.32 518.09 218.65" class="colorfff svgShape"/><polygon fill="#ffffff" points="531.91 226.63 531.11 226.16 531.11 178.84 531.91 179.3 531.91 226.63" class="colorfff svgShape"/><polygon fill="#ffffff" points="545.73 234.61 544.92 234.14 544.92 186.82 545.73 187.28 545.73 234.61" class="colorfff svgShape"/><polygon fill="#ffffff" points="559.54 242.58 558.75 242.12 558.75 194.8 559.54 195.26 559.54 242.58" class="colorfff svgShape"/><polygon fill="#ffffff" points="573.36 250.56 572.56 250.1 572.56 202.78 573.36 203.24 573.36 250.56" class="colorfff svgShape"/><polygon fill="#ffffff" points="492.2 211.93 487.89 209.45 487.89 207.9 492.2 210.38 492.2 211.93" class="colorfff svgShape"/><polygon fill="#ffffff" points="478.39 203.94 474.07 201.46 474.07 199.91 478.39 202.4 478.39 203.94" class="colorfff svgShape"/><polygon fill="#ffffff" points="506.02 219.9 501.71 217.41 501.71 215.86 506.02 218.35 506.02 219.9" class="colorfff svgShape"/><polygon fill="#ffffff" points="519.84 227.87 515.53 225.38 515.53 223.83 519.84 226.32 519.84 227.87" class="colorfff svgShape"/><polygon fill="#ffffff" points="533.66 235.84 529.35 233.35 529.35 231.8 533.66 234.29 533.66 235.84" class="colorfff svgShape"/><polygon fill="#ffffff" points="547.48 243.81 543.17 241.32 543.17 239.77 547.48 242.26 547.48 243.81" class="colorfff svgShape"/><polygon fill="#ffffff" points="561.3 251.77 556.99 249.28 556.99 247.74 561.3 250.22 561.3 251.77" class="colorfff svgShape"/><polygon fill="#ffffff" points="575.12 259.74 570.81 257.25 570.81 255.7 575.12 258.19 575.12 259.74" class="colorfff svgShape"/><path d="M573,233a4.9,4.9,0,0,1-2.58-1c-5.12-2.95-10.46-17.58-20.54-23.4s-15.05,8.16-22.27,4-7.08-14.32-13-17.71-5.26,1.46-10.68-1.67-5.27-12.77-14.45-18.08c-5.66-3.27-10.44,1.89-13.25,1.94v21.11L573,254.09Z" style="mix-blend-mode:screen" fill="url(#u)"/><path fill="#ec6675" d="M549,230.78a8.18,8.18,0,0,1-4.17-1.2c-4.94-2.85-6.74-8.3-8.33-13.11-1.76-5.35-3.29-10-8.44-10.45s-6.37-6.71-7.69-12.75c-.95-4.4-1.94-9-4.34-10.34-2.72-1.57-4.2-.6-5.91.54s-3.54,2.32-6.47.63c-2.49-1.44-3.81-4.09-5.34-7.17-1.9-3.82-4-8.15-9.11-11.08-3.18-1.84-6.26,2.17-8.73,5.38-1.66,2.16-3,3.86-4.25,3.88l0-1c.78,0,2.14-1.77,3.44-3.48,2.72-3.53,6.11-7.94,10.08-5.64,5.33,3.08,7.56,7.56,9.53,11.52,1.45,2.92,2.7,5.45,4.92,6.73,2.37,1.37,3.76.45,5.37-.61s3.74-2.46,7-.57c2.8,1.62,3.79,6.19,4.84,11,1.24,5.67,2.51,11.54,6.76,11.93,5.84.53,7.54,5.7,9.34,11.17,1.61,4.85,3.26,9.87,7.86,12.53,5.5,3.17,9.87-1.52,13.37-5.29,2-2.18,3.78-4.06,5.46-4.09a2.39,2.39,0,0,1,1.75.76c1.61,1.61,3.74.57,5.61-.52a3,3,0,0,1,1.28-.57l0,1v-.52l0,.51a6.64,6.64,0,0,0-.81.44c-1.59.93-4.55,2.67-6.86.36a1.46,1.46,0,0,0-1-.46c-1.24,0-2.93,1.84-4.71,3.76C556.79,227,553.3,230.78,549,230.78Z" class="colorec6675 svgShape"/><path d="M491.21,170.86V140.39l-13.11-7.56c-4-2.29-7.22-.42-7.22,4.17v22.13Z" style="mix-blend-mode:multiply" fill="#d3d8f2" class="colord3d8f2 svgShape"/><path d="M154.16,267.48,60.5,321.56a16,16,0,0,0-7.22,12.51v58c0,4.58,3.25,6.46,7.22,4.17l93.66-54.08a16,16,0,0,0,7.23-12.51v-58C161.39,267.07,158.14,265.19,154.16,267.48Z" style="mix-blend-mode:multiply" fill="url(#v)"/><path d="M79,347.27V330.86c-7.85,4.53-14.22,15.56-14.22,24.62s6.37,12.74,14.22,8.21,14.21-15.56,14.21-24.62a14.66,14.66,0,0,0-.7-4.67Z" style="mix-blend-mode:multiply" fill="#c6cbe7" class="colorc6cbe7 svgShape"/><path fill="#ffffff" d="M92.51,334.4c-1.85-5.51-7.2-7.19-13.51-3.54v16.41Z" class="colorfff svgShape"/><polygon points="102.75 319.99 126.41 306.33 126.41 302.68 102.75 316.34 102.75 319.99" style="mix-blend-mode:multiply" fill="#c6cbe7" class="colorc6cbe7 svgShape"/><polygon points="102.75 329.63 126.41 315.97 126.41 312.32 102.75 325.98 102.75 329.63" style="mix-blend-mode:multiply" fill="#c6cbe7" class="colorc6cbe7 svgShape"/><polygon fill="#ffffff" points="107.42 346.26 104.26 348.09 104.26 344.44 107.42 342.61 107.42 346.26" class="colorfff svgShape"/><polygon fill="#ffffff" points="113.74 342.61 110.58 344.44 110.58 340.79 113.74 338.96 113.74 342.61" class="colorfff svgShape"/><polygon fill="#ffffff" points="120.06 338.96 116.9 340.79 116.9 337.14 120.06 335.31 120.06 338.96" class="colorfff svgShape"/><polygon points="141.11 349.68 132.08 354.89 132.08 280.23 141.11 275.02 141.11 349.68" style="mix-blend-mode:multiply" fill="#dce1f4" class="colordce1f4 svgShape"/><path d="M485.62,379.45H343c-17.16,0-38.22,4.05-46.8,9L158.48,468c-8.58,5-1.56,9,15.59,9H485.62Z" style="mix-blend-mode:multiply" fill="url(#i)"/><path fill="#e8ecf7" d="M321.23,367c0,9.9-7,22.06-15.6,27l-137.7,79.49c-8.58,5-15.6.9-15.6-9v-323c0-9.9,7-22.06,15.6-27L305.63,35c8.58-5,15.6-.91,15.6,9Z" class="colore8ecf7 svgShape"/><path fill="url(#w)" d="M305.78,26.8c-2.86-1.85-6.9-1.73-11.38.85l-137.69,79.5c-8.58,4.95-15.6,17.11-15.6,27v323c0,5,1.78,8.48,4.64,10.09l11.07,7.24c-2.77-1.66-4.49-5.12-4.49-10v-323c0-9.9,7-22.06,15.6-27L305.63,35c4.46-2.58,8.5-2.7,11.35-.85C317,34.12,305.78,26.8,305.78,26.8Z"/><polygon fill="url(#x)" points="311.44 54.03 311.44 353.5 162.13 439.7 162.13 141.75 311.44 54.03"/><path fill="#bbc0e6" d="M225.61,421.53c0,7.12,5,10,11.17,6.45S248,415.75,248,408.63s-5-10-11.18-6.45S225.61,414.4,225.61,421.53Zm3.27-1.89a17.48,17.48,0,0,1,7.9-13.69c4.37-2.52,7.9-.47,7.9,4.57a17.45,17.45,0,0,1-7.9,13.68C232.42,426.72,228.88,424.68,228.88,419.64Z" class="colorbbc0e6 svgShape"/><polygon fill="#ffffff" points="231 293.51 227.84 295.33 227.84 291.69 231 289.86 231 293.51" class="colorfff svgShape"/><polygon fill="#ffffff" points="237.32 289.86 234.16 291.69 234.16 288.04 237.32 286.21 237.32 289.86" class="colorfff svgShape"/><polygon fill="#ffffff" points="243.64 286.21 240.48 288.04 240.48 284.39 243.64 282.56 243.64 286.21" class="colorfff svgShape"/><path fill="#ffffff" d="M218.18,261.87c0-11.86,8.33-26.29,18.6-32.22s18.6-1.12,18.6,10.74-8.33,26.28-18.6,32.22S218.18,273.73,218.18,261.87Z" class="colorfff svgShape"/><polygon fill="#34318f" points="233.07 265.88 222.16 259.58 224.92 254.8 233.07 259.51 254 223.25 256.76 224.84 233.07 265.88" class="color34318f svgShape"/><polygon fill="#5555c6" points="305.59 69.75 288.88 79.39 288.88 75.22 305.59 65.57 305.59 69.75" class="color5555c6 svgShape"/><polygon fill="#5555c6" points="305.59 78.35 288.88 87.99 288.88 83.82 305.59 74.18 305.59 78.35" class="color5555c6 svgShape"/><path d="M255.38 321.49a15.79 15.79 0 00-1.69-3.49c-2.34-3.33-7.22-4.59-15.69.3s-7.38 7.29-10.78 12.11a23.41 23.41 0 00-9.83 10.72 8.06 8.06 0 00-.47 2.56c-.84.49-.47 5.55.82 4.8l6.31-3.64a2.1 2.1 0 003.21 1.27 6.39 6.39 0 002.63-4.64l16.25-9.38a2.1 2.1 0 003.21 1.26 6.34 6.34 0 002.63-4.64l4-2.28C257.23 325.69 256.22 321 255.38 321.49zM229.27 194.67l6.47 3.74 6.47-11.21c3.57-6.19 3.57-12.88 0-14.94s-9.37 1.28-12.94 7.47S225.69 192.61 229.27 194.67zm2.15-8.71a9.56 9.56 0 014.31-7.48c2.39-1.37 4.32-.26 4.32 2.49a9.53 9.53 0 01-4.32 7.48C233.35 189.83 231.42 188.71 231.42 186z" style="mix-blend-mode:multiply" fill="#a7adce" class="colora7adce svgShape"/><polygon fill="#0b0b33" points="400.49 444.24 368.23 425.62 371.69 401.22 410.71 423.75 400.49 444.24" class="color0b0b33 svgShape"/><polygon fill="#0b0b33" points="551.98 356.78 519.72 338.15 523.18 313.76 562.21 336.29 551.98 356.78" class="color0b0b33 svgShape"/><path fill="#1e1c6b" d="M299.4,330.54c-5.46-3.32-7.18-7-6.06-7.86a4,4,0,0,0-1.14.85c-2.45,2.73,2.95,11.1,10.11,14.65,5.35,2.65,9.57-1.84,9.43-6.22C310.16,333,304.86,333.86,299.4,330.54Z" class="color1e1c6b svgShape"/><path fill="#5555c6" d="M293.34,322.68c-1.12.9.6,4.54,6.06,7.86S310.16,333,311.74,332a6,6,0,0,0-1.79-4.15C305.33,323.25,297.19,320.67,293.34,322.68Z" class="color5555c6 svgShape"/><path fill="#bbc0e6" d="M381.31,427.17c-9.33,5.38-16.88,18.47-16.88,29.24s7.55,15.13,16.88,9.74,16.88-18.47,16.88-29.23S390.63,421.79,381.31,427.17Zm0,36.05c-7.92,4.58-14.34.87-14.34-8.28s6.42-20.27,14.34-24.84,14.34-.87,14.34,8.28S389.23,458.65,381.31,463.22Z" class="colorbbc0e6 svgShape"/><path fill="url(#c)" d="M381.31,463.22c7.92-4.57,14.34-15.69,14.34-24.84s-6.42-12.85-14.34-8.28c-.38.22-.76.47-1.13.72A35.07,35.07,0,0,1,367,453.55c0,.47-.06.94-.06,1.39C367,464.09,373.39,467.8,381.31,463.22Z"/><path fill="#362e94" d="M381.31,423.56c-11.05,6.38-20,21.89-20,34.65s9,17.93,20,11.55,20-21.89,20-34.65S392.36,417.18,381.31,423.56Zm0,42.6c-9.33,5.38-16.88,1-16.88-9.75s7.55-23.86,16.88-29.24,16.88-1,16.88,9.75S390.63,460.77,381.31,466.16Z" class="color362e94 svgShape"/><path fill="#20196f" d="M394.88,421.85,379.58,413c-3.66-2.43-8.87-2.27-14.66,1.08-11.05,6.38-20,21.89-20,34.65,0,6.48,2.31,11,6,13L367,471.08c-3.54-2.13-5.73-6.57-5.73-12.87,0-12.76,9-28.27,20-34.65C386.55,420.54,391.31,420.12,394.88,421.85Z" class="color20196f svgShape"/><g clip-path="url(#y)" fill="#000000" class="color000 svgShape"><path fill="url(#d)" d="M362.8,452.54c0-9.15,6.42-20.27,14.35-24.84s14.34-.87,14.34,8.28-6.42,20.27-14.34,24.84S362.8,461.69,362.8,452.54Z"/><path fill="#1e1c6b" d="M378.09 440.94a1.47 1.47 0 01.79.12c2.2-5.4 4.62-15.32-1.73-11.65C376.34 429.87 379.82 433 378.09 440.94zM379.16 441.24a1.48 1.48 0 01.44.7c3.69-4.44 9.48-13.76 4-14.25C382.88 427.63 383.68 433.6 379.16 441.24zM379.7 442.34a3.83 3.83 0 010 1.11c4.2-2.3 11.8-8.53 8.62-13.05C387.88 429.83 385.78 437.08 379.7 442.34zM379.55 444a6.31 6.31 0 01-.5 1.21c3.58.46 11-1 11-8.33C390 435.91 385.58 442.48 379.55 444zM378.76 445.66a6.27 6.27 0 01-.84 1c2 3.1 7.19 6.79 10.36-1.4C388.68 444.22 383.11 448.36 378.76 445.66zM377.53 447a3.11 3.11 0 01-.94.51c-.11 4.9 1.48 12.76 7 5.92C384.27 452.54 379.05 453.14 377.53 447zM376.21 447.57a1.4 1.4 0 01-.8-.11c-2.19 5.4-4.62 15.32 1.74 11.65C378 458.65 374.47 455.54 376.21 447.57zM375.13 447.28a1.56 1.56 0 01-.44-.7c-3.69 4.44-9.48 13.76-4 14.25C371.41 460.89 370.62 454.92 375.13 447.28zM374.6 446.18a3.49 3.49 0 010-1.11c-4.19 2.3-11.8 8.53-8.62 13C366.41 458.68 368.51 451.44 374.6 446.18zM374.74 444.56a5.77 5.77 0 01.51-1.21c-3.58-.46-11 1-11 8.33C364.29 452.61 368.72 446 374.74 444.56zM375.54 442.86a6.22 6.22 0 01.83-1c-2-3.1-7.18-6.79-10.36 1.39C365.61 444.3 371.18 440.16 375.54 442.86zM376.76 441.54a3.24 3.24 0 01.94-.51c.11-4.9-1.48-12.76-7-5.92C370 436 375.25 435.38 376.76 441.54z" class="color1e1c6b svgShape"/></g><path fill="#bbc0e6" d="M532.8,339.7c-9.32,5.39-16.88,18.48-16.88,29.24s7.56,15.13,16.88,9.75,16.88-18.47,16.88-29.24S542.13,334.32,532.8,339.7Zm0,36.06c-7.92,4.57-14.34.87-14.34-8.28s6.42-20.27,14.34-24.84,14.34-.87,14.34,8.28S540.72,371.18,532.8,375.76Z" class="colorbbc0e6 svgShape"/><path fill="url(#z)" d="M532.8,375.76c7.92-4.58,14.34-15.7,14.34-24.84s-6.42-12.86-14.34-8.28c-.38.22-.75.46-1.13.71a35,35,0,0,1-13.15,22.74c0,.46-.06.93-.06,1.39C518.46,376.63,524.88,380.33,532.8,375.76Z"/><path fill="#362e94" d="M532.8,336.1c-11,6.38-20,21.89-20,34.65s9,17.93,20,11.55,20-21.9,20-34.65S543.85,329.72,532.8,336.1Zm0,42.59c-9.32,5.38-16.88,1-16.88-9.75s7.56-23.85,16.88-29.24,16.88-1,16.88,9.75S542.12,373.31,532.8,378.69Z" class="color362e94 svgShape"/><path fill="#20196f" d="M546.37,334.39l-15.3-8.83c-3.66-2.44-8.87-2.27-14.66,1.07-11,6.38-20,21.9-20,34.65,0,6.48,2.32,11,6,13.05l16.08,9.28c-3.54-2.12-5.72-6.57-5.72-12.86,0-12.76,9-28.27,20-34.65C538,333.07,542.8,332.66,546.37,334.39Z" class="color20196f svgShape"/><g clip-path="url(#A)" fill="#000000" class="color000 svgShape"><path fill="url(#B)" d="M514.3,365.08c0-9.15,6.42-20.27,14.34-24.85s14.34-.86,14.34,8.28-6.42,20.27-14.34,24.85S514.3,374.22,514.3,365.08Z"/><path fill="#1e1c6b" d="M529.58 353.48a1.4 1.4 0 01.8.12c2.19-5.4 4.61-15.32-1.74-11.65C527.84 342.41 531.31 345.52 529.58 353.48zM530.66 353.77a1.75 1.75 0 01.44.71c3.68-4.44 9.47-13.77 4-14.26C534.38 340.16 535.17 346.14 530.66 353.77zM531.19 354.88a3.74 3.74 0 010 1.1c4.19-2.29 11.79-8.52 8.62-13C539.38 342.37 537.28 349.61 531.19 354.88zM531 356.49a6.31 6.31 0 01-.5 1.21c3.58.47 11-1 11-8.33C541.5 348.44 537.07 355 531 356.49zM530.25 358.19a5.44 5.44 0 01-.83 1c2 3.1 7.18 6.8 10.36-1.39C540.18 356.76 534.6 360.89 530.25 358.19zM529 359.51a3.37 3.37 0 01-.94.51c-.11 4.91 1.48 12.77 7 5.92C535.76 365.08 530.54 365.67 529 359.51zM527.7 360.11a1.32 1.32 0 01-.8-.12c-2.19 5.4-4.61 15.32 1.74 11.66C529.44 371.18 526 368.07 527.7 360.11zM526.63 359.82a1.67 1.67 0 01-.45-.71c-3.68 4.44-9.47 13.77-4 14.26C522.9 373.43 522.11 367.45 526.63 359.82zM526.09 358.71a3.74 3.74 0 010-1.1c-4.19 2.29-11.79 8.52-8.62 13C517.9 371.22 520 364 526.09 358.71zM526.24 357.1a6.06 6.06 0 01.5-1.21c-3.58-.47-11 1-11 8.33C515.78 365.15 520.21 358.58 526.24 357.1zM527 355.4a5.44 5.44 0 01.83-1c-2-3.1-7.18-6.8-10.36 1.39C517.1 356.83 522.68 352.7 527 355.4zM528.25 354.07a3.59 3.59 0 01.94-.5c.11-4.91-1.48-12.77-7-5.92C521.52 348.51 526.74 347.92 528.25 354.07z" class="color1e1c6b svgShape"/></g><path fill="url(#C)" d="M357,453.07l-5.46,3.15c-20.73,12-53.82,16.68-70.64,7l-15.4-8.89s-5.29-2.89-15.26-8.7c-5-2.93-8.27-10.91-9-18.9.67,8.47,4.08,25.41,11.23,32.56l28.35,16.37c32.25,12.1,65.33,0,70.7-3.11l7.13-4.12A20.65,20.65,0,0,1,356.47,458,34.17,34.17,0,0,1,357,453.07Z"/><path fill="#d67747" d="M386,406.71v10c8.12-2,14.35,1.93,16.09,10.27l106.34-61.39c2.24-13.35,11.84-27.8,23.17-34,10.91-6,19.83-2.34,22,7.94l12.65-7.31V302.64Z" class="colord67747 svgShape"/><path fill="#ba6038" d="M566.27 330.14s-.47 2.35-3.76 4.26l-8.89 5.14a25 25 0 01.5 5.72A39.24 39.24 0 01552 356.78l4.09-2.36c5-2.89 10.2-16.67 10.2-22.19zM510.13 380.94A20.69 20.69 0 01508 370.56a35.49 35.49 0 01.5-4.95L402.12 427a25.09 25.09 0 01.51 5.73 39.57 39.57 0 01-2.14 11.51z" class="colorba6038 svgShape"/><path fill="#f3b378" d="M558 289.63c1.87 1.77 2 6.8-2.26 9.26L382.9 398.67l3.13 8L566.27 302.64S566.27 296.41 558 289.63zM386 406.71c-9 5.18-44.41 30-74 36.67-12.09 2.74-23.21 1.41-31.15-3.17l-15.4-8.9s-5.39-3-15.34-8.85c-10.3-6.07-12.63-43.46 43-75.6l89.74 51.81z" class="colorf3b378 svgShape"/><path fill="url(#e)" d="M382.9,398.67c-9.84,5.35-52.09,32.73-69,32.9-3.75,0,22.62-7.12,56-33.68C372.51,398.57,382.9,398.67,382.9,398.67Z"/><path fill="url(#D)" d="M293.16,346.86c-8.34,7.26-25.86,18.07-38,44.91-5.26,11.69,15-24,37.71-39.86C293,349.47,293.16,346.86,293.16,346.86Z"/><path fill="#ec6675" d="M565.2,298.61a6.81,6.81,0,0,1-3.49,6.66l-5.17,3c.61,3.8,3.31,10.5,9.73,8.08v-13.7C566.27,301.69,566.27,298.94,565.2,298.61Z" class="colorec6675 svgShape"/><polygon fill="#f48a71" points="401.2 409.71 397.12 412.07 397.12 409.81 401.2 407.45 401.2 409.71" class="colorf48a71 svgShape"/><path fill="#f3b378" d="M524.6,261.6,466.34,228c-7-4-19.12-3.52-27.17,1.12l-97.23,56.14a55.74,55.74,0,0,0-8.92,6.55c8.06,10,19.19,19.27,33.42,27.49A201.1,201.1,0,0,0,415.74,339l106.91-61.72C530.69,272.64,531.56,265.62,524.6,261.6Z" class="colorf3b378 svgShape"/><path fill="url(#F)" d="M558,289.63c-7.29-7.37-26.17-23.87-33.38-28,7,4,6.09,11-2,15.69L415.74,339,382.9,398.67l172.82-99.78C560,296.43,559.85,291.4,558,289.63Z"/><path fill="#1e1c6b" d="M558,289.63l-1.62-1.6c1.86,1.78,2,6.8-2.27,9.26L385,394.94l-2.05,3.73,172.82-99.78C560,296.43,559.85,291.4,558,289.63Z" class="color1e1c6b svgShape"/><path fill="url(#G)" d="M419.91,336.6a9.89,9.89,0,0,1-7.43,1.5,198.39,198.39,0,0,1-46-18.83c-14.22-8.22-25.35-17.54-33.41-27.48a74.67,74.67,0,0,0-7.57,8.77l-32.3,46.3c-5.33,7.45,16.48,21.52,33.91,31.59s48.23,24.61,55.83,20.22l9.27-5.35Z"/><path fill="url(#H)" d="M363.26,323.15c-13.48-7.78-24-16.62-31.67-26a72.16,72.16,0,0,0-7.17,8.32L297,345.27c-4.61,7.11,15.86,20.3,32.24,29.77,15.69,9,42.81,21.94,51.66,19.65L410,341.86A190.24,190.24,0,0,1,363.26,323.15Z"/><path d="M407.24,341.1a187.68,187.68,0,0,1-44-18c-13.48-7.78-24-16.62-31.67-26a72.16,72.16,0,0,0-7.17,8.32l-17.05,24.74c11.46,1.28,31.26,17.93,41.53,33.55C359.77,380.24,386.88,362.45,407.24,341.1Z" style="mix-blend-mode:screen" fill="url(#f)"/><path d="M363.26,323.15c-13.48-7.78-24-16.62-31.67-26a72.16,72.16,0,0,0-7.17,8.32L297.81,344c1.15,3.37,5,7.34,10.24,11.42A156.2,156.2,0,0,1,366.62,325C365.5,324.39,364.36,323.79,363.26,323.15Z" style="mix-blend-mode:screen" fill="url(#I)"/><path d="M346.44,311.72a98.12,98.12,0,0,1-14.85-14.62,72.16,72.16,0,0,0-7.17,8.32l-25.79,37.43C312.07,333.65,332.59,320.54,346.44,311.72Z" style="mix-blend-mode:screen" fill="url(#J)"/><polygon fill="#1e1c6b" points="455.4 356.81 452.27 317.92 461.49 312.6 464.62 351.49 455.4 356.81" class="color1e1c6b svgShape"/><polygon fill="#1e1c6b" points="512.04 324.11 490.47 295.86 503.64 288.26 525.21 316.51 512.04 324.11" class="color1e1c6b svgShape"/><path fill="url(#K)" d="M402.2,389.71c-5.59-1.3-7.93-4.46-6.87-6.79a14,14,0,0,0-1.06,1.27c-2.45,3.28-4,9.87,15.55,11.69,10.66,1,11.28-2.56,9-6.32C414.61,393.69,407.8,391,402.2,389.71Z"/><path fill="#5555c6" d="M411.38,382.14c-3.51-1.93-10.33-5.41-16.05.78-1.06,2.33,1.28,5.49,6.87,6.79s12.41,4,16.66-.15A25.19,25.19,0,0,0,411.38,382.14Z" class="color5555c6 svgShape"/><path fill="url(#L)" d="M566.27,302.64c0,1.9-.73,3.6-3.57,4.91-3.45,1.6,1.09,5.69,3.57,5.83Z"/><path fill="#1e1c6b" d="M415.93,341.86l109.26-63.11c6.59-3.8,8.35-9.21,4.94-13.25a55.9,55.9,0,0,0-5.53-3.9c7,4,6.09,11-2,15.69L415.74,339l-1.33,2.41C414.92,341.56,415.41,341.73,415.93,341.86Z" class="color1e1c6b svgShape"/><path fill="url(#g)" d="M253.89,454.09a30.06,30.06,0,0,1-1.33-3.91,2.81,2.81,0,0,1-.1-1c-1.19-.64-2.14-.06-1.67,1.71a30.78,30.78,0,0,0,1.34,3.92,9.3,9.3,0,0,0,3.46,4.2l25.84,14.93c1,.56,1.53.21,1.46-.86l-23.06-13.31C258.62,459,254.61,455.89,253.89,454.09Z"/><path fill="#1e1c6b" d="M281.57,468.26a8.08,8.08,0,0,0-3.21-4.15l-25.85-14.93,0,0a2.81,2.81,0,0,0,.1,1,30.06,30.06,0,0,0,1.33,3.91,11.42,11.42,0,0,0,4,4.59c7.34,4.24,17.79,10.19,25,14.37a4.83,4.83,0,0,0-.17-.94C282.27,470.57,282,469.75,281.57,468.26Z" class="color1e1c6b svgShape"/><path fill="url(#M)" d="M292,471.81a6.48,6.48,0,0,1-.27-2.3l-.67-.15c-1.58-.37-1.54,1.31-1,3.21s1.26,3.66,3.38,4.37,8.18,1.07,11.85,1.36c.81.06,1.08-.28,1-.84-3.69-.27-8.91-.64-10.84-1.28C293.24,475.47,292.46,473.71,292,471.81Z"/><path fill="#1e1c6b" d="M298.14,470.47a59.52,59.52,0,0,1-6.44-1,6.48,6.48,0,0,0,.27,2.3c.49,1.9,1.27,3.66,3.38,4.37,1.93.64,7.15,1,10.84,1.28C305.8,475.49,300.76,470.75,298.14,470.47Z" class="color1e1c6b svgShape"/><polygon fill="url(#N)" points="298.63 472.16 293.71 475 292.22 472.14 295.13 470.46 298.63 472.16"/><path fill="#7f7ff4" d="M291.78,472.93c0-.73.51-1,1.14-.66a2.53,2.53,0,0,1,1.15,2c0,.74-.52,1-1.15.67A2.55,2.55,0,0,1,291.78,472.93Z" class="color7f7ff4 svgShape"/><path fill="#f7f7fc" d="M292.32,473.25c0-.39.27-.54.6-.35a1.33,1.33,0,0,1,.6,1c0,.38-.27.54-.6.35A1.35,1.35,0,0,1,292.32,473.25Z" class="colorf7f7fc svgShape"/><polygon fill="url(#O)" points="302.15 473.11 297.23 475.95 295.73 473.09 299.2 471.09 302.15 473.11"/><path fill="#7f7ff4" d="M295.29,473.88c0-.73.51-1,1.15-.66a2.52,2.52,0,0,1,1.14,2c0,.73-.51,1-1.14.66A2.5,2.5,0,0,1,295.29,473.88Z" class="color7f7ff4 svgShape"/><path fill="#f7f7fc" d="M295.84,474.19c0-.38.27-.53.6-.34a1.32,1.32,0,0,1,.6,1c0,.38-.27.53-.6.34A1.32,1.32,0,0,1,295.84,474.19Z" class="colorf7f7fc svgShape"/><path fill="url(#P)" d="M304.36,474.67a20.28,20.28,0,0,0-2.5-2.28l-2.2,1.27,1.5,2.86Z"/><path fill="#7f7ff4" d="M299.22,474.45c0-.74.52-1,1.15-.67a2.55,2.55,0,0,1,1.14,2c0,.73-.51,1-1.14.66A2.54,2.54,0,0,1,299.22,474.45Z" class="color7f7ff4 svgShape"/><path fill="#f7f7fc" d="M299.77,474.76c0-.38.27-.54.6-.34a1.32,1.32,0,0,1,.6,1c0,.39-.27.54-.6.35A1.33,1.33,0,0,1,299.77,474.76Z" class="colorf7f7fc svgShape"/><path fill="url(#Q)" d="M249.62,441.42c.73.42,1.43-.39,2.1,0,9,5.19,11.79,6.83,11.79,6.83l14.09,8.14c.77.44,1.56,2.11,2.38,2.59,8.49,4.9,19.33,7.58,33.92,5.5A78.56,78.56,0,0,0,327.39,461c8.75-3.49,16.94-13.68,18.82-21.47.71-2.93-2.31-3.39-5-2.07-7.85,3.84-19.73,6.61-28.6,7.87-13.65,1.95-23.78-.56-31.72-5.14l-15.4-8.9s-5.39-3-15.34-8.85c-5.24-3.09-8.42-14.3-2.93-28.8a18.84,18.84,0,0,0-3.86,7.56c-2.4,9.09-2.19,19.93-2.19,19.93C240.78,426.69,244.23,438.33,249.62,441.42Z"/><g style="mix-blend-mode:screen" fill="#000000" class="color000 svgShape"><path fill="url(#h)" d="M292,463.76c1.35.33,2.75.6,4.2.82l-3.56-19.76a42.18,42.18,0,0,1-4.26-1.22Z"/><path fill="url(#R)" d="M306.21,465.15,302.77,446c-1.4,0-2.77-.09-4.08-.22l3.47,19.34C303.48,465.18,304.82,465.19,306.21,465.15Z"/><path fill="url(#S)" d="M251.72,423.39l-1.59-.93a7.33,7.33,0,0,1-1-.73l-6.27,9.41a34.15,34.15,0,0,0,1.4,3.48Z"/><path fill="url(#T)" d="M241.65,426.64l5.16-7.76a14.76,14.76,0,0,1-1.15-2.53l-4.49,6.74A25.83,25.83,0,0,0,241.65,426.64Z"/><path fill="url(#U)" d="M309,445.76l3.4,18.89,1.47-.18c.8-.12,1.62-.26,2.46-.43L313,445.29l-.4.06C311.37,445.53,310.19,445.65,309,445.76Z"/></g><path fill="url(#V)" d="M341.69,437.27a4.56,4.56,0,0,0-.5.21c-7.85,3.84-19.73,6.61-28.6,7.87-13.65,1.95-23.78-.56-31.72-5.14-9.52-5.5-20.79-11.89-30.74-17.75-5.24-3.09-8.42-14.3-2.93-28.8a18.84,18.84,0,0,0-3.86,7.56c-.21.82-.4,1.65-.58,2.48C241,414,243.84,421.62,248,424.08c9.95,5.85,21.22,12.24,30.74,17.74,7.94,4.59,20.61,7.71,34.26,5.76a119.77,119.77,0,0,0,27.42-7.34c3.06-1.29,5.08-2.85,5.7-2.39C345.53,436.61,343.59,436.5,341.69,437.27Z"/><polygon fill="#eaeef9" points="260.96 431.57 269.58 436.55 267.67 450.65 258.06 445.07 260.96 431.57" class="coloreaeef9 svgShape"/><path d="M492.63,253.11c-.79-.49-1.56-.88-2.2-1.27-3.17,0-4.95.67-10.56.74-2,1.17-6.29,3.63-6.29,3.63l2.2,1.27S488.72,255.23,492.63,253.11Z" style="mix-blend-mode:multiply" fill="url(#W)"/><path fill="#d67747" d="M475.78,257.48s3.91-7.47,7.57-9.72c0,1.83-1.16,2.85-1.28,6.09Z" class="colord67747 svgShape"/><path fill="#ffcd8a" d="M483.35,247.76l-2.2-1.27c-3.66,2.25-7.57,9.72-7.57,9.72l2.2,1.27S479.69,250,483.35,247.76Z" class="colorffcd8a svgShape"/><path d="M511.44,448.87c-8.15-4.71-21.36-4.71-29.51,0-6,3.44-7.54,8.44-4.78,12.73l-46.51,26.85c-7.41-1.6-16.08-.69-22,2.76-3.86,2.22-5.87,5.11-6.07,8l-8.14,4.7h9.43L419.26,495l12.25,7.07L416.07,511l.08,0-1.29.74h9.43a29.81,29.81,0,0,0,13.82-3.52c6-3.44,7.54-8.44,4.78-12.72l46.51-26.85c7.41,1.59,16.08.68,22-2.76C519.59,461.2,519.59,453.57,511.44,448.87Zm-6.66,13.19-11.06,1.71-8.1-4.67,3-6.39L499.65,451l8.1,4.68Z" style="mix-blend-mode:multiply" fill="url(#X)"/><path fill="#eaeef9" d="M433.46,490.07,480,463.22c7.41,1.59,16.08.68,22-2.76,8.15-4.7,8.15-12.33,0-17s-21.36-4.7-29.51,0c-6,3.44-7.54,8.45-4.78,12.73L421.21,483c-7.41-1.59-16.08-.68-22,2.76s-7.54,8.45-4.78,12.73l15.44-8.92,12.24,7.07-15.43,8.92c7.41,1.59,16.08.68,22-2.76S436.22,494.36,433.46,490.07Zm56.76-44.51,8.1,4.67-3,6.39-11.06,1.71-8.1-4.68,3-6.38Z" class="coloreaeef9 svgShape"/><path fill="url(#Y)" d="M428.3,484.39,468.75,461a4.55,4.55,0,0,1,4.13,0,1.71,1.71,0,0,1,.77.79c.23-.55,0-1.16-.77-1.59a4.55,4.55,0,0,0-4.13,0L428.3,483.6c-.75.43-1,1-.77,1.59A1.72,1.72,0,0,1,428.3,484.39Z"/><path fill="#d3d8f2" d="M428.3,486a4.55,4.55,0,0,0,4.13,0l40.45-23.36a.79.79,0,0,0,0-1.58,4.55,4.55,0,0,0-4.13,0L428.3,484.39a1.72,1.72,0,0,0-.77.8A1.66,1.66,0,0,0,428.3,486Z" class="colord3d8f2 svgShape"/><path fill="#7f7ff4" d="M466.41,452v4.9l1.31-.76A7.71,7.71,0,0,1,466.41,452Z" class="color7f7ff4 svgShape"/><path fill="#34318f" d="M466.41,451.83V452A.75.75,0,0,1,466.41,451.83Z" class="color34318f svgShape"/><polygon fill="#7f7ff4" points="409.83 489.57 409.83 495.02 417.36 499.37 422.07 496.64 409.83 489.57" class="color7f7ff4 svgShape"/><polygon fill="#5555c6" points="394.39 498.49 394.39 503.93 409.83 495.02 409.83 489.57 394.39 498.49" class="color5555c6 svgShape"/><path fill="#7f7ff4" d="M393.07,494.31v5a7.84,7.84,0,0,0,1.32,4.62v-5.44A7.76,7.76,0,0,1,393.07,494.31Z" class="color7f7ff4 svgShape"/><path fill="url(#j)" d="M502,460.46c-6,3.44-14.63,4.35-22,2.76v5.45c7.41,1.59,16.08.68,22-2.76,4.07-2.36,6.11-5.44,6.11-8.52v-5.45C508.12,455,506.08,458.11,502,460.46Z"/><path fill="url(#Z)" d="M428.68,502.8c-6,3.44-14.63,4.35-22,2.76V511c7.41,1.6,16.08.69,22-2.76,4-2.3,6-5.3,6.08-8.32,0,0,0-5.16,0-5.16C434.56,497.67,432.55,500.57,428.68,502.8Z"/><path fill="#5555c6" d="M480,468.67v-5.45l-46.51,26.85a7.67,7.67,0,0,1,1.29,4.68S480,468.67,480,468.67Z" class="color5555c6 svgShape"/><path fill="#ffffff" d="M500.35,449.12l-9.59-5.53-13.09,2-3.51,7.56,9.59,5.54,13.09-2Zm-16.06,8.41-8.1-4.67,3-6.39,11.06-1.71,8.1,4.68-3,6.38Z" class="colorfff svgShape"/><polygon fill="#a7adce" points="500.35 449.12 500.35 449.92 496.84 457.48 496.84 456.68 500.35 449.12" class="colora7adce svgShape"/><polygon fill="#bdc1e4" points="496.84 456.68 496.84 457.48 483.75 459.5 483.75 458.71 496.84 456.68" class="colorbdc1e4 svgShape"/><polygon fill="#d0d4f6" points="483.75 458.71 483.75 459.5 474.16 453.97 474.16 453.17 483.75 458.71" class="colord0d4f6 svgShape"/><polygon fill="#4141aa" points="476.19 452.86 478.48 454.18 479.16 452.71 479.16 446.47 476.19 452.86" class="color4141aa svgShape"/><polygon fill="#5555c6" points="479.16 446.47 479.16 452.71 490.22 451 490.22 444.76 479.16 446.47" class="color5555c6 svgShape"/><polygon fill="#7f7ff4" points="490.22 444.76 490.22 451 496.04 454.36 498.32 449.44 490.22 444.76" class="color7f7ff4 svgShape"/><rect width="71.28" height="31.18" x="146.11" y="476.99" style="mix-blend-mode:multiply" fill="url(#aa)"/><path fill="url(#ab)" d="M119.11,434.49v58.08c0,4,2.63,8,7.9,11,10.55,6.09,27.65,6.09,38.19,0,5.27-3,7.91-7,7.91-11V434.49Z"/><path fill="#d0d4f6" d="M127,481.55c10.55-6.08,27.64-6.08,38.19,0,5.27,3.05,7.91,7,7.91,11s-2.64,8-7.91,11c-10.54,6.09-27.64,6.09-38.19,0-5.27-3-7.9-7-7.9-11S121.74,484.6,127,481.55Z" class="colord0d4f6 svgShape"/><g style="mix-blend-mode:multiply" fill="#000000" class="color000 svgShape"><path fill="#6a6ae2" d="M164.35,448.55c-10.08-5.82-26.41-5.82-36.49,0-4.9,2.83-7.41,6.52-7.54,10.23,0,0,0,33.8,0,33.8,0,3.81,2.52,7.62,7.55,10.53,10.08,5.82,26.41,5.82,36.49,0,5-2.91,7.56-6.72,7.56-10.53v-33.5C171.91,455.27,169.39,451.46,164.35,448.55Z" class="color6a6ae2 svgShape"/><path fill="url(#ac)" d="M127.86,482c10.08-5.81,26.41-5.81,36.49,0s10.08,15.25,0,21.07-26.41,5.82-36.49,0S117.79,487.86,127.86,482Z"/><path fill="#7f7ff4" d="M127.86,448.55c10.08-5.82,26.41-5.82,36.49,0s10.08,15.25,0,21.07-26.41,5.81-36.49,0S117.79,454.37,127.86,448.55Z" class="color7f7ff4 svgShape"/></g><path d="M160.42 505.78a29.76 29.76 0 004.78-2.18 20.92 20.92 0 003.8-2.76V440.9h-8.58zM153.74 507.53a38.64 38.64 0 004-.9V447.32h-4z" style="mix-blend-mode:multiply" fill="#dce1f4" class="colordce1f4 svgShape"/><path fill="url(#ad)" d="M123.65,501.23a21.23,21.23,0,0,0,2.58,1.89V437.35h-2.58Z"/><path fill="url(#ae)" d="M127,423.47c10.55-6.09,27.64-6.09,38.19,0s10.54,16,0,22-27.64,6.09-38.19,0S116.47,429.56,127,423.47Z"/><path d="M173.11,475.83V434.49h-54C119.11,447.32,141.46,497.38,173.11,475.83Z" style="mix-blend-mode:screen" fill="url(#af)"/><path fill="#eaeef9" d="M127,420.7c10.55-6.08,27.64-6.08,38.19,0,5.27,3,7.91,7,7.91,11s-2.64,8-7.91,11c-10.54,6.09-27.64,6.09-38.19,0-5.27-3-7.9-7-7.9-11S121.74,423.75,127,420.7Z" class="coloreaeef9 svgShape"/><path fill="#7f7ff4" d="M139.24,424.47a15.17,15.17,0,0,1,13.73,0c1.9,1.09,2.85,2.53,2.85,4s-.95,2.87-2.85,4a15.23,15.23,0,0,1-13.73,0c-1.89-1.1-2.84-2.53-2.84-4S137.35,425.56,139.24,424.47Z" class="color7f7ff4 svgShape"/><path fill="url(#ag)" d="M153,432.4a15.23,15.23,0,0,1-13.73,0c-1.89-1.1-2.84-2.53-2.84-4v3.3c0,1.43.95,2.87,2.84,4a15.17,15.17,0,0,0,13.73,0c1.9-1.09,2.85-2.53,2.85-4v-3.3C155.82,429.87,154.87,431.3,153,432.4Z"/><path fill="url(#ah)" d="M173.11,431.73c0,4-2.64,8-7.91,11-10.54,6.09-27.64,6.09-38.19,0-5.27-3-7.9-7-7.9-11v2.76c0,4,2.63,8,7.9,11,10.55,6.09,27.65,6.09,38.19,0,5.27-3,7.91-7,7.91-11Z"/><path d="M746.08,300.86h-30.2c-51.74,0-73.16,14.82-68.34,23.64,10.49,3.6,28.8,8.19,50.31,12.37l42.24-24.38C745.83,309.17,747.9,304.64,746.08,300.86Z" style="mix-blend-mode:multiply" fill="url(#ai)"/><path fill="url(#aj)" d="M612.26,210.43c-7.41-7.29-12.3-17.89-17.37-27v39.3c-.06,30.8,17.36,67,40.82,86.8-7.46-31.84-6.12-65.22-6.06-97.7C623.56,215.39,618.68,216.75,612.26,210.43Z"/><path fill="url(#ak)" d="M653.2,234.07c-11-3.58-17.4-13.21-23.55-22.2-.06,32.48-1.4,65.86,6.06,97.7,22,5.71,41.07-25.92,41.07-39.53V230.75C670.68,234.26,663.46,237.41,653.2,234.07Z"/><path d="M676.78,240.5c-13.49,8.48-29.9,53.76-43.85,54.64.76,4.84,1.66,9.66,2.78,14.43,22,5.71,41.07-25.92,41.07-39.53Z" style="mix-blend-mode:multiply" fill="url(#al)"/><path fill="url(#k)" d="M629.65,211.87l4-2.32c-6.09,3.52-11,4.88-17.39-1.44-7.41-7.29-14.07-16.86-19.15-25.94l-2.24,1.3c5.07,9.07,10,19.67,17.37,27C618.68,216.75,623.56,215.39,629.65,211.87Z"/><path fill="url(#am)" d="M657.22,231.74c-11-3.57-17.39-13.2-23.55-22.19l-4,2.32c6.15,9,12.59,18.62,23.55,22.2,10.26,3.34,17.48.19,23.58-3.32l2.24-1.3C672.93,233,667.48,235.09,657.22,231.74Z"/><path fill="url(#an)" d="M676.78,230.75V270c0,9.32-8.95,27.07-21.64,35.51C669.28,298.72,679,279,679,268.75v-39.3Z"/><path d="M340.39,520.17c-7-4.07-16.42-5.94-25.62-5.67l-10.67,0v2.37a38,38,0,0,0-7.63,3.3c-13.12,7.64-13.05,20,.16,27.63a38.73,38.73,0,0,0,7.47,3.24v2.47l13.55,0c8.32-.14,16.57-2,22.9-5.7C353.67,540.16,353.61,527.8,340.39,520.17Z" style="mix-blend-mode:multiply" fill="url(#ao)"/><path fill="url(#ap)" d="M281.77,547.8c-6.65-3.83-10-8.87-10-13.9l0-6.45c0,5,3.31,10.08,10,13.92,13.22,7.62,34.56,7.62,47.69,0,6.52-3.8,9.78-8.75,9.8-13.72l0,6.44c0,5-3.28,9.92-9.8,13.72C316.33,555.44,295,555.44,281.77,547.8Z"/><path fill="#f0f2f6" d="M281.79,541.37c-13.2-7.63-13.28-20-.16-27.62s34.48-7.63,47.69,0,13.28,20,.16,27.62S295,549,281.79,541.37Z" class="colorf0f2f6 svgShape"/><path d="M308.12,524a9.81,9.81,0,0,0,8.83,0c2.43-1.41,2.43-3.69,0-5.09a9.74,9.74,0,0,0-8.83,0C305.69,520.28,305.69,522.56,308.12,524Zm3,5.28a24.88,24.88,0,0,0,5-.1l-.66-1.77a19.12,19.12,0,0,1-3.86.07c-6.06-.49-10.29-3.74-9.43-7.24L299,520C297.89,524.44,303.32,528.61,311.09,529.25Zm-15.25-.65c3.46,2.66,8.52,4.39,14.24,4.85a36.91,36.91,0,0,0,7.51-.14l-.65-1.78a31.35,31.35,0,0,1-6.43.12,23.27,23.27,0,0,1-12.16-4.14c-3-2.28-4.22-5.08-3.53-7.9l-3.11-.26C290.9,522.65,292.37,525.94,295.84,528.6Zm13.22,9.06a49.75,49.75,0,0,0,10.07-.2l-.65-1.77a44.12,44.12,0,0,1-9,.17c-14.1-1.15-23.95-8.72-22-16.86l-3.11-.25C282.19,527.88,293.24,536.36,309.06,537.66Z" style="mix-blend-mode:multiply" fill="#d0d4f6" class="colord0d4f6 svgShape"/><polygon fill="#d0d4f6" points="426.2 95.23 426.2 128.69 480.52 160.05 480.52 126.59 426.2 95.23" class="colord0d4f6 svgShape"/><polygon fill="#f7f7fc" points="478.45 125.39 428.39 96.49 453.36 132.83 478.45 125.39" class="colorf7f7fc svgShape"/><polygon fill="#5555c6" points="483.11 158.56 480.52 160.05 480.52 126.59 483.11 125.1 483.11 158.56" class="color5555c6 svgShape"/><polygon fill="#7f7ff4" points="483.11 125.1 480.52 126.59 426.2 95.23 428.79 93.73 483.11 125.1" class="color7f7ff4 svgShape"/><path fill="#5555c6" d="M411.12,228.33c1.54.89,1.91,4.71,1.91,6.52l-11.51-6.69c0-1.8-.37-5.62-1.91-6.51Z" class="color5555c6 svgShape"/><path fill="#7f7ff4" d="M428.86,180.81l11.51,6.69c-1.58.91-5.11,2.54-6.65,1.64l-11.51-6.68C423.75,183.35,427.28,181.73,428.86,180.81Z" class="color7f7ff4 svgShape"/><path fill="url(#aq)" d="M404.27,209.63c5.47-3.16,9.89-10.81,9.87-17.1,0-3.13-1.11-5.32-2.89-6.36l11.51,6.69c1.77,1,2.88,3.23,2.89,6.35,0,6.29-4.4,13.94-9.88,17.1-2.75,1.59-5.24,1.74-7,.69l-11.51-6.68C399,211.36,401.52,211.21,404.27,209.63Z"/><polygon fill="#5555c6" points="391.11 215.94 391.12 222.37 379.62 215.68 379.6 209.26 391.11 215.94" class="color5555c6 svgShape"/><polygon fill="#7f7ff4" points="406.95 168.33 418.46 175.02 412.87 178.25 401.36 171.56 406.95 168.33" class="color7f7ff4 svgShape"/><path fill="#7f7ff4" d="M386.88,201.57c.27-1.07.59-2.15,1-3.23,1.28-3.27-1.62-5.81-3-6.61l11.51,6.69c1.38.8,4.28,3.34,3,6.61-.37,1.07-.69,2.15-1,3.23-.64,3.24-5.38,6.58-7.29,7.68l-11.5-6.68C381.5,208.16,386.24,204.81,386.88,201.57Z" class="color7f7ff4 svgShape"/><path fill="url(#ar)" d="M394.78,185.24a4.33,4.33,0,0,0,1.26-1.11c.75-.85,1.52-1.66,2.32-2.44,2.5-2.19,3-7.94,3-10.13l11.51,6.69c0,2.19-.51,7.94-3,10.13-.79.77-1.56,1.59-2.31,2.44a4.29,4.29,0,0,1-1.26,1.1c-2.14,1.24-4.82.22-6.05-.35l-11.51-6.69C390,185.45,392.64,186.47,394.78,185.24Z"/><path fill="#eaeef9" d="M399.4,223.74c1.32,1.8-1.65,7.81-3,10.13l3.95,2.27c1.12-1.93,3.85-6.08,6-7.33a2.1,2.1,0,0,1,1.27-.36,12.61,12.61,0,0,0,2.32-.24c2.5-.7,3,4.45,3,6.64l5.59-3.23c0-2.19.51-7.38,3-10.13.8-.77,1.57-1.59,2.32-2.44a4.24,4.24,0,0,1,1.27-1.11c2.17-1.26,4.92-.27,6,.37l3.93-6.83c-1.34-.77-4.34-3.33-3-6.64.37-1.08.69-2.15,1-3.23.64-3.24,5.38-6.58,7.28-7.68V187.5c-1.91,1.1-6.65,3.24-7.31.74a13.65,13.65,0,0,0-1-2.11c-1.32-1.8,1.46-7.7,3-10.13l-4-2.26c-1.11,1.92-3.84,6.07-6,7.32a2.15,2.15,0,0,1-1.28.36,13.54,13.54,0,0,0-2.32.24c-2.5.69-3-4.45-3.05-6.64l-5.59,3.23c0,2.19-.51,7.94-3,10.13-.79.77-1.56,1.59-2.31,2.44a4.29,4.29,0,0,1-1.26,1.1c-2.14,1.24-4.82.22-6.05-.35l-3.94,6.82c1.35.77,4.35,3.33,3.05,6.64-.37,1.07-.69,2.15-1,3.23-.64,3.24-5.38,6.58-7.29,7.68l0,6.43c1.91-1.1,6.65-3.24,7.31-.74A12.4,12.4,0,0,0,399.4,223.74Zm6.44-13.09c0-6.28,4.4-13.94,9.87-17.1s9.92-.62,9.94,5.66-4.4,13.94-9.88,17.1S405.86,216.94,405.84,210.65Z" class="coloreaeef9 svgShape"/><path fill="#7f7ff4" d="M391.12,222.37c1.91-1.1,6.65-3.24,7.31-.74a12.4,12.4,0,0,0,1,2.11c1.32,1.8-1.65,7.81-3,10.13l-11.51-6.69a34,34,0,0,0,3-6.71Z" class="color7f7ff4 svgShape"/><polygon fill="#5555c6" points="388.73 184.88 400.24 191.57 396.3 198.39 384.79 191.7 388.73 184.88" class="color5555c6 svgShape"/><path fill="#5555c6" d="M419.61,167.05l11.51,6.69c-1.11,1.92-3.84,6.07-6,7.32a2.15,2.15,0,0,1-1.28.36,13.54,13.54,0,0,0-2.32.24c-2.5.69-3-4.45-3.05-6.64l-3.31-1.92A32.45,32.45,0,0,0,419.61,167.05Z" class="color5555c6 svgShape"/><path d="M357,147c1.24-3.2,3.26-4.36,4.5-2.6l19.87,28.26c1.23,1.76.22,4.37-2.25,5.8l-39.73,22.94c-2.48,1.42-3.49,0-2.26-3.21Z" style="mix-blend-mode:multiply" fill="#f3b378" class="colorf3b378 svgShape"/><polygon fill="#ffffff" points="360.7 178.55 357.8 180.23 357.8 183.57 360.7 181.9 360.7 178.55" class="colorfff svgShape"/><polygon fill="#ffffff" points="361.26 156.83 357.24 159.16 357.8 176.83 360.7 175.16 361.26 156.83" class="colorfff svgShape"/><path fill="#d0d4f6" d="M414.37,84.19l-7.77,4.48c-4.54,2.62-10.78-11.68-15.86-8.75l-13.61,7.86c-10.15,5.86-6.48-11.2-21.66-2.44-17.84,10.3-16.38,31-26.53,36.83L315.33,130c-5.07,2.93-6.46,15.06-11,17.68l-7.76,4.49c-1.69,1-4.92,3.67-4.92,7.2l63.82-36.84,63.82-36.85C419.29,82.18,416.06,83.21,414.37,84.19Z" class="colord0d4f6 svgShape"/></g></svg>